<svg width="224" height="262" viewBox="0 0 224 262" fill="none" xmlns="http://www.w3.org/2000/svg">
<path d="M213.866 102.184L213.422 101.507H212.612H3.41406H1.91406V103.007V252.23V253.044L2.5957 253.488L7.79499 256.872L12.9943 260.257L13.3674 260.5H13.8127H220.094H221.594V259V114.406V113.958L221.348 113.583L213.866 102.184Z" fill="white" stroke="black" stroke-width="3"/>
<rect x="2.5" y="126.023" width="209.455" height="121.914" fill="black" stroke="black" stroke-width="3"/>
<path d="M99.3809 16.3442C99.3809 17.0166 99.3809 17.689 99.3809 18.3614C99.3809 19.1111 99.9837 19.2516 100.276 19.7809C100.943 20.9879 102.465 21.1256 103.578 21.1256C105.138 21.1256 105.811 21.1063 106.88 19.8971C107.153 19.5887 108.794 17.1864 108.362 16.9419" stroke="black" stroke-width="3" stroke-linecap="round"/>
<path d="M103.164 2C102.514 2 100.076 2.76695 100.025 3.49419C99.9722 4.23743 99.9356 5.13328 100.166 5.80464C100.764 7.54897 103.342 7.97674 105.256 7.97674C106.204 7.97674 107.426 7.79641 107.831 6.95295C108.219 6.14552 108.712 5.17663 108.246 4.30354C107.783 3.43483 107.079 2.99415 106.228 2.44272C105.876 2.21465 103.612 1.78237 103.612 2.24903" stroke="black" stroke-width="3" stroke-linecap="round"/>
<path d="M99.9844 5.28723L99.3809 16.9419M108.434 5.28723L108.736 17.5396" stroke="black" stroke-width="3"/>
<rect x="2.5" y="101.519" width="209.455" height="22.1023" fill="white" stroke="black" stroke-width="3"/>
<rect x="2.5" y="229.421" width="209.455" height="22.1023" fill="white" stroke="black" stroke-width="3"/>
<path d="M213.145 228.115V125.323L219.5 128.977V230.754L213.145 228.115Z" fill="black" stroke="black" stroke-width="3"/>
<path d="M10.0537 108.386H15.0331H20.0126M10.0537 112.271H20.0126M10.0537 116.455H20.0126" stroke="black" stroke-width="3"/>
<path d="M183.665 110.179C182.893 110.179 182.275 110.716 181.812 111.288C181.432 111.759 181.468 112.589 181.468 113.149C181.468 113.788 181.48 114.47 182.276 114.578C183.109 114.692 183.965 114.919 184.815 114.723C185.521 114.56 186.257 114.101 186.521 113.405C186.88 112.457 186.484 111.197 185.704 110.566C185.06 110.044 184.001 110.227 183.225 110.227" stroke="black" stroke-width="3" stroke-linecap="round"/>
<path d="M196.339 110.179C195.568 110.179 194.95 110.716 194.487 111.288C194.106 111.759 194.143 112.589 194.143 113.149C194.143 113.788 194.155 114.47 194.951 114.578C195.784 114.692 196.64 114.919 197.489 114.723C198.196 114.56 198.932 114.101 199.195 113.405C199.554 112.457 199.158 111.197 198.379 110.566C197.734 110.044 196.676 110.227 195.9 110.227" stroke="black" stroke-width="3" stroke-linecap="round"/>
<path d="M99.0798 16.9419L44.457 112.869" stroke="black" stroke-width="3"/>
<path d="M108.435 15.7465L163.963 113.765" stroke="black" stroke-width="3"/>
<path d="M45.4492 109.844C45.2132 109.82 44.9906 109.656 44.75 109.618C44.5976 109.593 44.4537 109.589 44.2988 109.589C43.9535 109.589 43.5926 109.557 43.2532 109.624C42.9052 109.693 42.6322 109.887 42.3603 110.099C42.0981 110.304 41.9588 110.607 41.766 110.864C41.5189 111.193 41.4913 111.742 41.4514 112.132C41.4136 112.501 41.4607 112.87 41.5658 113.221C41.757 113.86 42.2378 114.413 42.7098 114.863C43.2293 115.359 44.1353 115.48 44.8199 115.48C45.0111 115.48 45.1753 115.454 45.3618 115.411C45.6545 115.343 46.007 115.24 46.2436 115.055C46.6564 114.733 46.9672 114.321 47.2224 113.872C47.3283 113.686 47.4743 113.483 47.5211 113.271C47.5635 113.079 47.5656 112.894 47.5656 112.698C47.5656 112.384 47.5639 112.098 47.5021 111.792C47.4446 111.508 47.4007 111.131 47.143 110.949C46.9808 110.834 46.8501 110.681 46.6822 110.568C46.5898 110.506 46.4852 110.472 46.393 110.411" stroke="black" stroke-width="3" stroke-linecap="round"/>
<path d="M164.352 110.442C164.117 110.417 163.894 110.253 163.653 110.215C163.501 110.191 163.357 110.187 163.202 110.187C162.857 110.187 162.496 110.154 162.157 110.222C161.809 110.291 161.535 110.485 161.264 110.697C161.001 110.901 160.862 111.204 160.669 111.461C160.422 111.791 160.395 112.34 160.355 112.73C160.317 113.099 160.364 113.467 160.469 113.818C160.66 114.457 161.141 115.01 161.613 115.461C162.133 115.957 163.039 116.078 163.723 116.078C163.914 116.078 164.079 116.052 164.265 116.009C164.558 115.941 164.91 115.838 165.147 115.653C165.56 115.331 165.871 114.919 166.126 114.47C166.232 114.283 166.378 114.081 166.424 113.869C166.467 113.677 166.469 113.492 166.469 113.296C166.469 112.982 166.467 112.696 166.405 112.39C166.348 112.105 166.304 111.729 166.046 111.546C165.884 111.432 165.753 111.279 165.585 111.166C165.493 111.103 165.389 111.069 165.296 111.008" stroke="black" stroke-width="3" stroke-linecap="round"/>
<path d="M87.9141 167.709C87.9141 159.042 94.9399 152.016 103.607 152.016V152.016C112.274 152.016 119.3 159.042 119.3 167.709V185.333C119.3 194 112.274 201.026 103.607 201.026V201.026C94.9399 201.026 87.9141 194 87.9141 185.333V167.709Z" fill="#B0F4E6"/>
<path d="M96.666 166.285C96.666 162.849 99.0803 159.886 102.445 159.191V159.191C103.411 158.992 104.407 158.992 105.372 159.191V159.191C108.737 159.886 111.152 162.849 111.152 166.285V186.257C111.152 189.913 108.427 192.995 104.799 193.445V193.445C104.208 193.518 103.61 193.518 103.019 193.445V193.445C99.3908 192.995 96.666 189.913 96.666 186.257V166.285Z" fill="black"/>
<path d="M71.6176 153.212H62.2623L43.8535 183.394V189.969H63.1676V199.83H72.5229V189.969H77.3515V181.9H72.5229L71.6176 153.212Z" fill="#B0F4E6"/>
<path d="M63.1679 181.9V166.36L52.9072 181.9H63.1679Z" fill="black"/>
<path d="M156.117 153.212H146.761L128.353 183.394V189.969H147.667V199.83H157.022V189.969H161.85V181.9H157.022L156.117 153.212Z" fill="#B0F4E6"/>
<path d="M147.667 181.9V166.36L137.406 181.9H147.667Z" fill="black"/>
</svg>
