<svg version="1.1" id="Layer_1" xmlns="http://www.w3.org/2000/svg" xmlns:xlink="http://www.w3.org/1999/xlink" x="0px" y="0px"
	 width="100%" viewBox="0 0 512 512" enable-background="new 0 0 512 512" xml:space="preserve">
<path fill="#010100" opacity="1.000000" stroke="none" 
	d="
M513.000000,173.000000 
	C513.000000,286.639038 513.000000,399.778076 513.000000,512.958557 
	C342.402618,512.958557 171.805222,512.958557 1.103918,512.958557 
	C1.103918,342.444336 1.103918,171.888565 1.103918,1.166402 
	C171.666534,1.166402 342.333252,1.166402 513.000000,1.166402 
	C513.000000,58.194736 513.000000,115.347366 513.000000,173.000000 
M396.572266,460.579285 
	C394.299347,458.016876 392.026428,455.454437 389.754425,452.893066 
	C387.511597,455.470703 385.575806,457.954651 383.365448,460.163849 
	C381.093903,462.434174 378.554291,464.436279 376.058167,466.620361 
	C379.136688,469.233521 382.016998,471.678375 385.119720,474.766632 
	C386.595062,476.543060 388.070435,478.319489 389.740997,480.330933 
	C391.923828,477.856384 393.877014,475.402496 396.084961,473.204559 
	C398.428162,470.871948 401.013153,468.782227 403.632935,466.462128 
	C401.326874,464.640289 399.122253,462.898621 396.572266,460.579285 
M427.988983,134.051498 
	C424.451324,129.867065 420.913696,125.682648 417.907349,122.126663 
	C410.720093,129.318222 403.296753,136.746002 396.069946,143.977173 
	C400.008453,147.277878 404.585876,151.114044 409.406586,155.565125 
	C412.078156,158.930527 414.749725,162.295914 416.890564,164.992752 
	C424.227661,157.656799 431.637787,150.247849 438.957794,142.928970 
	C435.881592,140.522842 432.106842,137.570328 427.988983,134.051498 
M328.979248,212.049042 
	C328.665009,211.905060 328.339813,211.873093 327.522156,211.437225 
	C324.589996,210.397827 321.657806,209.358429 318.401703,208.204208 
	C316.056030,217.021774 313.815491,225.444000 311.837311,232.880127 
	C322.923584,238.950470 333.338562,244.653275 343.818420,250.172653 
	C343.818420,250.172653 343.626221,250.142441 343.857391,250.684998 
	C344.210419,250.834351 344.563477,250.983688 345.209320,251.733139 
	C347.930267,253.859695 350.651215,255.986252 353.203918,257.981323 
	C359.574554,251.651581 365.711914,245.553665 372.103668,239.202972 
	C359.405457,227.835953 345.366119,218.563522 329.332916,212.422272 
	C329.332916,212.422272 329.349792,212.382538 328.979248,212.049042 
M94.065590,218.947281 
	C97.576508,223.551376 101.087425,228.155457 104.824142,233.055649 
	C112.072563,220.441132 122.154457,210.572723 134.583450,203.185959 
	C129.007492,198.882767 124.026993,195.039124 118.694725,190.605255 
	C113.869591,184.827133 109.044456,179.048996 104.058289,173.078033 
	C96.899277,185.470901 86.955879,195.232391 74.785591,202.443802 
	C81.419861,207.970520 87.633133,213.146515 94.065590,218.947281 
M222.603073,460.410950 
	C212.298065,454.271698 201.993057,448.132477 191.829895,442.077759 
	C186.290924,447.626892 180.141861,453.787231 173.683838,460.257111 
	C176.292648,462.285980 179.133957,464.495667 182.413177,467.248474 
	C195.864838,477.664642 210.622559,485.510803 227.188309,490.688232 
	C229.575378,481.743683 231.786377,473.458923 234.066605,464.914673 
	C230.151306,463.509399 226.588104,462.230469 222.603073,460.410950 
M291.261902,57.097786 
	C288.587738,61.494476 285.801025,65.828934 283.313324,70.328720 
	C282.635284,71.555191 282.166199,73.690132 282.773407,74.710793 
	C288.440491,84.236717 294.363129,93.610580 300.588898,103.635773 
	C303.985626,97.754631 307.040070,92.466118 310.664215,86.794678 
	C326.489838,60.739670 342.315430,34.684658 358.345642,8.292839 
	C345.005341,8.292839 332.458160,8.292839 320.313904,8.292839 
	C318.699341,11.307321 317.398102,13.983020 315.880219,16.529581 
	C307.890259,29.934530 299.845581,43.306877 291.261902,57.097786 
M392.055328,8.028346 
	C386.418243,8.028346 380.781158,8.028346 375.612671,8.028346 
	C373.334595,12.038830 371.374359,15.670054 369.247528,19.200932 
	C362.382751,30.597347 355.425964,41.938335 348.561493,53.334919 
	C338.615814,69.846901 328.719727,86.388763 318.228119,103.264526 
	C316.766296,105.683197 315.614014,108.372749 313.781311,110.466835 
	C309.306946,115.579361 309.987183,119.998215 313.857513,125.320740 
	C319.063873,132.480591 323.386841,140.282822 328.311859,148.166016 
	C331.983307,142.132935 335.455719,136.842148 338.495972,131.313721 
	C341.504822,125.842514 345.014221,121.974968 351.822540,124.980156 
	C355.350372,119.265450 358.651550,113.917908 361.905151,108.647415 
	C356.914978,103.154144 356.730896,101.401276 360.472839,95.234070 
	C377.120819,67.796066 393.784515,40.367596 410.437469,12.932585 
	C411.330444,11.461427 412.177673,9.962497 413.224854,8.170865 
	C405.951691,8.170865 399.465271,8.170865 392.055328,8.028346 
M205.057526,8.024092 
	C199.358475,8.024092 193.659424,8.024092 187.128433,8.024092 
	C188.647232,10.591809 189.622116,12.278931 190.633377,13.943966 
	C217.345718,57.925514 244.047470,101.913506 270.796783,145.872574 
	C273.882202,150.943085 276.177185,157.811066 280.760681,160.285675 
	C285.405304,162.793274 292.434845,160.885864 298.419830,160.901871 
	C298.748352,160.902740 299.077118,160.808914 300.145508,160.919586 
	C306.002197,160.919586 311.858917,160.919586 318.446167,160.919586 
	C286.889343,109.557220 255.859100,59.051949 224.597122,8.169459 
	C218.948059,8.169459 212.464874,8.169459 205.057526,8.024092 
M251.785660,454.057007 
	C255.729507,454.661102 259.653381,455.516571 263.620178,455.831696 
	C325.799896,460.770905 378.216766,413.483826 379.272095,351.200104 
	C379.761383,322.324524 370.118195,297.127899 349.666382,275.568390 
	C323.182739,249.097137 291.206146,238.059280 254.465424,244.620407 
	C194.550125,255.320007 157.409668,309.922546 168.023483,369.869598 
	C175.335144,411.165955 210.258362,446.481781 251.785660,454.057007 
M209.050186,133.451019 
	C211.427689,137.259720 213.764908,141.094330 216.192490,144.870834 
	C219.509506,150.030991 221.806610,157.144669 226.551941,159.730682 
	C231.484192,162.418503 238.810242,160.783997 245.092072,160.903839 
	C250.598907,161.008896 256.109314,160.925751 262.312744,160.925751 
	C231.094559,109.476242 200.434692,58.946865 169.720749,8.328379 
	C157.858658,8.328379 145.483688,8.328379 132.525543,8.328379 
	C133.675446,10.376563 134.501099,11.951594 135.421066,13.469468 
	C143.349655,26.551073 151.238937,39.657112 159.269577,52.675892 
	C161.729691,56.664070 162.951447,60.225971 159.618546,64.522285 
	C157.470337,67.291443 166.969238,82.294670 170.504974,81.791924 
	C175.286819,81.111992 177.890869,83.378120 180.188416,87.103020 
	C189.615997,102.387482 199.181137,117.587105 209.050186,133.451019 
M376.554779,285.976715 
	C380.637634,294.105103 384.720490,302.233490 388.959900,310.673492 
	C397.072266,308.479553 405.510071,306.197571 414.172913,303.854767 
	C412.548370,299.502869 410.787415,295.702576 409.775116,291.712402 
	C409.213684,289.499481 408.952789,285.839752 410.202423,284.788422 
	C414.373505,281.279022 412.332581,278.298096 410.519379,275.002502 
	C408.959686,272.167603 407.609222,269.184113 405.742462,266.568787 
	C405.038422,265.582458 403.001862,264.784515 401.818207,265.039612 
	C397.463165,265.978119 394.478760,264.491547 391.933472,261.024475 
	C389.203918,257.306366 386.151611,253.825195 383.625122,250.714600 
	C377.130066,257.224884 370.975281,263.394073 364.930603,269.452972 
	C368.497620,274.519714 372.319244,279.948029 376.554779,285.976715 
M115.996185,345.763428 
	C115.996277,348.929382 116.004044,352.095367 115.994186,355.261292 
	C115.985268,358.125092 116.990318,359.799652 119.962616,361.089081 
	C122.147690,362.036987 124.258415,364.698181 125.020912,367.044769 
	C126.378487,371.222717 126.690353,375.740509 127.537628,380.688873 
	C136.442459,378.295441 144.848328,376.036102 152.116913,374.082458 
	C152.116913,357.334106 152.116913,341.455414 152.116913,324.927795 
	C144.635330,322.955627 136.237564,320.741943 127.452263,318.426086 
	C126.582726,323.915833 126.336319,328.821350 124.884933,333.339874 
	C124.054977,335.923706 121.670387,338.827637 119.248322,339.863953 
	C116.498215,341.040619 115.629677,342.213593 115.996185,345.763428 
M406.814484,321.319641 
	C401.919586,322.699768 397.024658,324.079926 393.274231,325.137390 
	C393.274231,341.711304 393.274231,357.553833 393.274231,374.029205 
	C400.685516,376.011627 409.082031,378.257599 417.924011,380.622742 
	C422.293518,359.617096 422.389557,339.185211 417.880585,318.493927 
	C414.032135,319.472717 410.819214,320.289886 406.814484,321.319641 
M283.133972,201.359985 
	C269.303253,200.441742 255.613815,201.314804 241.669067,204.432434 
	C243.998978,213.115128 246.258209,221.534393 248.255325,228.976898 
	C264.933258,228.976898 280.930939,228.976898 297.321930,228.976898 
	C299.365021,221.274048 301.592407,212.876434 303.964081,203.934845 
	C296.891449,203.062439 290.473846,202.270844 283.133972,201.359985 
M185.657104,251.843796 
	C187.576401,254.122208 189.495712,256.400604 191.117645,258.326019 
	C198.624039,253.181671 204.930634,248.275665 211.786972,244.323364 
	C218.775360,240.294937 226.304352,237.204391 233.933136,233.541626 
	C231.725937,225.362000 229.455551,216.948196 227.098465,208.213043 
	C206.660629,214.914093 188.946960,225.136185 172.980911,239.669357 
	C177.242371,243.755280 181.199875,247.549759 185.657104,251.843796 
M298.159424,495.878448 
	C300.013702,495.436005 301.868011,494.993530 303.884369,494.512390 
	C301.482330,485.682281 299.197479,477.282867 297.235779,470.071381 
	C280.421936,470.071381 264.583038,470.071381 248.283173,470.071381 
	C247.360428,473.414368 246.186905,477.537903 245.088379,481.681335 
	C243.961395,485.932129 242.907791,490.202393 241.823883,494.457062 
	C259.044525,498.606171 274.770172,499.005219 298.159424,495.878448 
M160.704056,302.231140 
	C167.164078,290.893982 173.624084,279.556793 179.793976,268.728821 
	C174.274841,263.164764 168.138153,256.978149 161.945541,250.735138 
	C148.372559,266.022614 138.099655,283.622345 131.559830,303.903412 
	C140.376968,306.257599 148.791504,308.504303 157.304489,310.777283 
	C158.436676,307.825958 159.382278,305.360962 160.704056,302.231140 
M163.812439,403.648712 
	C161.608231,398.663757 159.404022,393.678802 157.042206,388.337402 
	C148.564270,390.615906 140.125137,392.883972 131.477661,395.208008 
	C138.049454,415.630493 148.401855,433.255371 162.096191,448.490387 
	C168.369354,442.233673 174.576187,436.043121 180.428406,430.206238 
	C175.055893,421.710419 169.566101,413.029114 163.812439,403.648712 
M393.182861,389.582672 
	C391.617218,389.178528 390.051575,388.774353 389.754578,388.697693 
	C381.433777,403.109314 373.443665,416.948181 365.855560,430.090729 
	C369.499878,433.862244 373.782654,438.294525 378.154175,442.818665 
	C380.078522,439.514221 381.748260,435.607819 384.338501,432.458405 
	C387.683167,428.391602 391.923218,429.564209 396.848114,432.963562 
	C402.966125,420.315735 408.875610,408.098969 415.032990,395.369751 
	C407.055389,393.270386 400.495880,391.544220 393.182861,389.582672 
M353.427216,441.104187 
	C340.810089,451.184326 327.303619,459.740601 311.467896,464.902802 
	C313.849365,473.782257 316.102570,482.183441 318.705902,491.890137 
	C331.597809,485.558960 343.849640,479.542145 356.101501,473.525330 
	C354.272064,470.150635 352.951843,467.685608 353.312744,465.497955 
	C354.490021,458.361786 362.520142,458.751862 366.767578,453.842010 
	C362.576782,449.764771 358.307861,445.611511 353.427216,441.104187 
z"/>
<path fill="#FDE359" opacity="1.000000" stroke="none" 
	d="
M251.008148,453.787109 
	C210.258362,446.481781 175.335144,411.165955 168.023483,369.869598 
	C157.409668,309.922546 194.550125,255.320007 254.465424,244.620407 
	C291.206146,238.059280 323.182739,249.097137 349.819855,276.290955 
	C350.642242,281.930725 351.766754,286.835632 351.900146,291.767334 
	C352.439728,311.712952 351.720917,331.491882 346.303375,350.979980 
	C336.340912,386.817352 315.528534,414.801727 285.214630,435.600983 
	C274.634125,442.860565 262.456421,447.792297 251.008148,453.787109 
M294.371185,276.203888 
	C289.919647,271.115723 284.300415,268.841400 277.560028,268.932648 
	C269.230591,269.045441 260.896545,268.853394 252.568222,269.001587 
	C241.486664,269.198730 232.951065,277.530182 232.388489,288.462036 
	C231.840164,299.117554 239.918839,308.214539 251.024536,309.388885 
	C253.443451,309.644714 255.880096,309.732727 258.577911,309.916351 
	C258.577911,312.348663 258.577850,314.327118 258.577911,316.305573 
	C258.579041,347.629822 258.514709,378.954315 258.613098,410.278259 
	C258.653229,423.056580 267.378296,432.093048 279.108063,431.937378 
	C290.648682,431.784241 299.062500,422.736389 299.074493,410.252563 
	C299.112854,370.430786 299.228882,330.607819 298.901489,290.788696 
	C298.862976,286.103180 296.254883,281.438751 294.371185,276.203888 
z"/>
<path fill="#FED05B" opacity="1.000000" stroke="none" 
	d="
M251.396912,453.922058 
	C262.456421,447.792297 274.634125,442.860565 285.214630,435.600983 
	C315.528534,414.801727 336.340912,386.817352 346.303375,350.979980 
	C351.720917,331.491882 352.439728,311.712952 351.900146,291.767334 
	C351.766754,286.835632 350.642242,281.930725 349.960083,276.600952 
	C370.118195,297.127899 379.761383,322.324524 379.272095,351.200104 
	C378.216766,413.483826 325.799896,460.770905 263.620178,455.831696 
	C259.653381,455.516571 255.729507,454.661102 251.396912,453.922058 
z"/>
<path fill="#FB7F86" opacity="1.000000" stroke="none" 
	d="
M208.872925,133.134491 
	C199.181137,117.587105 189.615997,102.387482 180.188416,87.103020 
	C177.890869,83.378120 175.286819,81.111992 170.504974,81.791924 
	C166.969238,82.294670 157.470337,67.291443 159.618546,64.522285 
	C162.951447,60.225971 161.729691,56.664070 159.269577,52.675892 
	C151.238937,39.657112 143.349655,26.551073 135.421066,13.469468 
	C134.501099,11.951594 133.675446,10.376563 132.525543,8.328379 
	C145.483688,8.328379 157.858658,8.328379 169.720749,8.328379 
	C200.434692,58.946865 231.094559,109.476242 262.312744,160.925751 
	C256.109314,160.925751 250.598907,161.008896 245.092072,160.903839 
	C238.810242,160.783997 231.484192,162.418503 226.551941,159.730682 
	C221.806610,157.144669 219.509506,150.030991 216.192490,144.870834 
	C213.764908,141.094330 211.427689,137.259720 208.872925,133.134491 
z"/>
<path fill="#AAD3FD" opacity="1.000000" stroke="none" 
	d="
M299.405792,160.759186 
	C299.077118,160.808914 298.748352,160.902740 298.419830,160.901871 
	C292.434845,160.885864 285.405304,162.793274 280.760681,160.285675 
	C276.177185,157.811066 273.882202,150.943085 270.796783,145.872574 
	C244.047470,101.913506 217.345718,57.925514 190.633377,13.943966 
	C189.622116,12.278931 188.647232,10.591809 187.128433,8.024092 
	C193.659424,8.024092 199.358475,8.024092 205.606735,8.414745 
	C213.547394,20.428823 221.069366,31.971663 228.305008,43.691277 
	C247.502792,74.786041 266.615753,105.933403 285.672791,137.114655 
	C290.424622,144.889709 294.837280,152.872086 299.405792,160.759186 
z"/>
<path fill="#7EB1E8" opacity="1.000000" stroke="none" 
	d="
M392.978882,8.170870 
	C399.465271,8.170865 405.951691,8.170865 413.224854,8.170865 
	C412.177673,9.962497 411.330444,11.461427 410.437469,12.932585 
	C393.784515,40.367596 377.120819,67.796066 360.472839,95.234070 
	C356.730896,101.401276 356.914978,103.154144 361.905151,108.647415 
	C358.651550,113.917908 355.350372,119.265450 351.822540,124.980156 
	C345.014221,121.974968 341.504822,125.842514 338.495972,131.313721 
	C335.455719,136.842148 331.983307,142.132935 328.311859,148.166016 
	C323.386841,140.282822 319.063873,132.480591 313.857513,125.320740 
	C309.987183,119.998215 309.306946,115.579361 313.781311,110.466835 
	C315.614014,108.372749 316.766296,105.683197 318.827759,103.249741 
	C319.884552,103.710564 320.462738,104.116768 320.781006,104.671997 
	C327.680847,116.709106 332.226318,111.873901 336.917206,104.138084 
	C353.794373,76.305672 370.760284,48.526714 387.520782,20.624302 
	C389.835541,16.770750 391.183411,12.336368 392.978882,8.170870 
z"/>
<path fill="#94C3F7" opacity="1.000000" stroke="none" 
	d="
M299.775635,160.839386 
	C294.837280,152.872086 290.424622,144.889709 285.672791,137.114655 
	C266.615753,105.933403 247.502792,74.786041 228.305008,43.691277 
	C221.069366,31.971663 213.547394,20.428823 206.068817,8.487430 
	C212.464874,8.169459 218.948059,8.169459 224.597122,8.169459 
	C255.859100,59.051949 286.889343,109.557220 318.446167,160.919586 
	C311.858917,160.919586 306.002197,160.919586 299.775635,160.839386 
z"/>
<path fill="#FC636E" opacity="1.000000" stroke="none" 
	d="
M291.819855,56.690529 
	C299.845581,43.306877 307.890259,29.934530 315.880219,16.529581 
	C317.398102,13.983020 318.699341,11.307321 320.313904,8.292839 
	C332.458160,8.292839 345.005341,8.292839 358.345642,8.292839 
	C342.315430,34.684658 326.489838,60.739670 310.218994,86.671036 
	C303.789124,76.595100 297.804504,66.642815 291.819855,56.690529 
z"/>
<path fill="#94C3F7" opacity="1.000000" stroke="none" 
	d="
M392.517120,8.099611 
	C391.183411,12.336368 389.835541,16.770750 387.520782,20.624302 
	C370.760284,48.526714 353.794373,76.305672 336.917206,104.138084 
	C332.226318,111.873901 327.680847,116.709106 320.781006,104.671997 
	C320.462738,104.116768 319.884552,103.710564 319.114929,103.076416 
	C328.719727,86.388763 338.615814,69.846901 348.561493,53.334919 
	C355.425964,41.938335 362.382751,30.597347 369.247528,19.200932 
	C371.374359,15.670054 373.334595,12.038830 375.612671,8.028346 
	C380.781158,8.028346 386.418243,8.028346 392.517120,8.099611 
z"/>
<path fill="#FAE159" opacity="1.000000" stroke="none" 
	d="
M376.347809,285.676514 
	C372.319244,279.948029 368.497620,274.519714 364.930603,269.452972 
	C370.975281,263.394073 377.130066,257.224884 383.625122,250.714600 
	C386.151611,253.825195 389.203918,257.306366 391.933472,261.024475 
	C394.478760,264.491547 397.463165,265.978119 401.818207,265.039612 
	C403.001862,264.784515 405.038422,265.582458 405.742462,266.568787 
	C407.609222,269.184113 408.959686,272.167603 410.519379,275.002502 
	C412.332581,278.298096 414.373505,281.279022 410.202423,284.788422 
	C408.952789,285.839752 409.213684,289.499481 409.775116,291.712402 
	C410.787415,295.702576 412.548370,299.502869 414.172913,303.854767 
	C405.510071,306.197571 397.072266,308.479553 388.959900,310.673492 
	C384.720490,302.233490 380.637634,294.105103 376.347809,285.676514 
z"/>
<path fill="#FCF28E" opacity="1.000000" stroke="none" 
	d="
M115.996208,345.304779 
	C115.629677,342.213593 116.498215,341.040619 119.248322,339.863953 
	C121.670387,338.827637 124.054977,335.923706 124.884933,333.339874 
	C126.336319,328.821350 126.582726,323.915833 127.452263,318.426086 
	C136.237564,320.741943 144.635330,322.955627 152.116913,324.927795 
	C152.116913,341.455414 152.116913,357.334106 152.116913,374.082458 
	C144.848328,376.036102 136.442459,378.295441 127.537628,380.688873 
	C126.690353,375.740509 126.378487,371.222717 125.020912,367.044769 
	C124.258415,364.698181 122.147690,362.036987 119.962616,361.089081 
	C116.990318,359.799652 115.985268,358.125092 115.994186,355.261292 
	C116.004044,352.095367 115.996277,348.929382 115.996208,345.304779 
z"/>
<path fill="#FAE159" opacity="1.000000" stroke="none" 
	d="
M407.210388,321.213348 
	C410.819214,320.289886 414.032135,319.472717 417.880585,318.493927 
	C422.389557,339.185211 422.293518,359.617096 417.924011,380.622742 
	C409.082031,378.257599 400.685516,376.011627 393.274231,374.029205 
	C393.274231,357.553833 393.274231,341.711304 393.274231,325.137390 
	C397.024658,324.079926 401.919586,322.699768 407.210388,321.213348 
z"/>
<path fill="#FCF18D" opacity="1.000000" stroke="none" 
	d="
M283.595093,201.419617 
	C290.473846,202.270844 296.891449,203.062439 303.964081,203.934845 
	C301.592407,212.876434 299.365021,221.274048 297.321930,228.976898 
	C280.930939,228.976898 264.933258,228.976898 248.255325,228.976898 
	C246.258209,221.534393 243.998978,213.115128 241.669067,204.432434 
	C255.613815,201.314804 269.303253,200.441742 283.595093,201.419617 
z"/>
<path fill="#FBF08D" opacity="1.000000" stroke="none" 
	d="
M185.407242,251.594025 
	C181.199875,247.549759 177.242371,243.755280 172.980911,239.669357 
	C188.946960,225.136185 206.660629,214.914093 227.098465,208.213043 
	C229.455551,216.948196 231.725937,225.362000 233.933136,233.541626 
	C226.304352,237.204391 218.775360,240.294937 211.786972,244.323364 
	C204.930634,248.275665 198.624039,253.181671 191.117645,258.326019 
	C189.495712,256.400604 187.576401,254.122208 185.407242,251.594025 
z"/>
<path fill="#FAE159" opacity="1.000000" stroke="none" 
	d="
M297.737000,495.931488 
	C274.770172,499.005219 259.044525,498.606171 241.823883,494.457062 
	C242.907791,490.202393 243.961395,485.932129 245.088379,481.681335 
	C246.186905,477.537903 247.360428,473.414368 248.283173,470.071381 
	C264.583038,470.071381 280.421936,470.071381 297.235779,470.071381 
	C299.197479,477.282867 301.482330,485.682281 303.884369,494.512390 
	C301.868011,494.993530 300.013702,495.436005 297.737000,495.931488 
z"/>
<path fill="#FCF18D" opacity="1.000000" stroke="none" 
	d="
M160.515961,302.563568 
	C159.382278,305.360962 158.436676,307.825958 157.304489,310.777283 
	C148.791504,308.504303 140.376968,306.257599 131.559830,303.903412 
	C138.099655,283.622345 148.372559,266.022614 161.945541,250.735138 
	C168.138153,256.978149 174.274841,263.164764 179.793976,268.728821 
	C173.624084,279.556793 167.164078,290.893982 160.515961,302.563568 
z"/>
<path fill="#FCF28E" opacity="1.000000" stroke="none" 
	d="
M163.944382,403.998260 
	C169.566101,413.029114 175.055893,421.710419 180.428406,430.206238 
	C174.576187,436.043121 168.369354,442.233673 162.096191,448.490387 
	C148.401855,433.255371 138.049454,415.630493 131.477661,395.208008 
	C140.125137,392.883972 148.564270,390.615906 157.042206,388.337402 
	C159.404022,393.678802 161.608231,398.663757 163.944382,403.998260 
z"/>
<path fill="#FAE059" opacity="1.000000" stroke="none" 
	d="
M393.559631,389.700348 
	C400.495880,391.544220 407.055389,393.270386 415.032990,395.369751 
	C408.875610,408.098969 402.966125,420.315735 396.848114,432.963562 
	C391.923218,429.564209 387.683167,428.391602 384.338501,432.458405 
	C381.748260,435.607819 380.078522,439.514221 378.154175,442.818665 
	C373.782654,438.294525 369.499878,433.862244 365.855560,430.090729 
	C373.443665,416.948181 381.433777,403.109314 389.754578,388.697693 
	C390.051575,388.774353 391.617218,389.178528 393.559631,389.700348 
z"/>
<path fill="#FAE159" opacity="1.000000" stroke="none" 
	d="
M353.733093,441.281250 
	C358.307861,445.611511 362.576782,449.764771 366.767578,453.842010 
	C362.520142,458.751862 354.490021,458.361786 353.312744,465.497955 
	C352.951843,467.685608 354.272064,470.150635 356.101501,473.525330 
	C343.849640,479.542145 331.597809,485.558960 318.705902,491.890137 
	C316.102570,482.183441 313.849365,473.782257 311.467896,464.902802 
	C327.303619,459.740601 340.810089,451.184326 353.733093,441.281250 
z"/>
<path fill="#FAE159" opacity="1.000000" stroke="none" 
	d="
M223.024902,460.951569 
	C226.588104,462.230469 230.151306,463.509399 234.066605,464.914673 
	C231.786377,473.458923 229.575378,481.743683 227.188309,490.688232 
	C210.622559,485.510803 195.864838,477.664642 182.559814,466.788208 
	C196.145920,464.535828 209.585419,462.743683 223.024902,460.951569 
z"/>
<path fill="#FBF08D" opacity="1.000000" stroke="none" 
	d="
M93.846397,218.322510 
	C87.633133,213.146515 81.419861,207.970520 74.785591,202.443802 
	C86.955879,195.232391 96.899277,185.470901 104.058289,173.078033 
	C109.044456,179.048996 113.869591,184.827133 118.766197,191.210526 
	C108.939659,199.173401 100.255302,207.675278 93.846397,218.322510 
z"/>
<path fill="#FBE259" opacity="1.000000" stroke="none" 
	d="
M329.360504,212.373489 
	C345.366119,218.563522 359.405457,227.835953 372.103668,239.202972 
	C365.711914,245.553665 359.574554,251.651581 353.203918,257.981323 
	C350.651215,255.986252 347.930267,253.859695 344.902740,251.206696 
	C344.272858,250.500977 343.949524,250.321701 343.626221,250.142441 
	C343.626221,250.142441 343.818420,250.172653 343.857666,249.841263 
	C339.679688,238.948456 335.450806,228.391647 331.256531,217.821106 
	C330.548035,216.035599 329.988739,214.190857 329.360504,212.373489 
z"/>
<path fill="#FAE159" opacity="1.000000" stroke="none" 
	d="
M93.955994,218.634888 
	C100.255302,207.675278 108.939659,199.173401 118.942085,191.505646 
	C124.026993,195.039124 129.007492,198.882767 134.583450,203.185959 
	C122.154457,210.572723 112.072563,220.441132 104.824142,233.055649 
	C101.087425,228.155457 97.576508,223.551376 93.955994,218.634888 
z"/>
<path fill="#FCF18D" opacity="1.000000" stroke="none" 
	d="
M329.346710,212.397888 
	C329.988739,214.190857 330.548035,216.035599 331.256531,217.821106 
	C335.450806,228.391647 339.679688,238.948456 343.825256,249.932968 
	C333.338562,244.653275 322.923584,238.950470 311.837311,232.880127 
	C313.815491,225.444000 316.056030,217.021774 318.401703,208.204208 
	C321.657806,209.358429 324.589996,210.397827 327.933563,211.896530 
	C328.679901,212.364731 329.014862,212.373642 329.349792,212.382538 
	C329.349792,212.382538 329.332916,212.422272 329.346710,212.397888 
z"/>
<path fill="#FAEF8C" opacity="1.000000" stroke="none" 
	d="
M222.813995,460.681274 
	C209.585419,462.743683 196.145920,464.535828 182.340851,466.516663 
	C179.133957,464.495667 176.292648,462.285980 173.683838,460.257111 
	C180.141861,453.787231 186.290924,447.626892 191.829895,442.077759 
	C201.993057,448.132477 212.298065,454.271698 222.813995,460.681274 
z"/>
<path fill="#FA4654" opacity="1.000000" stroke="none" 
	d="
M291.540894,56.894157 
	C297.804504,66.642815 303.789124,76.595100 309.934143,86.862495 
	C307.040070,92.466118 303.985626,97.754631 300.588898,103.635773 
	C294.363129,93.610580 288.440491,84.236717 282.773407,74.710793 
	C282.166199,73.690132 282.635284,71.555191 283.313324,70.328720 
	C285.801025,65.828934 288.587738,61.494476 291.540894,56.894157 
z"/>
<path fill="#FAEF8C" opacity="1.000000" stroke="none" 
	d="
M409.163330,154.950195 
	C404.585876,151.114044 400.008453,147.277878 396.069946,143.977173 
	C403.296753,136.746002 410.720093,129.318222 417.907349,122.126663 
	C420.913696,125.682648 424.451324,129.867065 427.968109,134.647095 
	C421.685913,141.811859 415.424622,148.381027 409.163330,154.950195 
z"/>
<path fill="#F8DF58" opacity="1.000000" stroke="none" 
	d="
M409.284973,155.257660 
	C415.424622,148.381027 421.685913,141.811859 428.139648,134.930252 
	C432.106842,137.570328 435.881592,140.522842 438.957794,142.928970 
	C431.637787,150.247849 424.227661,157.656799 416.890564,164.992752 
	C414.749725,162.295914 412.078156,158.930527 409.284973,155.257660 
z"/>
<path fill="#FAEF8C" opacity="1.000000" stroke="none" 
	d="
M384.897278,474.123230 
	C382.016998,471.678375 379.136688,469.233521 376.058167,466.620361 
	C378.554291,464.436279 381.093903,462.434174 383.365448,460.163849 
	C385.575806,457.954651 387.511597,455.470703 389.754425,452.893066 
	C392.026428,455.454437 394.299347,458.016876 396.526825,461.101379 
	C392.620026,465.790070 388.758636,469.956635 384.897278,474.123230 
z"/>
<path fill="#F8DF58" opacity="1.000000" stroke="none" 
	d="
M385.008484,474.444946 
	C388.758636,469.956635 392.620026,465.790070 396.699524,461.390198 
	C399.122253,462.898621 401.326874,464.640289 403.632935,466.462128 
	C401.013153,468.782227 398.428162,470.871948 396.084961,473.204559 
	C393.877014,475.402496 391.923828,477.856384 389.740997,480.330933 
	C388.070435,478.319489 386.595062,476.543060 385.008484,474.444946 
z"/>
<path fill="#FBE259" opacity="1.000000" stroke="none" 
	d="
M329.164520,212.215790 
	C329.014862,212.373642 328.679901,212.364731 328.174316,212.154495 
	C328.339813,211.873093 328.665009,211.905060 329.164520,212.215790 
z"/>
<path fill="#FCF18D" opacity="1.000000" stroke="none" 
	d="
M343.741821,250.413727 
	C343.949524,250.321701 344.272858,250.500977 344.756348,250.906631 
	C344.563477,250.983688 344.210419,250.834351 343.741821,250.413727 
z"/>
<path fill="#050402" opacity="1.000000" stroke="none" 
	d="
M294.604584,276.484222 
	C296.254883,281.438751 298.862976,286.103180 298.901489,290.788696 
	C299.228882,330.607819 299.112854,370.430786 299.074493,410.252563 
	C299.062500,422.736389 290.648682,431.784241 279.108063,431.937378 
	C267.378296,432.093048 258.653229,423.056580 258.613098,410.278259 
	C258.514709,378.954315 258.579041,347.629822 258.577911,316.305573 
	C258.577850,314.327118 258.577911,312.348663 258.577911,309.916351 
	C255.880096,309.732727 253.443451,309.644714 251.024536,309.388885 
	C239.918839,308.214539 231.840164,299.117554 232.388489,288.462036 
	C232.951065,277.530182 241.486664,269.198730 252.568222,269.001587 
	C260.896545,268.853394 269.230591,269.045441 277.560028,268.932648 
	C284.300415,268.841400 289.919647,271.115723 294.604584,276.484222 
M273.605316,387.499756 
	C273.607788,395.160217 273.534485,402.821716 273.642151,410.480682 
	C273.703400,414.840179 276.142334,417.464050 279.468201,416.828949 
	C283.334412,416.090729 284.127716,413.272552 284.113342,409.720764 
	C284.033905,390.070312 284.075928,370.419342 284.076019,350.768555 
	C284.076080,330.951233 284.031921,311.133728 284.110535,291.316742 
	C284.127411,287.066406 283.020172,284.018250 278.148254,283.988708 
	C269.822021,283.938202 261.495178,283.967773 253.168655,283.987701 
	C249.808151,283.995728 247.681183,285.731812 247.541397,289.046600 
	C247.399368,292.414032 249.531311,294.279602 252.806183,294.469910 
	C256.126190,294.662872 259.464722,294.535339 262.795166,294.550964 
	C271.590057,294.592194 273.596680,296.613037 273.600800,305.565094 
	C273.613190,332.543304 273.605286,359.521484 273.605316,387.499756 
z"/>
<path fill="#FDF28E" opacity="1.000000" stroke="none" 
	d="
M273.605316,386.999725 
	C273.605286,359.521484 273.613190,332.543304 273.600800,305.565094 
	C273.596680,296.613037 271.590057,294.592194 262.795166,294.550964 
	C259.464722,294.535339 256.126190,294.662872 252.806183,294.469910 
	C249.531311,294.279602 247.399368,292.414032 247.541397,289.046600 
	C247.681183,285.731812 249.808151,283.995728 253.168655,283.987701 
	C261.495178,283.967773 269.822021,283.938202 278.148254,283.988708 
	C283.020172,284.018250 284.127411,287.066406 284.110535,291.316742 
	C284.031921,311.133728 284.076080,330.951233 284.076019,350.768555 
	C284.075928,370.419342 284.033905,390.070312 284.113342,409.720764 
	C284.127716,413.272552 283.334412,416.090729 279.468201,416.828949 
	C276.142334,417.464050 273.703400,414.840179 273.642151,410.480682 
	C273.534485,402.821716 273.607788,395.160217 273.605316,386.999725 
z"/>
</svg>