<svg version="1.1" id="Layer_1" xmlns="http://www.w3.org/2000/svg" xmlns:xlink="http://www.w3.org/1999/xlink" x="0px" y="0px"
	 width="100%" viewBox="0 0 512 512" enable-background="new 0 0 512 512" xml:space="preserve">
<path fill="#010101" opacity="1.000000" stroke="none" 
	d="
M513.000000,173.000000 
	C513.000000,286.639038 513.000000,399.778076 513.000000,512.958557 
	C342.402618,512.958557 171.805222,512.958557 1.103918,512.958557 
	C1.103918,342.444336 1.103918,171.888565 1.103918,1.166402 
	C171.666534,1.166402 342.333252,1.166402 513.000000,1.166402 
	C513.000000,58.194736 513.000000,115.347366 513.000000,173.000000 
M367.052246,240.981216 
	C368.704773,242.917618 370.357300,244.854004 372.009827,246.790390 
	C371.733398,246.273117 371.457001,245.755844 371.180603,245.238571 
	C375.617950,240.766235 380.055267,236.293915 384.477936,231.836380 
	C383.396393,231.016098 381.319702,229.441071 378.950562,227.253128 
	C376.682892,224.696915 374.415222,222.140701 373.264557,220.843628 
	C368.626678,225.369537 364.088409,229.798218 359.558289,234.218964 
	C361.334747,235.718170 364.087463,238.041306 367.052246,240.981216 
M465.847870,440.321747 
	C462.071381,435.951843 458.294861,431.581940 455.062744,427.841919 
	C447.819855,435.080414 440.430542,442.465240 433.300232,449.591248 
	C437.596619,453.224854 442.259094,457.168091 447.137970,461.751740 
	C449.619598,464.911285 452.101227,468.070831 454.065582,470.571777 
	C461.528046,463.135773 468.803619,455.885986 476.161194,448.554474 
	C473.163055,446.284332 469.636444,443.614044 465.847870,440.321747 
M311.959869,212.062088 
	C311.648285,211.913330 311.328125,211.891754 310.488068,211.511124 
	C307.477661,210.423126 304.467285,209.335144 301.215851,208.160034 
	C298.842590,217.110703 296.617157,225.503830 294.648132,232.929947 
	C305.572998,238.861130 315.819031,244.423767 326.407623,250.555054 
	C329.670837,253.057327 332.934021,255.559601 335.853851,257.798553 
	C340.244049,253.496780 344.444092,249.381302 348.832367,245.081421 
	C346.658508,243.808548 344.563995,242.496140 342.392761,241.326141 
	C334.197021,236.909775 333.361572,233.935440 338.772461,225.513412 
	C329.977814,221.149170 321.272827,216.829407 312.444580,212.452637 
	C312.444580,212.452637 312.322693,212.392776 311.959869,212.062088 
M205.574097,460.460144 
	C195.224350,454.299286 184.874588,448.138428 174.587952,442.015137 
	C168.997238,447.498260 162.765640,453.609924 156.251038,459.999146 
	C158.795990,461.982147 161.385529,463.999878 164.290009,466.612183 
	C178.005188,477.227692 193.019241,485.372131 209.941940,490.786407 
	C212.273239,482.125122 214.540894,473.700256 216.909531,464.900299 
	C213.103790,463.532898 209.561142,462.260040 205.574097,460.460144 
M82.757553,338.367218 
	C77.511269,332.276489 72.264977,326.185730 66.795662,319.836060 
	C59.704819,332.091461 49.658379,341.931000 37.632851,349.041962 
	C44.163029,354.524200 50.485462,359.832001 57.052826,365.770294 
	C60.510914,370.281342 63.969002,374.792389 67.661552,379.609314 
	C75.074120,366.791168 85.104164,357.130890 97.449997,349.672363 
	C92.328972,345.878204 87.675140,342.430206 82.757553,338.367218 
M294.209015,85.482117 
	C309.796021,59.880451 325.382996,34.278786 341.244873,8.225610 
	C327.862274,8.225610 315.308685,8.225610 303.489380,8.225610 
	C293.793549,24.501799 284.388580,40.289776 274.442413,56.464787 
	C274.192993,56.895657 273.946228,57.328079 273.693817,57.757168 
	C270.751587,62.758438 265.447754,67.791405 265.515411,72.751259 
	C265.586060,77.932945 270.759735,83.083885 273.824585,88.174866 
	C276.833984,93.173790 279.996674,98.080467 283.424164,103.558388 
	C287.199310,97.161568 290.484344,91.595177 294.209015,85.482117 
M375.055481,8.029349 
	C369.273712,8.029349 363.491913,8.029349 358.194336,8.029349 
	C356.622925,11.036730 355.444153,13.568002 354.024963,15.956449 
	C349.957794,22.801468 345.783752,29.582893 341.668671,36.399574 
	C328.298035,58.548298 314.934967,80.701599 301.061829,103.268982 
	C298.727539,107.095024 296.108246,110.785645 294.195190,114.811836 
	C293.397888,116.489899 293.365631,119.298820 294.255371,120.878090 
	C298.083618,127.673088 302.378967,134.205215 306.513824,140.827057 
	C307.943695,143.116989 309.401428,145.389526 311.154175,148.155685 
	C324.856293,125.576126 338.032532,103.852661 351.220795,82.136505 
	C355.358124,75.323830 356.482086,74.802711 364.391602,76.063606 
	C367.569031,70.831017 370.817474,65.481461 374.026520,60.196804 
	C369.164246,53.949287 369.096802,52.667194 373.210144,45.906139 
	C377.699158,38.527493 382.212280,31.163488 386.690704,23.778416 
	C389.751343,18.731304 392.770569,13.659069 396.064545,8.171141 
	C388.869904,8.171141 382.424957,8.171141 375.055481,8.029349 
M188.057739,8.027985 
	C182.294113,8.027985 176.530472,8.027985 170.140152,8.027985 
	C171.127213,9.847249 171.763351,11.148055 172.511780,12.380697 
	C199.577103,56.958271 226.642410,101.535851 253.741989,146.092606 
	C256.746002,151.031738 258.906830,157.831360 263.353149,160.176910 
	C268.057068,162.658325 275.026245,160.848053 281.006073,160.901535 
	C281.334351,160.904480 281.663513,160.807922 282.915924,160.923294 
	C288.798645,160.923294 294.681396,160.923294 301.310120,160.923294 
	C269.799866,109.657578 238.769363,59.172352 207.421768,8.171251 
	C201.935135,8.171251 195.458618,8.171251 188.057739,8.027985 
M332.907440,276.043335 
	C306.783997,249.424759 275.021515,238.588974 238.382050,244.302811 
	C159.774765,256.561340 122.259277,349.529266 170.004349,413.156128 
	C185.741623,434.128174 206.353912,447.976044 232.998901,453.795410 
	C248.541443,456.966797 264.070618,457.071899 279.543518,453.405914 
	C334.904541,440.289368 369.998535,388.009216 360.777008,331.898346 
	C357.301971,310.753601 348.426880,292.029480 332.907440,276.043335 
M228.496613,160.926224 
	C233.755402,160.926224 239.014191,160.926224 245.140961,160.926224 
	C214.067627,109.712730 183.424683,59.208584 152.591110,8.390280 
	C140.932724,8.390280 128.427841,8.390280 115.375610,8.390280 
	C116.471527,10.340417 117.226799,11.780577 118.068665,13.168197 
	C133.418274,38.468544 148.755646,63.776379 164.164612,89.040550 
	C166.097458,92.209595 167.731445,95.663643 165.258743,98.736778 
	C163.045776,101.487099 164.009537,103.431114 165.297638,105.653160 
	C166.760117,108.175972 168.568741,110.502670 169.967667,113.056602 
	C171.706848,116.231758 173.483734,118.260468 177.838028,117.909775 
	C179.889816,117.744537 182.825256,120.331841 184.277817,122.423592 
	C189.490417,129.929977 195.194473,137.323120 198.946136,145.563385 
	C204.804688,158.431274 213.743958,163.669830 228.496613,160.926224 
M376.191437,364.595062 
	C375.822388,367.664581 375.453369,370.734131 375.086609,373.784668 
	C383.794006,376.092590 392.093567,378.292419 400.793762,380.598450 
	C401.546661,376.148621 402.558411,372.105988 402.845490,368.012573 
	C403.262604,362.064941 404.954895,357.492096 411.752441,357.171753 
	C411.752441,350.528137 411.752441,344.291168 411.752441,337.824738 
	C399.216614,336.600952 404.046021,325.340332 400.278229,318.538727 
	C391.999847,320.747101 383.587250,322.991272 376.315155,324.931213 
	C376.315155,338.287201 376.315155,350.996643 376.191437,364.595062 
M125.529449,392.070007 
	C121.880676,393.103058 118.231903,394.136139 114.157860,395.289612 
	C116.122459,400.226349 117.898170,404.833984 119.785179,409.395538 
	C122.499596,415.957275 122.213356,417.547852 116.989838,422.686188 
	C119.634422,427.026245 122.453873,431.326721 124.914368,435.823639 
	C126.220985,438.211609 127.349869,438.690063 130.230576,438.233459 
	C132.712234,437.840118 136.021912,439.099884 138.118286,440.722961 
	C140.933167,442.902405 142.932938,446.134552 145.010849,448.593231 
	C151.374191,442.203369 157.554535,435.997253 162.865158,430.664520 
	C154.849701,416.795319 146.866837,402.982544 138.584991,388.652435 
	C135.245499,389.547058 130.790939,390.740387 125.529449,392.070007 
M279.874878,229.608719 
	C282.141083,221.217300 284.407288,212.825882 286.714722,204.281677 
	C265.558899,199.959091 245.202484,199.813187 224.482864,204.451035 
	C226.874344,213.303802 229.144241,221.706482 231.459198,230.275925 
	C247.701050,227.019852 263.419128,227.305832 279.874878,229.608719 
M248.713974,470.971191 
	C242.977020,470.345917 237.240051,469.720642 231.334045,469.076935 
	C230.169144,473.427490 229.052582,477.568085 227.952713,481.713165 
	C226.823730,485.967896 225.711075,490.226959 224.589813,494.489624 
	C245.289185,499.176727 271.360596,499.085632 286.615936,494.317474 
	C284.357849,485.900055 282.096863,477.471741 280.002930,469.666199 
	C269.520172,470.127350 259.595001,470.563965 248.713974,470.971191 
M314.443085,456.004700 
	C307.885773,459.094147 301.328430,462.183624 294.433502,465.432159 
	C296.692780,473.845703 298.958221,482.282104 301.254425,490.833099 
	C321.662262,484.189758 339.421722,473.874054 354.296448,460.359161 
	C347.952332,453.892456 341.822357,447.644012 335.967163,441.675659 
	C329.146362,446.259399 322.129059,450.975220 314.443085,456.004700 
M156.858154,240.104446 
	C162.960052,246.117065 169.061951,252.129700 173.990829,256.986481 
	C188.459579,248.650146 202.181046,240.744370 216.476074,232.508133 
	C214.546143,225.338516 212.277008,216.908752 209.928146,208.182846 
	C189.658371,215.139160 171.560226,224.825653 156.858154,240.104446 
M367.259796,397.695801 
	C360.905792,408.707123 354.551788,419.718445 348.304016,430.545624 
	C353.719757,436.001740 359.852295,442.179993 366.149628,448.524323 
	C380.003265,433.085388 390.228729,415.363403 396.822723,395.107574 
	C388.010773,392.763397 379.594543,390.524445 371.065247,388.255432 
	C369.804352,391.489594 368.723114,394.262909 367.259796,397.695801 
M130.721451,269.212067 
	C123.852661,279.967224 118.249405,291.304230 114.425003,303.910553 
	C123.198441,306.246674 131.604965,308.485138 138.571518,310.340149 
	C147.043030,295.712158 155.041214,281.901489 163.128357,267.937225 
	C157.759995,262.525238 151.678741,256.394562 145.099060,249.761398 
	C140.353989,256.122528 135.710144,262.347961 130.721451,269.212067 
M381.583099,307.998260 
	C386.662445,306.602661 391.741791,305.207062 397.897614,303.515686 
	C391.584412,290.653717 385.560852,278.381897 379.419434,265.869904 
	C371.954987,271.700012 368.052521,270.833679 364.170624,263.575928 
	C362.818512,261.047943 361.359833,258.576965 360.571503,257.180878 
	C355.995331,261.445709 351.678375,265.468964 348.460205,268.468201 
	C356.505859,282.486969 364.454102,296.336060 372.537842,310.421173 
	C374.719910,309.818756 377.751617,308.981750 381.583099,307.998260 
M112.377747,380.078247 
	C120.323021,377.950806 128.268295,375.823364 135.013992,374.017120 
	C135.013992,357.224701 135.013992,341.352264 135.013992,324.950226 
	C127.470917,322.953125 119.065872,320.727783 110.323997,318.413269 
	C109.734169,321.986786 109.225098,324.912231 108.771843,327.846283 
	C107.275131,337.534882 107.254852,337.588562 115.748062,342.120178 
	C119.516029,344.130585 122.173798,347.030792 120.675484,351.256348 
	C119.851761,353.579407 117.201935,355.411346 115.068695,357.070282 
	C112.878128,358.773773 108.187637,360.138397 108.272087,361.406158 
	C108.693176,367.728027 110.325981,373.969208 112.377747,380.078247 
z"/>
<path fill="#DEF7FE" opacity="1.000000" stroke="none" 
	d="
M232.310562,453.310181 
	C206.353912,447.976044 185.741623,434.128174 170.004349,413.156128 
	C122.259277,349.529266 159.774765,256.561340 238.382050,244.302811 
	C275.021515,238.588974 306.783997,249.424759 332.990417,276.790955 
	C333.414276,281.494202 334.035400,285.449127 334.044922,289.405518 
	C334.076721,302.647339 334.802032,315.976624 333.550201,329.109283 
	C332.068787,344.650024 327.774872,359.797211 320.764282,373.838409 
	C316.574310,382.230377 311.084686,389.973419 305.946869,397.755432 
	C300.983246,390.821960 294.407379,388.032623 286.357361,388.155853 
	C280.007629,388.253113 273.655212,388.175415 266.956635,388.175415 
	C276.168732,374.509644 285.127045,361.705414 293.555450,348.561401 
	C300.124786,338.316559 304.152374,327.035187 303.678070,314.639893 
	C302.689148,288.796265 282.969116,268.205414 257.411011,266.091797 
	C231.188553,263.923248 207.766876,281.477203 202.707413,307.090698 
	C200.636047,317.576965 206.918137,327.810791 217.163162,330.639893 
	C227.484238,333.489929 238.509003,327.526917 241.871140,317.254578 
	C242.336182,315.833740 242.541443,314.313904 243.118759,312.946167 
	C245.330276,307.706879 251.429306,305.238007 256.940857,307.257111 
	C261.834442,309.049774 264.377441,314.072083 262.503235,319.512390 
	C261.218994,323.240234 259.431305,326.929626 257.196564,330.173187 
	C242.183273,351.963654 227.061081,373.680237 211.814667,395.308289 
	C206.771637,402.462189 205.224182,409.886108 209.296829,417.774200 
	C213.459686,425.837036 220.556976,429.012970 229.493195,428.968658 
	C245.319870,428.890167 261.147766,429.058746 276.766479,429.373657 
	C275.519165,430.435730 274.494446,431.266754 273.439667,432.057678 
	C260.920532,441.444763 247.473679,449.038849 232.310562,453.310181 
z"/>
<path fill="#FB7F86" opacity="1.000000" stroke="none" 
	d="
M227.997589,160.926208 
	C213.743958,163.669830 204.804688,158.431274 198.946136,145.563385 
	C195.194473,137.323120 189.490417,129.929977 184.277817,122.423592 
	C182.825256,120.331841 179.889816,117.744537 177.838028,117.909775 
	C173.483734,118.260468 171.706848,116.231758 169.967667,113.056602 
	C168.568741,110.502670 166.760117,108.175972 165.297638,105.653160 
	C164.009537,103.431114 163.045776,101.487099 165.258743,98.736778 
	C167.731445,95.663643 166.097458,92.209595 164.164612,89.040550 
	C148.755646,63.776379 133.418274,38.468544 118.068665,13.168197 
	C117.226799,11.780577 116.471527,10.340417 115.375610,8.390280 
	C128.427841,8.390280 140.932724,8.390280 152.591110,8.390280 
	C183.424683,59.208584 214.067627,109.712730 245.140961,160.926224 
	C239.014191,160.926224 233.755402,160.926224 227.997589,160.926208 
z"/>
<path fill="#B5E8FD" opacity="1.000000" stroke="none" 
	d="
M306.179260,398.008148 
	C311.084686,389.973419 316.574310,382.230377 320.764282,373.838409 
	C327.774872,359.797211 332.068787,344.650024 333.550201,329.109283 
	C334.802032,315.976624 334.076721,302.647339 334.044922,289.405518 
	C334.035400,285.449127 333.414276,281.494202 333.114685,277.090576 
	C348.426880,292.029480 357.301971,310.753601 360.777008,331.898346 
	C369.998535,388.009216 334.904541,440.289368 279.543518,453.405914 
	C264.070618,457.071899 248.541443,456.966797 232.654724,453.552795 
	C247.473679,449.038849 260.920532,441.444763 273.439667,432.057678 
	C274.494446,431.266754 275.519165,430.435730 277.228271,429.284607 
	C280.552704,428.940369 283.206757,428.933044 285.860779,428.929565 
	C304.322632,428.905518 313.515717,414.915527 306.179260,398.008148 
z"/>
<path fill="#AAD3FD" opacity="1.000000" stroke="none" 
	d="
M281.992279,160.757675 
	C281.663513,160.807922 281.334351,160.904480 281.006073,160.901535 
	C275.026245,160.848053 268.057068,162.658325 263.353149,160.176910 
	C258.906830,157.831360 256.746002,151.031738 253.741989,146.092606 
	C226.642410,101.535851 199.577103,56.958271 172.511780,12.380697 
	C171.763351,11.148055 171.127213,9.847249 170.140152,8.027985 
	C176.530472,8.027985 182.294113,8.027985 188.571548,8.436047 
	C190.762161,11.302898 192.538284,13.700438 194.098877,16.230885 
	C201.681671,28.525993 209.185791,40.869595 216.756302,53.172302 
	C236.856689,85.837074 256.996490,118.477638 277.057190,151.166733 
	C278.932434,154.222427 280.357941,157.554138 281.992279,160.757675 
z"/>
<path fill="#7EB1E8" opacity="1.000000" stroke="none" 
	d="
M375.980011,8.171144 
	C382.424957,8.171141 388.869904,8.171141 396.064545,8.171141 
	C392.770569,13.659069 389.751343,18.731304 386.690704,23.778416 
	C382.212280,31.163488 377.699158,38.527493 373.210144,45.906139 
	C369.096802,52.667194 369.164246,53.949287 374.026520,60.196804 
	C370.817474,65.481461 367.569031,70.831017 364.391602,76.063606 
	C356.482086,74.802711 355.358124,75.323830 351.220795,82.136505 
	C338.032532,103.852661 324.856293,125.576126 311.154175,148.155685 
	C309.401428,145.389526 307.943695,143.116989 306.513824,140.827057 
	C302.378967,134.205215 298.083618,127.673088 294.255371,120.878090 
	C293.365631,119.298820 293.397888,116.489899 294.195190,114.811836 
	C296.108246,110.785645 298.727539,107.095024 301.660217,103.194824 
	C302.890503,103.870117 303.642242,104.548439 304.135864,105.379974 
	C309.255737,114.004982 313.709473,113.925758 318.874329,105.380196 
	C335.195984,78.374939 351.706146,51.483337 367.959503,24.437304 
	C371.062744,19.273479 373.328094,13.606162 375.980011,8.171144 
z"/>
<path fill="#94C3F7" opacity="1.000000" stroke="none" 
	d="
M282.454102,160.840485 
	C280.357941,157.554138 278.932434,154.222427 277.057190,151.166733 
	C256.996490,118.477638 236.856689,85.837074 216.756302,53.172302 
	C209.185791,40.869595 201.681671,28.525993 194.098877,16.230885 
	C192.538284,13.700438 190.762161,11.302898 189.033722,8.507680 
	C195.458618,8.171251 201.935135,8.171251 207.421768,8.171251 
	C238.769363,59.172352 269.799866,109.657578 301.310120,160.923294 
	C294.681396,160.923294 288.798645,160.923294 282.454102,160.840485 
z"/>
<path fill="#FC636E" opacity="1.000000" stroke="none" 
	d="
M274.983612,56.077759 
	C284.388580,40.289776 293.793549,24.501799 303.489380,8.225610 
	C315.308685,8.225610 327.862274,8.225610 341.244873,8.225610 
	C325.382996,34.278786 309.796021,59.880451 293.658508,85.694733 
	C288.910095,79.614738 284.573547,73.408676 280.570038,66.994759 
	C278.413330,63.539612 276.827179,59.728352 274.983612,56.077759 
z"/>
<path fill="#94C4F7" opacity="1.000000" stroke="none" 
	d="
M375.517761,8.100248 
	C373.328094,13.606162 371.062744,19.273479 367.959503,24.437304 
	C351.706146,51.483337 335.195984,78.374939 318.874329,105.380196 
	C313.709473,113.925758 309.255737,114.004982 304.135864,105.379974 
	C303.642242,104.548439 302.890503,103.870117 301.913788,102.986908 
	C314.934967,80.701599 328.298035,58.548298 341.668671,36.399574 
	C345.783752,29.582893 349.957794,22.801468 354.024963,15.956449 
	C355.444153,13.568002 356.622925,11.036730 358.194336,8.029349 
	C363.491913,8.029349 369.273712,8.029349 375.517761,8.100248 
z"/>
<path fill="#DDF5FC" opacity="1.000000" stroke="none" 
	d="
M376.253296,364.150574 
	C376.315155,350.996643 376.315155,338.287201 376.315155,324.931213 
	C383.587250,322.991272 391.999847,320.747101 400.278229,318.538727 
	C404.046021,325.340332 399.216614,336.600952 411.752441,337.824738 
	C411.752441,344.291168 411.752441,350.528137 411.752441,357.171753 
	C404.954895,357.492096 403.262604,362.064941 402.845490,368.012573 
	C402.558411,372.105988 401.546661,376.148621 400.793762,380.598450 
	C392.093567,378.292419 383.794006,376.092590 375.086609,373.784668 
	C375.453369,370.734131 375.822388,367.664581 376.253296,364.150574 
z"/>
<path fill="#F5FBFC" opacity="1.000000" stroke="none" 
	d="
M125.932922,392.001831 
	C130.790939,390.740387 135.245499,389.547058 138.584991,388.652435 
	C146.866837,402.982544 154.849701,416.795319 162.865158,430.664520 
	C157.554535,435.997253 151.374191,442.203369 145.010849,448.593231 
	C142.932938,446.134552 140.933167,442.902405 138.118286,440.722961 
	C136.021912,439.099884 132.712234,437.840118 130.230576,438.233459 
	C127.349869,438.690063 126.220985,438.211609 124.914368,435.823639 
	C122.453873,431.326721 119.634422,427.026245 116.989838,422.686188 
	C122.213356,417.547852 122.499596,415.957275 119.785179,409.395538 
	C117.898170,404.833984 116.122459,400.226349 114.157860,395.289612 
	C118.231903,394.136139 121.880676,393.103058 125.932922,392.001831 
z"/>
<path fill="#F5FBFC" opacity="1.000000" stroke="none" 
	d="
M279.504395,229.811859 
	C263.419128,227.305832 247.701050,227.019852 231.459198,230.275925 
	C229.144241,221.706482 226.874344,213.303802 224.482864,204.451035 
	C245.202484,199.813187 265.558899,199.959091 286.714722,204.281677 
	C284.407288,212.825882 282.141083,221.217300 279.504395,229.811859 
z"/>
<path fill="#DCF5FC" opacity="1.000000" stroke="none" 
	d="
M249.191910,470.985901 
	C259.595001,470.563965 269.520172,470.127350 280.002930,469.666199 
	C282.096863,477.471741 284.357849,485.900055 286.615936,494.317474 
	C271.360596,499.085632 245.289185,499.176727 224.589813,494.489624 
	C225.711075,490.226959 226.823730,485.967896 227.952713,481.713165 
	C229.052582,477.568085 230.169144,473.427490 231.334045,469.076935 
	C237.240051,469.720642 242.977020,470.345917 249.191910,470.985901 
z"/>
<path fill="#DCF5FC" opacity="1.000000" stroke="none" 
	d="
M314.777405,455.847839 
	C322.129059,450.975220 329.146362,446.259399 335.967163,441.675659 
	C341.822357,447.644012 347.952332,453.892456 354.296448,460.359161 
	C339.421722,473.874054 321.662262,484.189758 301.254425,490.833099 
	C298.958221,482.282104 296.692780,473.845703 294.433502,465.432159 
	C301.328430,462.183624 307.885773,459.094147 314.777405,455.847839 
z"/>
<path fill="#F5FBFC" opacity="1.000000" stroke="none" 
	d="
M156.609604,239.804108 
	C171.560226,224.825653 189.658371,215.139160 209.928146,208.182846 
	C212.277008,216.908752 214.546143,225.338516 216.476074,232.508133 
	C202.181046,240.744370 188.459579,248.650146 173.990829,256.986481 
	C169.061951,252.129700 162.960052,246.117065 156.609604,239.804108 
z"/>
<path fill="#DCF5FB" opacity="1.000000" stroke="none" 
	d="
M367.450806,397.366028 
	C368.723114,394.262909 369.804352,391.489594 371.065247,388.255432 
	C379.594543,390.524445 388.010773,392.763397 396.822723,395.107574 
	C390.228729,415.363403 380.003265,433.085388 366.149628,448.524323 
	C359.852295,442.179993 353.719757,436.001740 348.304016,430.545624 
	C354.551788,419.718445 360.905792,408.707123 367.450806,397.366028 
z"/>
<path fill="#F5FBFC" opacity="1.000000" stroke="none" 
	d="
M130.893875,268.892731 
	C135.710144,262.347961 140.353989,256.122528 145.099060,249.761398 
	C151.678741,256.394562 157.759995,262.525238 163.128357,267.937225 
	C155.041214,281.901489 147.043030,295.712158 138.571518,310.340149 
	C131.604965,308.485138 123.198441,306.246674 114.425003,303.910553 
	C118.249405,291.304230 123.852661,279.967224 130.893875,268.892731 
z"/>
<path fill="#DBF4FB" opacity="1.000000" stroke="none" 
	d="
M381.183228,308.071533 
	C377.751617,308.981750 374.719910,309.818756 372.537842,310.421173 
	C364.454102,296.336060 356.505859,282.486969 348.460205,268.468201 
	C351.678375,265.468964 355.995331,261.445709 360.571503,257.180878 
	C361.359833,258.576965 362.818512,261.047943 364.170624,263.575928 
	C368.052521,270.833679 371.954987,271.700012 379.419434,265.869904 
	C385.560852,278.381897 391.584412,290.653717 397.897614,303.515686 
	C391.741791,305.207062 386.662445,306.602661 381.183228,308.071533 
z"/>
<path fill="#F4FAFB" opacity="1.000000" stroke="none" 
	d="
M111.955078,380.158508 
	C110.325981,373.969208 108.693176,367.728027 108.272087,361.406158 
	C108.187637,360.138397 112.878128,358.773773 115.068695,357.070282 
	C117.201935,355.411346 119.851761,353.579407 120.675484,351.256348 
	C122.173798,347.030792 119.516029,344.130585 115.748062,342.120178 
	C107.254852,337.588562 107.275131,337.534882 108.771843,327.846283 
	C109.225098,324.912231 109.734169,321.986786 110.323997,318.413269 
	C119.065872,320.727783 127.470917,322.953125 135.013992,324.950226 
	C135.013992,341.352264 135.013992,357.224701 135.013992,374.017120 
	C128.268295,375.823364 120.323021,377.950806 111.955078,380.158508 
z"/>
<path fill="#FCF18D" opacity="1.000000" stroke="none" 
	d="
M56.807892,365.139832 
	C50.485462,359.832001 44.163029,354.524200 37.632851,349.041962 
	C49.658379,341.931000 59.704819,332.091461 66.795662,319.836060 
	C72.264977,326.185730 77.511269,332.276489 82.689125,338.942749 
	C72.114624,346.142792 64.014343,355.191071 56.807892,365.139832 
z"/>
<path fill="#DDF5FC" opacity="1.000000" stroke="none" 
	d="
M206.018494,460.987152 
	C209.561142,462.260040 213.103790,463.532898 216.909531,464.900299 
	C214.540894,473.700256 212.273239,482.125122 209.941940,490.786407 
	C193.019241,485.372131 178.005188,477.227692 164.601486,466.304413 
	C178.913361,466.776672 192.490341,464.082245 206.018494,460.987152 
z"/>
<path fill="#F5FBFC" opacity="1.000000" stroke="none" 
	d="
M326.065094,249.986404 
	C315.819031,244.423767 305.572998,238.861130 294.648132,232.929947 
	C296.617157,225.503830 298.842590,217.110703 301.215851,208.160034 
	C304.467285,209.335144 307.477661,210.423126 310.909729,211.959778 
	C311.661835,212.403198 311.992249,212.397980 312.322693,212.392761 
	C312.322693,212.392776 312.444580,212.452637 312.371216,212.848038 
	C312.548676,214.184402 312.663055,215.189667 313.071625,216.056244 
	C316.731232,223.818344 320.692871,231.450684 324.018158,239.351639 
	C325.388275,242.607086 325.423004,246.424561 326.065094,249.986404 
z"/>
<path fill="#FAE159" opacity="1.000000" stroke="none" 
	d="
M56.930359,365.455078 
	C64.014343,355.191071 72.114624,346.142792 82.820999,339.250244 
	C87.675140,342.430206 92.328972,345.878204 97.449997,349.672363 
	C85.104164,357.130890 75.074120,366.791168 67.661552,379.609314 
	C63.969002,374.792389 60.510914,370.281342 56.930359,365.455078 
z"/>
<path fill="#F4FAFB" opacity="1.000000" stroke="none" 
	d="
M205.796295,460.723633 
	C192.490341,464.082245 178.913361,466.776672 164.444016,466.007141 
	C161.385529,463.999878 158.795990,461.982147 156.251038,459.999146 
	C162.765640,453.609924 168.997238,447.498260 174.587952,442.015137 
	C184.874588,448.138428 195.224350,454.299286 205.796295,460.723633 
z"/>
<path fill="#DBF4FA" opacity="1.000000" stroke="none" 
	d="
M326.236359,250.270721 
	C325.423004,246.424561 325.388275,242.607086 324.018158,239.351639 
	C320.692871,231.450684 316.731232,223.818344 313.071625,216.056244 
	C312.663055,215.189667 312.548676,214.184402 312.432861,212.876526 
	C321.272827,216.829407 329.977814,221.149170 338.772461,225.513412 
	C333.361572,233.935440 334.197021,236.909775 342.392761,241.326141 
	C344.563995,242.496140 346.658508,243.808548 348.832367,245.081421 
	C344.444092,249.381302 340.244049,253.496780 335.853851,257.798553 
	C332.934021,255.559601 329.670837,253.057327 326.236359,250.270721 
z"/>
<path fill="#F94654" opacity="1.000000" stroke="none" 
	d="
M274.713013,56.271275 
	C276.827179,59.728352 278.413330,63.539612 280.570038,66.994759 
	C284.573547,73.408676 288.910095,79.614738 293.438660,85.968063 
	C290.484344,91.595177 287.199310,97.161568 283.424164,103.558388 
	C279.996674,98.080467 276.833984,93.173790 273.824585,88.174866 
	C270.759735,83.083885 265.586060,77.932945 265.515411,72.751259 
	C265.447754,67.791405 270.751587,62.758438 273.693817,57.757168 
	C273.946228,57.328079 274.192993,56.895657 274.713013,56.271275 
z"/>
<path fill="#FBF08C" opacity="1.000000" stroke="none" 
	d="
M446.921570,461.111328 
	C442.259094,457.168091 437.596619,453.224854 433.300232,449.591248 
	C440.430542,442.465240 447.819855,435.080414 455.062744,427.841919 
	C458.294861,431.581940 462.071381,435.951843 465.671417,440.783234 
	C459.303833,447.866913 453.112701,454.489136 446.921570,461.111328 
z"/>
<path fill="#FAE159" opacity="1.000000" stroke="none" 
	d="
M447.029785,461.431549 
	C453.112701,454.489136 459.303833,447.866913 465.802399,441.094238 
	C469.636444,443.614044 473.163055,446.284332 476.161194,448.554474 
	C468.803619,455.885986 461.528046,463.135773 454.065582,470.571777 
	C452.101227,468.070831 449.619598,464.911285 447.029785,461.431549 
z"/>
<path fill="#FBF08C" opacity="1.000000" stroke="none" 
	d="
M366.840149,240.364410 
	C364.087463,238.041306 361.334747,235.718170 359.558289,234.218964 
	C364.088409,229.798218 368.626678,225.369537 373.264557,220.843628 
	C374.415222,222.140701 376.682892,224.696915 378.781006,227.710419 
	C374.687714,232.233292 370.763947,236.298843 366.840149,240.364410 
z"/>
<path fill="#F6DD57" opacity="1.000000" stroke="none" 
	d="
M366.946198,240.672821 
	C370.763947,236.298843 374.687714,232.233292 378.927246,228.016876 
	C381.319702,229.441071 383.396393,231.016098 384.477936,231.836380 
	C380.055267,236.293915 375.617950,240.766235 371.180603,245.238571 
	C371.457001,245.755844 371.733398,246.273117 372.009827,246.790390 
	C370.357300,244.854004 368.704773,242.917618 366.946198,240.672821 
z"/>
<path fill="#DBF4FA" opacity="1.000000" stroke="none" 
	d="
M312.141296,212.227417 
	C311.992249,212.397980 311.661835,212.403198 311.165375,212.202881 
	C311.328125,211.891754 311.648285,211.913330 312.141296,212.227417 
z"/>
<path fill="#030404" opacity="1.000000" stroke="none" 
	d="
M305.946838,397.755432 
	C313.515717,414.915527 304.322632,428.905518 285.860779,428.929565 
	C283.206757,428.933044 280.552704,428.940369 277.436920,429.034943 
	C261.147766,429.058746 245.319870,428.890167 229.493195,428.968658 
	C220.556976,429.012970 213.459686,425.837036 209.296829,417.774200 
	C205.224182,409.886108 206.771637,402.462189 211.814667,395.308289 
	C227.061081,373.680237 242.183273,351.963654 257.196564,330.173187 
	C259.431305,326.929626 261.218994,323.240234 262.503235,319.512390 
	C264.377441,314.072083 261.834442,309.049774 256.940857,307.257111 
	C251.429306,305.238007 245.330276,307.706879 243.118759,312.946167 
	C242.541443,314.313904 242.336182,315.833740 241.871140,317.254578 
	C238.509003,327.526917 227.484238,333.489929 217.163162,330.639893 
	C206.918137,327.810791 200.636047,317.576965 202.707413,307.090698 
	C207.766876,281.477203 231.188553,263.923248 257.411011,266.091797 
	C282.969116,268.205414 302.689148,288.796265 303.678070,314.639893 
	C304.152374,327.035187 300.124786,338.316559 293.555450,348.561401 
	C285.127045,361.705414 276.168732,374.509644 266.956635,388.175415 
	C273.655212,388.175415 280.007629,388.253113 286.357361,388.155853 
	C294.407379,388.032623 300.983246,390.821960 305.946838,397.755432 
M236.488235,284.878723 
	C226.636871,290.024353 220.362640,297.946350 217.646988,308.765564 
	C216.771835,312.252075 217.566422,314.912292 220.985046,315.942749 
	C224.738174,317.074036 226.973862,314.991180 227.935257,311.393524 
	C228.149185,310.592926 228.319794,309.777496 228.586258,308.994751 
	C233.080612,295.792480 246.818314,288.680908 260.238556,292.598328 
	C275.308350,296.997192 282.292267,312.066101 275.610016,327.350555 
	C272.507324,334.447388 268.209320,341.118042 263.790588,347.524963 
	C250.750443,366.432465 237.356506,385.095673 224.153000,403.891022 
	C220.471878,409.131104 222.089401,413.796509 227.806473,413.848511 
	C247.969574,414.031921 268.135468,413.947540 288.300079,413.890167 
	C291.583893,413.880829 293.758331,412.035370 293.877472,408.715515 
	C293.999268,405.322388 291.745300,403.663086 288.567169,403.240631 
	C287.419220,403.088013 286.237610,403.176422 285.071350,403.176025 
	C274.572266,403.172455 264.062714,403.429535 253.581268,402.999542 
	C250.841599,402.887146 246.816071,401.278107 245.858185,399.209412 
	C244.757187,396.831696 245.549103,392.669800 247.029480,390.181641 
	C250.847519,383.764465 255.595459,377.908539 259.795197,371.708679 
	C267.442139,360.420044 275.290009,349.247040 282.429810,337.641754 
	C288.182434,328.291199 290.423370,317.910278 287.527740,306.968018 
	C281.906677,285.726715 258.755707,275.447113 236.488235,284.878723 
z"/>
<path fill="#F2F7F8" opacity="1.000000" stroke="none" 
	d="
M236.815948,284.691406 
	C258.755707,275.447113 281.906677,285.726715 287.527740,306.968018 
	C290.423370,317.910278 288.182434,328.291199 282.429810,337.641754 
	C275.290009,349.247040 267.442139,360.420044 259.795197,371.708679 
	C255.595459,377.908539 250.847519,383.764465 247.029480,390.181641 
	C245.549103,392.669800 244.757187,396.831696 245.858185,399.209412 
	C246.816071,401.278107 250.841599,402.887146 253.581268,402.999542 
	C264.062714,403.429535 274.572266,403.172455 285.071350,403.176025 
	C286.237610,403.176422 287.419220,403.088013 288.567169,403.240631 
	C291.745300,403.663086 293.999268,405.322388 293.877472,408.715515 
	C293.758331,412.035370 291.583893,413.880829 288.300079,413.890167 
	C268.135468,413.947540 247.969574,414.031921 227.806473,413.848511 
	C222.089401,413.796509 220.471878,409.131104 224.153000,403.891022 
	C237.356506,385.095673 250.750443,366.432465 263.790588,347.524963 
	C268.209320,341.118042 272.507324,334.447388 275.610016,327.350555 
	C282.292267,312.066101 275.308350,296.997192 260.238556,292.598328 
	C246.818314,288.680908 233.080612,295.792480 228.586258,308.994751 
	C228.319794,309.777496 228.149185,310.592926 227.935257,311.393524 
	C226.973862,314.991180 224.738174,317.074036 220.985046,315.942749 
	C217.566422,314.912292 216.771835,312.252075 217.646988,308.765564 
	C220.362640,297.946350 226.636871,290.024353 236.815948,284.691406 
z"/>
</svg>