<svg version="1.1" id="Layer_1" xmlns="http://www.w3.org/2000/svg" xmlns:xlink="http://www.w3.org/1999/xlink" x="0px" y="0px"
	 width="100%" viewBox="0 0 512 512" enable-background="new 0 0 512 512" xml:space="preserve">
<path fill="#010000" opacity="1.000000" stroke="none" 
	d="
M1.000000,178.000000 
	C1.000000,118.666664 1.000000,59.833332 1.000000,1.000000 
	C171.666672,1.000000 342.333344,1.000000 513.000000,1.000000 
	C513.000000,171.666672 513.000000,342.333344 513.000000,513.000000 
	C342.333344,513.000000 171.666672,513.000000 1.000000,513.000000 
	C1.000000,401.500000 1.000000,290.000000 1.000000,178.000000 
M90.149910,211.778397 
	C91.727409,213.635452 93.304909,215.492493 94.045418,216.364227 
	C98.692787,211.661728 103.170700,207.130692 107.587776,202.661209 
	C106.373573,201.698090 104.172714,199.952332 101.616470,197.625488 
	C99.469360,195.162155 97.322243,192.698822 96.023773,191.209122 
	C91.480492,195.866257 87.054214,200.403458 82.598183,204.971161 
	C84.368652,206.462341 87.145744,208.801346 90.149910,211.778397 
M119.539062,478.606354 
	C122.446274,482.163940 125.353477,485.721527 127.710037,488.605255 
	C135.043594,481.267151 142.317505,473.988739 149.651810,466.649902 
	C146.490555,464.153259 142.757385,461.204956 138.656876,457.671692 
	C135.168945,453.534851 131.681000,449.398010 128.709518,445.873688 
	C121.393974,453.173553 114.039330,460.512390 106.838898,467.697357 
	C110.630264,470.844788 114.957397,474.436951 119.539062,478.606354 
M194.393036,459.808990 
	C184.551514,453.815552 174.710007,447.822083 165.605972,442.277771 
	C162.366074,445.161957 158.723984,448.404175 154.743179,451.947906 
	C158.520752,454.167694 162.186920,456.090851 165.595428,458.395081 
	C168.528976,460.378235 171.168686,462.796051 173.917725,465.818451 
	C172.340790,469.266541 170.763870,472.714661 168.798233,477.012695 
	C178.304535,481.389984 188.922333,486.279022 200.111420,491.431152 
	C202.676224,481.900574 204.903702,473.623444 207.218918,465.020294 
	C202.943085,463.332855 198.966812,461.763611 194.393036,459.808990 
M317.406677,250.992203 
	C320.405457,253.332458 323.404236,255.672699 325.947479,257.657471 
	C332.286102,251.370407 338.485962,245.220963 344.928986,238.830338 
	C332.209656,227.708496 318.197174,218.200119 301.366211,211.802216 
	C298.190308,210.624557 295.014404,209.446915 291.548859,208.161835 
	C289.155182,217.203842 286.935852,225.587173 285.013733,232.847809 
	C296.242279,239.034698 306.642914,244.765381 317.406677,250.992203 
M418.002930,189.178925 
	C412.527161,182.847061 407.051392,176.515198 401.367828,169.943069 
	C394.200165,182.145828 384.348907,191.990250 372.185699,199.078766 
	C378.601288,204.482330 384.886108,209.775757 391.385010,215.672516 
	C394.891785,220.182800 398.398590,224.693100 402.247772,229.643799 
	C409.639099,216.906052 419.704773,207.166443 432.136536,199.682495 
	C427.160645,196.124130 422.727325,192.953781 418.002930,189.178925 
M283.738464,86.913551 
	C299.583099,60.838448 315.427765,34.763340 331.600159,8.148891 
	C318.180511,8.148891 305.737030,8.148891 293.626434,8.148891 
	C291.648621,11.704545 289.879181,15.079628 287.933228,18.349661 
	C280.284454,31.203020 272.580109,44.023308 264.338043,57.242538 
	C261.655731,61.645763 258.817505,65.965614 256.389954,70.505074 
	C255.698013,71.798943 255.547516,74.118553 256.256042,75.308380 
	C261.782593,84.588928 267.579468,93.708481 273.749451,103.610580 
	C277.083069,97.844040 280.126587,92.579308 283.738464,86.913551 
M292.461700,101.442238 
	C289.704651,105.986290 286.836334,110.468796 284.265900,115.116074 
	C283.592010,116.334389 283.162903,118.468216 283.774261,119.495689 
	C289.445648,129.027740 295.369415,138.409668 301.448608,148.203613 
	C306.899475,139.231766 312.063599,130.713181 317.246979,122.206352 
	C321.131409,115.831367 322.520050,115.220787 330.012390,116.643326 
	C333.282166,111.363815 336.601257,106.004715 339.899109,100.679893 
	C334.842346,94.800308 334.747192,93.433655 338.911530,86.572083 
	C353.823822,62.001339 368.743469,37.435078 383.652283,12.862241 
	C384.483978,11.491452 385.243469,10.076850 386.327759,8.170722 
	C379.120605,8.170722 372.550262,8.170722 365.056305,8.027216 
	C359.439301,8.027216 353.822296,8.027216 348.911743,8.027216 
	C345.580292,13.699966 342.617828,18.860056 339.546570,23.954571 
	C324.049683,49.660343 308.524445,75.349045 292.461700,101.442238 
M179.053055,8.032299 
	C173.037079,8.032299 167.021088,8.032299 160.935547,8.032299 
	C161.062775,9.011364 161.034958,9.199324 161.110794,9.324436 
	C191.277359,59.077862 221.435577,108.836395 251.714783,158.521194 
	C252.458496,159.741562 254.523285,160.760895 256.011292,160.816299 
	C261.658997,161.026550 267.322968,160.801300 273.905823,160.906693 
	C279.501404,160.906693 285.096985,160.906693 291.634399,160.906693 
	C260.106354,109.606873 229.020737,59.026936 197.766769,8.173077 
	C192.276978,8.173077 186.127335,8.173077 179.053055,8.032299 
M322.729614,275.423065 
	C296.499237,249.238632 264.767914,238.123047 228.426926,244.494095 
	C185.512817,252.017502 156.261612,277.441681 143.946091,319.328003 
	C131.716827,360.920898 142.402908,397.709320 173.682388,427.853760 
	C188.234756,441.878052 205.778214,450.820160 226.707153,454.320770 
	C241.122192,457.112061 255.502060,456.786469 269.760834,453.430878 
	C323.469238,440.791443 358.308807,391.346313 351.774414,336.533752 
	C349.002106,313.278625 339.630585,292.852264 322.729614,275.423065 
M201.127136,104.347565 
	C181.751938,72.389702 162.376740,40.431839 142.861938,8.243719 
	C131.082901,8.243719 118.676392,8.243719 105.700790,8.243719 
	C106.689079,10.061284 107.400475,11.504839 108.231140,12.876145 
	C115.640312,25.107517 122.931831,37.413651 130.561066,49.506569 
	C133.728256,54.526810 135.009811,59.057774 130.100372,63.445587 
	C132.951401,68.408470 135.530701,73.085350 138.332138,77.625153 
	C138.929031,78.592415 140.591248,79.867104 141.326218,79.632561 
	C147.529236,77.653038 150.076736,81.734406 152.718903,85.984566 
	C167.381851,109.571159 182.046417,133.157028 196.846222,156.657639 
	C197.954681,158.417740 200.084961,160.665512 201.806870,160.723999 
	C212.717819,161.094604 223.647552,160.912186 235.478729,160.912186 
	C223.880203,141.796387 212.703522,123.375847 201.127136,104.347565 
M368.906342,374.761383 
	C376.216583,376.653290 383.526855,378.545197 390.550659,380.362976 
	C394.785309,372.795715 389.289368,361.079620 401.867798,358.909546 
	C401.867798,352.488342 401.867798,346.352234 401.867798,339.778961 
	C394.541199,339.378510 393.366333,334.193878 392.862488,328.287231 
	C392.587952,325.068878 391.724640,321.900757 391.069000,318.401184 
	C382.055023,320.827789 373.766968,323.058960 365.714233,325.226807 
	C366.356659,333.269135 367.452576,340.868073 367.433167,348.464172 
	C367.413696,356.083466 366.179596,363.694275 365.760620,371.324341 
	C365.705170,372.334656 367.317871,373.436523 368.906342,374.761383 
M125.675209,260.850281 
	C122.809380,260.850281 119.943542,260.850281 116.637375,260.850281 
	C113.650902,265.790131 110.397324,271.171814 107.160294,276.526123 
	C112.562851,281.603790 112.800674,282.901794 110.039879,289.691315 
	C108.186630,294.248932 106.464355,298.859802 104.531311,303.838806 
	C113.554665,306.236053 121.981400,308.474792 128.891678,310.310669 
	C137.322510,295.762878 145.274582,282.041229 152.941071,268.812378 
	C147.388000,263.251587 141.219666,257.074707 135.095963,250.942520 
	C132.428223,253.841675 129.393555,257.139587 125.675209,260.850281 
M344.766663,261.276642 
	C342.199432,263.596680 339.632202,265.916748 338.112152,267.290436 
	C346.709442,282.236420 354.684265,296.100220 362.920898,310.419250 
	C370.248596,308.431763 378.667572,306.148285 387.261383,303.817383 
	C380.570648,283.429657 370.389801,265.797058 355.723785,249.647461 
	C352.063171,253.543228 348.665833,257.158783 344.766663,261.276642 
M372.170990,427.678955 
	C378.517212,417.563263 383.557281,406.863434 387.197327,395.089783 
	C378.319611,392.735596 369.900330,390.502960 362.952209,388.660461 
	C354.544830,403.207031 346.616730,416.924347 338.910339,430.258026 
	C344.441803,435.767059 350.618408,441.918610 357.205139,448.478638 
	C361.898651,442.013550 366.868134,435.168243 372.170990,427.678955 
M97.665062,356.954956 
	C98.506233,364.648529 99.347397,372.342072 100.266373,380.747314 
	C109.617561,378.253632 118.010262,376.015564 125.305664,374.070129 
	C125.305664,357.284302 125.305664,341.291351 125.305664,324.902313 
	C117.772629,322.912018 109.491478,320.724030 100.745964,318.413391 
	C98.072395,331.232788 96.987839,343.550232 97.665062,356.954956 
M204.798843,224.702042 
	C203.299118,219.332092 201.799377,213.962158 200.197998,208.228241 
	C179.783859,214.962662 162.079559,225.095062 146.976257,238.965042 
	C153.486099,245.476440 159.583557,251.575378 164.760818,256.753876 
	C178.621384,248.768723 192.469528,240.790726 206.783081,232.544586 
	C206.363815,230.917816 205.665436,228.208038 204.798843,224.702042 
M270.719238,228.257645 
	C272.790588,220.405014 274.861938,212.552399 277.029175,204.336304 
	C256.217957,199.916840 235.694489,199.863312 214.808853,204.397079 
	C217.158859,213.108490 219.431610,221.533478 221.769684,230.200638 
	C237.582977,227.302719 252.950821,227.047745 268.324585,229.905380 
	C268.936707,230.019165 269.697327,229.334244 270.719238,228.257645 
M220.635910,473.049896 
	C218.724121,480.179840 216.812317,487.309784 214.842743,494.655243 
	C235.866058,499.080322 256.244202,499.153961 277.049438,494.619202 
	C274.713318,485.937042 272.450043,477.525604 270.212250,469.208862 
	C269.258057,469.131165 268.750153,468.982452 268.285004,469.067566 
	C253.752396,471.726501 239.207764,471.943909 224.675629,469.160492 
	C221.904755,468.629730 221.071198,469.924072 220.635910,473.049896 
M287.108826,474.396210 
	C288.560760,479.657745 290.012726,484.919281 291.453064,490.138763 
	C304.942108,488.252472 336.361664,470.102997 344.775391,459.560181 
	C338.636444,453.441376 332.514496,447.339539 326.563263,441.407867 
	C320.103088,445.825317 313.764069,450.731934 306.885437,454.703979 
	C299.899902,458.737793 292.381958,461.849548 284.837341,465.490540 
	C285.538544,468.166626 286.248840,470.877441 287.108826,474.396210 
M135.606781,400.781464 
	C133.869095,396.682220 132.131409,392.582947 130.301224,388.265503 
	C121.684685,390.593781 113.263382,392.869293 103.847305,395.413605 
	C109.139824,406.695282 114.101433,417.271576 119.332657,428.422607 
	C126.308838,418.935791 131.647308,419.442505 136.619598,428.793152 
	C138.757843,432.814270 141.186096,436.681183 143.417862,440.507172 
	C147.350296,436.598907 150.721817,433.248138 153.512512,430.474609 
	C147.604813,420.729065 141.765640,411.096619 135.606781,400.781464 
z"/>
<path fill="#E69C6A" opacity="1.000000" stroke="none" 
	d="
M225.994476,453.945679 
	C205.778214,450.820160 188.234756,441.878052 173.682388,427.853760 
	C142.402908,397.709320 131.716827,360.920898 143.946091,319.328003 
	C156.261612,277.441681 185.512817,252.017502 228.426926,244.494095 
	C264.767914,238.123047 296.499237,249.238632 322.872498,276.147095 
	C325.882935,293.370697 325.613129,309.930878 324.040741,326.526031 
	C321.566833,352.635651 312.205170,376.180328 297.475281,397.691132 
	C296.251617,399.478119 294.112946,400.638519 292.546051,401.718933 
	C300.622131,382.267456 298.434601,364.298798 286.562042,347.420044 
	C287.529938,345.901306 288.425110,344.508881 289.308350,343.108917 
	C296.573914,331.592896 298.933533,319.020172 296.437012,305.760132 
	C291.702637,280.614197 270.626404,263.085114 245.374908,262.842743 
	C219.577576,262.595093 199.196915,279.049683 193.589874,304.651978 
	C191.337677,314.935699 197.149719,324.965942 207.244308,328.216461 
	C217.178635,331.415344 227.955414,326.455719 231.977081,316.769043 
	C232.739182,314.933472 233.168411,312.962463 233.864899,311.096344 
	C235.851135,305.774597 240.016174,302.950104 245.323563,303.245392 
	C250.546707,303.535980 254.781494,306.895874 256.310822,311.962616 
	C258.621063,319.616577 253.333633,326.349182 244.426498,327.095245 
	C233.905701,327.976410 226.004639,335.064087 224.938629,344.576904 
	C223.814056,354.612061 229.196106,363.552948 238.422073,366.510834 
	C241.080795,367.363190 243.973419,367.494507 246.763290,367.927490 
	C253.800552,369.019623 258.315674,375.972473 256.344879,382.703522 
	C254.626190,388.573334 249.459946,392.018311 243.422211,391.320618 
	C237.287445,390.611755 233.527084,386.094208 232.978470,378.773926 
	C232.131027,367.466705 223.007767,358.903656 212.237671,359.306763 
	C200.743927,359.736969 192.139679,369.102692 192.518387,380.771240 
	C193.474274,410.222290 217.161224,433.016785 246.604950,431.744568 
	C254.473297,431.404602 262.207794,427.966797 269.937561,426.285065 
	C259.273834,437.377594 245.954727,443.778198 232.528214,450.034760 
	C230.239746,451.101135 228.166916,452.630280 225.994476,453.945679 
z"/>
<path fill="#DA8C64" opacity="1.000000" stroke="none" 
	d="
M292.399414,402.090057 
	C294.112946,400.638519 296.251617,399.478119 297.475281,397.691132 
	C312.205170,376.180328 321.566833,352.635651 324.040741,326.526031 
	C325.613129,309.930878 325.882935,293.370697 322.999451,276.458313 
	C339.630585,292.852264 349.002106,313.278625 351.774414,336.533752 
	C358.308807,391.346313 323.469238,440.791443 269.760834,453.430878 
	C255.502060,456.786469 241.122192,457.112061 226.350815,454.133209 
	C228.166916,452.630280 230.239746,451.101135 232.528214,450.034760 
	C245.954727,443.778198 259.273834,437.377594 270.132874,426.008453 
	C280.208588,419.969269 287.307190,411.976776 292.399414,402.090057 
z"/>
<path fill="#FB7F86" opacity="1.000000" stroke="none" 
	d="
M201.326996,104.651443 
	C212.703522,123.375847 223.880203,141.796387 235.478729,160.912186 
	C223.647552,160.912186 212.717819,161.094604 201.806870,160.723999 
	C200.084961,160.665512 197.954681,158.417740 196.846222,156.657639 
	C182.046417,133.157028 167.381851,109.571159 152.718903,85.984566 
	C150.076736,81.734406 147.529236,77.653038 141.326218,79.632561 
	C140.591248,79.867104 138.929031,78.592415 138.332138,77.625153 
	C135.530701,73.085350 132.951401,68.408470 130.100372,63.445587 
	C135.009811,59.057774 133.728256,54.526810 130.561066,49.506569 
	C122.931831,37.413651 115.640312,25.107517 108.231140,12.876145 
	C107.400475,11.504839 106.689079,10.061284 105.700790,8.243719 
	C118.676392,8.243719 131.082901,8.243719 142.861938,8.243719 
	C162.376740,40.431839 181.751938,72.389702 201.326996,104.651443 
z"/>
<path fill="#AAD3FD" opacity="1.000000" stroke="none" 
	d="
M272.980835,160.738876 
	C267.322968,160.801300 261.658997,161.026550 256.011292,160.816299 
	C254.523285,160.760895 252.458496,159.741562 251.714783,158.521194 
	C221.435577,108.836395 191.277359,59.077862 161.110794,9.324436 
	C161.034958,9.199324 161.062775,9.011364 160.935547,8.032299 
	C167.021088,8.032299 173.037079,8.032299 179.579865,8.439281 
	C186.174164,18.774925 192.222519,28.715345 198.312759,38.630039 
	C216.417465,68.103874 234.564117,97.551979 252.640396,127.043228 
	C259.496368,138.228638 266.205017,149.504333 272.980835,160.738876 
z"/>
<path fill="#7EB1E8" opacity="1.000000" stroke="none" 
	d="
M365.979950,8.170721 
	C372.550262,8.170722 379.120605,8.170722 386.327759,8.170722 
	C385.243469,10.076850 384.483978,11.491452 383.652283,12.862241 
	C368.743469,37.435078 353.823822,62.001339 338.911530,86.572083 
	C334.747192,93.433655 334.842346,94.800308 339.899109,100.679893 
	C336.601257,106.004715 333.282166,111.363815 330.012390,116.643326 
	C322.520050,115.220787 321.131409,115.831367 317.246979,122.206352 
	C312.063599,130.713181 306.899475,139.231766 301.448608,148.203613 
	C295.369415,138.409668 289.445648,129.027740 283.774261,119.495689 
	C283.162903,118.468216 283.592010,116.334389 284.265900,115.116074 
	C286.836334,110.468796 289.704651,105.986290 292.761963,101.608116 
	C293.815125,103.408173 294.453094,105.107803 295.340576,106.665260 
	C299.312408,113.635368 304.235779,113.783615 308.408783,106.907578 
	C327.046204,76.197456 345.635590,45.458008 364.129059,14.661158 
	C365.247437,12.798783 365.385651,10.347813 365.979950,8.170721 
z"/>
<path fill="#94C3F7" opacity="1.000000" stroke="none" 
	d="
M273.443329,160.822784 
	C266.205017,149.504333 259.496368,138.228638 252.640396,127.043228 
	C234.564117,97.551979 216.417465,68.103874 198.312759,38.630039 
	C192.222519,28.715345 186.174164,18.774925 180.042175,8.509670 
	C186.127335,8.173077 192.276978,8.173077 197.766769,8.173077 
	C229.020737,59.026936 260.106354,109.606873 291.634399,160.906693 
	C285.096985,160.906693 279.501404,160.906693 273.443329,160.822784 
z"/>
<path fill="#FC636E" opacity="1.000000" stroke="none" 
	d="
M264.896393,56.855873 
	C272.580109,44.023308 280.284454,31.203020 287.933228,18.349661 
	C289.879181,15.079628 291.648621,11.704545 293.626434,8.148891 
	C305.737030,8.148891 318.180511,8.148891 331.600159,8.148891 
	C315.427765,34.763340 299.583099,60.838448 283.303589,86.779236 
	C276.877930,76.715233 270.887146,66.785553 264.896393,56.855873 
z"/>
<path fill="#94C3F7" opacity="1.000000" stroke="none" 
	d="
M365.518127,8.098969 
	C365.385651,10.347813 365.247437,12.798783 364.129059,14.661158 
	C345.635590,45.458008 327.046204,76.197456 308.408783,106.907578 
	C304.235779,113.783615 299.312408,113.635368 295.340576,106.665260 
	C294.453094,105.107803 293.815125,103.408173 293.035706,101.408859 
	C308.524445,75.349045 324.049683,49.660343 339.546570,23.954571 
	C342.617828,18.860056 345.580292,13.699966 348.911743,8.027216 
	C353.822296,8.027216 359.439301,8.027216 365.518127,8.098969 
z"/>
<path fill="#E59B6A" opacity="1.000000" stroke="none" 
	d="
M368.532166,374.628662 
	C367.317871,373.436523 365.705170,372.334656 365.760620,371.324341 
	C366.179596,363.694275 367.413696,356.083466 367.433167,348.464172 
	C367.452576,340.868073 366.356659,333.269135 365.714233,325.226807 
	C373.766968,323.058960 382.055023,320.827789 391.069000,318.401184 
	C391.724640,321.900757 392.587952,325.068878 392.862488,328.287231 
	C393.366333,334.193878 394.541199,339.378510 401.867798,339.778961 
	C401.867798,346.352234 401.867798,352.488342 401.867798,358.909546 
	C389.289368,361.079620 394.785309,372.795715 390.550659,380.362976 
	C383.526855,378.545197 376.216583,376.653290 368.532166,374.628662 
z"/>
<path fill="#F0AA7B" opacity="1.000000" stroke="none" 
	d="
M126.017044,260.643890 
	C129.393555,257.139587 132.428223,253.841675 135.095963,250.942520 
	C141.219666,257.074707 147.388000,263.251587 152.941071,268.812378 
	C145.274582,282.041229 137.322510,295.762878 128.891678,310.310669 
	C121.981400,308.474792 113.554665,306.236053 104.531311,303.838806 
	C106.464355,298.859802 108.186630,294.248932 110.039879,289.691315 
	C112.800674,282.901794 112.562851,281.603790 107.160294,276.526123 
	C110.397324,271.171814 113.650902,265.790131 116.637375,260.850281 
	C119.943542,260.850281 122.809380,260.850281 126.017044,260.643890 
z"/>
<path fill="#E59B6A" opacity="1.000000" stroke="none" 
	d="
M345.017578,261.025513 
	C348.665833,257.158783 352.063171,253.543228 355.723785,249.647461 
	C370.389801,265.797058 380.570648,283.429657 387.261383,303.817383 
	C378.667572,306.148285 370.248596,308.431763 362.920898,310.419250 
	C354.684265,296.100220 346.709442,282.236420 338.112152,267.290436 
	C339.632202,265.916748 342.199432,263.596680 345.017578,261.025513 
z"/>
<path fill="#E59B6A" opacity="1.000000" stroke="none" 
	d="
M372.004333,428.000977 
	C366.868134,435.168243 361.898651,442.013550 357.205139,448.478638 
	C350.618408,441.918610 344.441803,435.767059 338.910339,430.258026 
	C346.616730,416.924347 354.544830,403.207031 362.952209,388.660461 
	C369.900330,390.502960 378.319611,392.735596 387.197327,395.089783 
	C383.557281,406.863434 378.517212,417.563263 372.004333,428.000977 
z"/>
<path fill="#EFAA7B" opacity="1.000000" stroke="none" 
	d="
M97.644562,356.491577 
	C96.987839,343.550232 98.072395,331.232788 100.745964,318.413391 
	C109.491478,320.724030 117.772629,322.912018 125.305664,324.902313 
	C125.305664,341.291351 125.305664,357.284302 125.305664,374.070129 
	C118.010262,376.015564 109.617561,378.253632 100.266373,380.747314 
	C99.347397,372.342072 98.506233,364.648529 97.644562,356.491577 
z"/>
<path fill="#EFAA7B" opacity="1.000000" stroke="none" 
	d="
M204.882950,225.100159 
	C205.665436,228.208038 206.363815,230.917816 206.783081,232.544586 
	C192.469528,240.790726 178.621384,248.768723 164.760818,256.753876 
	C159.583557,251.575378 153.486099,245.476440 146.976257,238.965042 
	C162.079559,225.095062 179.783859,214.962662 200.197998,208.228241 
	C201.799377,213.962158 203.299118,219.332092 204.882950,225.100159 
z"/>
<path fill="#EFAA7A" opacity="1.000000" stroke="none" 
	d="
M270.553986,228.639557 
	C269.697327,229.334244 268.936707,230.019165 268.324585,229.905380 
	C252.950821,227.047745 237.582977,227.302719 221.769684,230.200638 
	C219.431610,221.533478 217.158859,213.108490 214.808853,204.397079 
	C235.694489,199.863312 256.217957,199.916840 277.029175,204.336304 
	C274.861938,212.552399 272.790588,220.405014 270.553986,228.639557 
z"/>
<path fill="#E59B6A" opacity="1.000000" stroke="none" 
	d="
M220.749741,472.656219 
	C221.071198,469.924072 221.904755,468.629730 224.675629,469.160492 
	C239.207764,471.943909 253.752396,471.726501 268.285004,469.067566 
	C268.750153,468.982452 269.258057,469.131165 270.212250,469.208862 
	C272.450043,477.525604 274.713318,485.937042 277.049438,494.619202 
	C256.244202,499.153961 235.866058,499.080322 214.842743,494.655243 
	C216.812317,487.309784 218.724121,480.179840 220.749741,472.656219 
z"/>
<path fill="#E59B6A" opacity="1.000000" stroke="none" 
	d="
M287.033997,473.992249 
	C286.248840,470.877441 285.538544,468.166626 284.837341,465.490540 
	C292.381958,461.849548 299.899902,458.737793 306.885437,454.703979 
	C313.764069,450.731934 320.103088,445.825317 326.563263,441.407867 
	C332.514496,447.339539 338.636444,453.441376 344.775391,459.560181 
	C336.361664,470.102997 304.942108,488.252472 291.453064,490.138763 
	C290.012726,484.919281 288.560760,479.657745 287.033997,473.992249 
z"/>
<path fill="#EEA97A" opacity="1.000000" stroke="none" 
	d="
M135.766632,401.122803 
	C141.765640,411.096619 147.604813,420.729065 153.512512,430.474609 
	C150.721817,433.248138 147.350296,436.598907 143.417862,440.507172 
	C141.186096,436.681183 138.757843,432.814270 136.619598,428.793152 
	C131.647308,419.442505 126.308838,418.935791 119.332657,428.422607 
	C114.101433,417.271576 109.139824,406.695282 103.847305,395.413605 
	C113.263382,392.869293 121.684685,390.593781 130.301224,388.265503 
	C132.131409,392.582947 133.869095,396.682220 135.766632,401.122803 
z"/>
<path fill="#FCF18D" opacity="1.000000" stroke="none" 
	d="
M391.170959,215.069214 
	C384.886108,209.775757 378.601288,204.482330 372.185699,199.078766 
	C384.348907,191.990250 394.200165,182.145828 401.367828,169.943069 
	C407.051392,176.515198 412.527161,182.847061 417.789307,189.566467 
	C409.285767,194.650681 402.688599,201.159058 397.061249,208.785553 
	C395.368408,211.079773 393.149109,212.985519 391.170959,215.069214 
z"/>
<path fill="#E69C6A" opacity="1.000000" stroke="none" 
	d="
M301.975708,212.190430 
	C318.197174,218.200119 332.209656,227.708496 344.928986,238.830338 
	C338.485962,245.220963 332.286102,251.370407 325.947479,257.657471 
	C323.404236,255.672699 320.405457,253.332458 317.217743,250.288757 
	C315.218140,243.782745 313.791168,237.823257 311.498566,232.217773 
	C308.704620,225.386444 305.182739,218.852814 301.975708,212.190430 
z"/>
<path fill="#E59B6A" opacity="1.000000" stroke="none" 
	d="
M194.990555,460.194397 
	C198.966812,461.763611 202.943085,463.332855 207.218918,465.020294 
	C204.903702,473.623444 202.676224,481.900574 200.111420,491.431152 
	C188.922333,486.279022 178.304535,481.389984 168.798233,477.012695 
	C170.763870,472.714661 172.340790,469.266541 174.358917,465.416077 
	C179.854919,464.179291 184.934555,463.466675 189.951065,462.444397 
	C191.710663,462.085846 193.315216,460.966400 194.990555,460.194397 
z"/>
<path fill="#EFAA7A" opacity="1.000000" stroke="none" 
	d="
M301.670959,211.996323 
	C305.182739,218.852814 308.704620,225.386444 311.498566,232.217773 
	C313.791168,237.823257 315.218140,243.782745 317.036163,250.040710 
	C306.642914,244.765381 296.242279,239.034698 285.013733,232.847809 
	C286.935852,225.587173 289.155182,217.203842 291.548859,208.161835 
	C295.014404,209.446915 298.190308,210.624557 301.670959,211.996323 
z"/>
<path fill="#FAE159" opacity="1.000000" stroke="none" 
	d="
M391.278015,215.370865 
	C393.149109,212.985519 395.368408,211.079773 397.061249,208.785553 
	C402.688599,201.159058 409.285767,194.650681 417.934875,189.868713 
	C422.727325,192.953781 427.160645,196.124130 432.136536,199.682495 
	C419.704773,207.166443 409.639099,216.906052 402.247772,229.643799 
	C398.398590,224.693100 394.891785,220.182800 391.278015,215.370865 
z"/>
<path fill="#F94654" opacity="1.000000" stroke="none" 
	d="
M264.617218,57.049206 
	C270.887146,66.785553 276.877930,76.715233 283.019409,86.979736 
	C280.126587,92.579308 277.083069,97.844040 273.749451,103.610580 
	C267.579468,93.708481 261.782593,84.588928 256.256042,75.308380 
	C255.547516,74.118553 255.698013,71.798943 256.389954,70.505074 
	C258.817505,65.965614 261.655731,61.645763 264.617218,57.049206 
z"/>
<path fill="#FBF08C" opacity="1.000000" stroke="none" 
	d="
M119.284523,478.029114 
	C114.957397,474.436951 110.630264,470.844788 106.838898,467.697357 
	C114.039330,460.512390 121.393974,453.173553 128.709518,445.873688 
	C131.681000,449.398010 135.168945,453.534851 138.732956,458.266876 
	C133.195129,464.597168 127.595886,470.346802 121.950104,476.050354 
	C121.180595,476.827759 120.178787,477.375183 119.284523,478.029114 
z"/>
<path fill="#EEA97A" opacity="1.000000" stroke="none" 
	d="
M194.691803,460.001709 
	C193.315216,460.966400 191.710663,462.085846 189.951065,462.444397 
	C184.934555,463.466675 179.854919,464.179291 174.369232,465.017670 
	C171.168686,462.796051 168.528976,460.378235 165.595428,458.395081 
	C162.186920,456.090851 158.520752,454.167694 154.743179,451.947906 
	C158.723984,448.404175 162.366074,445.161957 165.605972,442.277771 
	C174.710007,447.822083 184.551514,453.815552 194.691803,460.001709 
z"/>
<path fill="#F9E059" opacity="1.000000" stroke="none" 
	d="
M119.411789,478.317749 
	C120.178787,477.375183 121.180595,476.827759 121.950104,476.050354 
	C127.595886,470.346802 133.195129,464.597168 138.916626,458.559357 
	C142.757385,461.204956 146.490555,464.153259 149.651810,466.649902 
	C142.317505,473.988739 135.043594,481.267151 127.710037,488.605255 
	C125.353477,485.721527 122.446274,482.163940 119.411789,478.317749 
z"/>
<path fill="#F8ED8B" opacity="1.000000" stroke="none" 
	d="
M89.922836,211.140350 
	C87.145744,208.801346 84.368652,206.462341 82.598183,204.971161 
	C87.054214,200.403458 91.480492,195.866257 96.023773,191.209122 
	C97.322243,192.698822 99.469360,195.162155 101.614182,198.185532 
	C97.715546,202.877167 93.819191,207.008759 89.922836,211.140350 
z"/>
<path fill="#F8DF59" opacity="1.000000" stroke="none" 
	d="
M90.036369,211.459381 
	C93.819191,207.008759 97.715546,202.877167 101.791885,198.476074 
	C104.172714,199.952332 106.373573,201.698090 107.587776,202.661209 
	C103.170700,207.130692 98.692787,211.661728 94.045418,216.364227 
	C93.304909,215.492493 91.727409,213.635452 90.036369,211.459381 
z"/>
<path fill="#040302" opacity="1.000000" stroke="none" 
	d="
M292.546051,401.718933 
	C287.307190,411.976776 280.208588,419.969269 270.199066,425.674591 
	C262.207794,427.966797 254.473297,431.404602 246.604950,431.744568 
	C217.161224,433.016785 193.474274,410.222290 192.518387,380.771240 
	C192.139679,369.102692 200.743927,359.736969 212.237671,359.306763 
	C223.007767,358.903656 232.131027,367.466705 232.978470,378.773926 
	C233.527084,386.094208 237.287445,390.611755 243.422211,391.320618 
	C249.459946,392.018311 254.626190,388.573334 256.344879,382.703522 
	C258.315674,375.972473 253.800552,369.019623 246.763290,367.927490 
	C243.973419,367.494507 241.080795,367.363190 238.422073,366.510834 
	C229.196106,363.552948 223.814056,354.612061 224.938629,344.576904 
	C226.004639,335.064087 233.905701,327.976410 244.426498,327.095245 
	C253.333633,326.349182 258.621063,319.616577 256.310822,311.962616 
	C254.781494,306.895874 250.546707,303.535980 245.323563,303.245392 
	C240.016174,302.950104 235.851135,305.774597 233.864899,311.096344 
	C233.168411,312.962463 232.739182,314.933472 231.977081,316.769043 
	C227.955414,326.455719 217.178635,331.415344 207.244308,328.216461 
	C197.149719,324.965942 191.337677,314.935699 193.589874,304.651978 
	C199.196915,279.049683 219.577576,262.595093 245.374908,262.842743 
	C270.626404,263.085114 291.702637,280.614197 296.437012,305.760132 
	C298.933533,319.020172 296.573914,331.592896 289.308350,343.108917 
	C288.425110,344.508881 287.529938,345.901306 286.562042,347.420044 
	C298.434601,364.298798 300.622131,382.267456 292.546051,401.718933 
M271.577515,288.931213 
	C263.126282,280.581207 252.957962,277.109924 241.146240,277.937378 
	C225.405380,279.040039 210.571487,292.126373 208.435516,307.545288 
	C208.168076,309.475922 210.052658,312.648895 211.844864,313.692657 
	C214.344223,315.148193 217.004105,313.688538 218.179733,310.705719 
	C218.604187,309.628784 218.834030,308.476532 219.182922,307.368195 
	C223.465988,293.762573 235.508453,286.311707 249.307266,288.723907 
	C262.836670,291.089020 272.485077,302.866486 271.880981,316.278870 
	C271.261841,330.025360 260.592316,340.989136 246.686554,341.985565 
	C242.985184,342.250824 239.843384,343.093323 239.877869,347.474030 
	C239.912750,351.905334 243.256470,352.564270 246.837311,352.871246 
	C261.447723,354.123810 272.225220,365.916016 271.895294,380.182800 
	C271.561371,394.622345 259.698914,406.303650 245.163254,406.506683 
	C230.963226,406.705048 219.072159,395.692902 218.096451,381.169800 
	C217.836914,377.306915 216.647339,374.255951 212.508469,374.472076 
	C207.954697,374.709869 207.329575,378.249756 207.612106,382.167664 
	C208.771652,398.247101 220.323151,412.201965 235.695084,415.940552 
	C251.961975,419.896729 268.452209,413.065094 277.021545,398.819580 
	C285.453430,384.802582 283.808441,367.263489 272.886353,354.729340 
	C267.399384,348.432526 267.371216,346.350922 272.690491,340.260956 
	C285.902130,325.135162 285.650482,304.794769 271.577515,288.931213 
z"/>
<path fill="#EDA879" opacity="1.000000" stroke="none" 
	d="
M271.819702,289.191345 
	C285.650482,304.794769 285.902130,325.135162 272.690491,340.260956 
	C267.371216,346.350922 267.399384,348.432526 272.886353,354.729340 
	C283.808441,367.263489 285.453430,384.802582 277.021545,398.819580 
	C268.452209,413.065094 251.961975,419.896729 235.695084,415.940552 
	C220.323151,412.201965 208.771652,398.247101 207.612106,382.167664 
	C207.329575,378.249756 207.954697,374.709869 212.508469,374.472076 
	C216.647339,374.255951 217.836914,377.306915 218.096451,381.169800 
	C219.072159,395.692902 230.963226,406.705048 245.163254,406.506683 
	C259.698914,406.303650 271.561371,394.622345 271.895294,380.182800 
	C272.225220,365.916016 261.447723,354.123810 246.837311,352.871246 
	C243.256470,352.564270 239.912750,351.905334 239.877869,347.474030 
	C239.843384,343.093323 242.985184,342.250824 246.686554,341.985565 
	C260.592316,340.989136 271.261841,330.025360 271.880981,316.278870 
	C272.485077,302.866486 262.836670,291.089020 249.307266,288.723907 
	C235.508453,286.311707 223.465988,293.762573 219.182922,307.368195 
	C218.834030,308.476532 218.604187,309.628784 218.179733,310.705719 
	C217.004105,313.688538 214.344223,315.148193 211.844864,313.692657 
	C210.052658,312.648895 208.168076,309.475922 208.435516,307.545288 
	C210.571487,292.126373 225.405380,279.040039 241.146240,277.937378 
	C252.957962,277.109924 263.126282,280.581207 271.819702,289.191345 
z"/>
</svg>