<svg version="1.1" id="Layer_1" xmlns="http://www.w3.org/2000/svg" xmlns:xlink="http://www.w3.org/1999/xlink" x="0px" y="0px"
	 width="100%" viewBox="0 0 512 512" enable-background="new 0 0 512 512" xml:space="preserve">
<path fill="#000000" opacity="1.000000" stroke="none" 
	d="
M1.000000,189.000000 
	C1.000000,126.000000 1.000000,63.500000 1.000000,1.000000 
	C171.666672,1.000000 342.333344,1.000000 513.000000,1.000000 
	C513.000000,171.666672 513.000000,342.333344 513.000000,513.000000 
	C342.333344,513.000000 171.666672,513.000000 1.000000,513.000000 
	C1.000000,405.166656 1.000000,297.333344 1.000000,189.000000 
M163.360382,346.201782 
	C164.513611,346.349579 165.662842,346.553009 166.820709,346.636444 
	C176.444687,347.329773 186.086288,347.828552 195.691544,348.720154 
	C209.328384,349.985992 220.362930,357.270752 231.288651,364.687347 
	C253.341736,379.657318 260.385406,380.194366 282.216187,364.870850 
	C298.795197,353.233765 316.441315,347.780579 336.740295,347.276154 
	C357.545166,346.759216 366.482391,347.206146 375.638519,319.486603 
	C382.203827,299.610504 392.895721,283.292297 410.505768,271.660400 
	C414.658386,268.917480 418.241119,265.358124 421.697754,261.719147 
	C426.924927,256.216156 429.388397,249.867706 428.797455,242.196503 
	C428.164215,233.976028 425.709137,226.187973 423.403625,218.401779 
	C419.074585,203.781540 418.611969,189.310333 423.342499,174.712723 
	C424.827332,170.130859 425.680481,165.347382 427.079681,160.734100 
	C431.431641,146.385345 428.196381,134.481079 416.042450,125.296379 
	C413.651245,123.489342 411.468353,121.390388 408.998016,119.706856 
	C393.421265,109.091248 382.750519,94.929192 377.218048,76.830605 
	C375.716522,71.918762 373.507904,67.204193 371.394135,62.502346 
	C367.085785,52.918919 359.737946,47.597595 349.192139,46.147648 
	C343.868469,45.415691 338.566589,45.588577 333.269501,45.146381 
	C328.926422,44.783825 324.990234,43.752972 323.338898,39.020496 
	C322.470978,36.533203 320.142639,36.088791 318.094513,35.796944 
	C314.621521,35.302052 311.258057,34.515678 307.967163,33.356930 
	C306.099457,32.699295 304.445923,32.853752 302.845367,34.163963 
	C299.525208,36.881863 296.074463,36.472466 292.680481,34.283283 
	C287.921814,31.213860 283.027527,28.320934 278.486206,24.954613 
	C263.776917,14.051136 249.608398,14.756748 234.857468,25.353512 
	C223.140244,33.770916 211.229996,42.428745 196.081314,43.799107 
	C188.131042,44.518295 180.152130,45.128822 172.175507,45.304581 
	C156.994354,45.639076 145.879807,51.638523 140.725647,66.625038 
	C139.968231,68.827385 138.893799,70.930260 138.252457,73.161484 
	C132.454971,93.331184 120.947189,109.281906 103.520226,121.061340 
	C99.685829,123.653130 96.244080,126.905502 92.924034,130.162094 
	C85.923271,137.029053 83.866295,145.468597 85.907814,154.933594 
	C87.028862,160.131012 88.107025,165.365341 89.694817,170.429306 
	C94.697441,186.384186 96.024025,202.314514 90.589409,218.464890 
	C89.053978,223.027832 88.140839,227.796432 86.814209,232.434067 
	C82.879181,246.190033 85.870392,257.709381 97.463669,266.664124 
	C102.734528,270.735413 107.762375,275.119659 112.973518,279.270233 
	C122.312790,286.708710 129.114105,295.909271 133.419220,307.106354 
	C136.581787,315.331787 139.313980,323.740021 143.348618,331.626801 
	C147.420624,339.586609 153.591553,344.601929 163.360382,346.201782 
M405.163757,398.179413 
	C399.388306,378.035217 393.612885,357.891052 387.837433,337.746857 
	C387.250275,337.726257 386.663116,337.705627 386.075958,337.684998 
	C382.761963,342.171356 380.353058,347.433197 376.002777,351.024078 
	C373.165741,353.365784 372.709198,355.837708 373.710693,359.334259 
	C382.864258,391.292603 391.839478,423.301971 400.920990,455.281036 
	C404.927612,469.389893 402.499664,465.434387 416.282715,467.512329 
	C423.678192,468.627228 424.605164,467.101532 422.582825,459.928894 
	C416.852448,439.604950 411.144287,419.274719 405.163757,398.179413 
M366.142029,468.571564 
	C370.497253,466.348511 374.154419,462.707520 379.781799,463.292419 
	C385.262878,463.862152 386.248199,462.347900 384.735352,456.893463 
	C381.401947,444.875122 378.017334,432.870880 374.623444,420.869415 
	C369.691132,403.427856 364.641296,386.018768 359.843811,368.540314 
	C358.525238,363.736481 356.825867,360.664551 350.950928,362.202820 
	C347.457092,363.117645 343.699188,363.158264 340.048523,363.303589 
	C335.980103,363.465546 334.771484,365.201477 335.889221,369.104004 
	C345.042816,401.063141 354.131897,433.040802 363.233643,465.014801 
	C363.642670,466.451782 363.869537,467.982788 366.142029,468.571564 
M138.240540,463.383484 
	C143.314316,463.087738 146.338974,467.593475 150.687714,468.979858 
	C152.016006,467.956940 152.320953,466.664825 152.679520,465.390259 
	C161.736984,433.193817 170.775177,400.991882 179.893875,368.812805 
	C180.918915,365.195526 179.320343,363.785400 176.113693,363.450470 
	C171.809753,363.000824 167.465179,362.871765 163.187668,362.258820 
	C159.574646,361.741089 157.864212,362.776428 156.822739,366.516907 
	C148.432632,396.649689 139.801071,426.715179 131.303574,456.818268 
	C130.743378,458.802795 129.390686,460.794281 130.599396,463.086975 
	C132.847672,464.198486 135.171173,463.390808 138.240540,463.383484 
M349.081390,482.529266 
	C351.983887,479.543762 349.736298,476.524811 348.941010,473.676971 
	C339.869293,441.191711 330.650330,408.747620 321.563934,376.266449 
	C318.015259,363.580872 317.574371,363.434601 305.656952,369.194275 
	C301.195526,371.350464 300.230804,373.774261 301.658936,378.573700 
	C307.532471,398.312744 312.967712,418.182098 318.577637,437.999725 
	C323.235840,454.455383 327.888519,470.912689 332.595093,487.354553 
	C334.220947,493.034393 335.285400,493.384735 339.971191,489.853546 
	C342.892456,487.652130 345.692688,485.290070 349.081390,482.529266 
M114.094040,458.735626 
	C123.262527,426.439880 132.438034,394.146088 141.582886,361.843658 
	C142.160690,359.802612 143.704544,357.297546 142.130844,355.632385 
	C137.414444,350.642029 133.106461,345.290314 127.824432,338.590851 
	C115.454590,382.397644 103.512375,424.690063 91.490105,467.265961 
	C97.112518,468.251129 101.194618,466.981323 105.281319,466.980499 
	C110.688385,466.979401 113.261208,464.584930 114.094040,458.735626 
M205.298889,409.993805 
	C207.773285,401.197144 210.226547,392.394501 212.727478,383.605377 
	C215.755737,372.963135 215.267105,371.923553 204.968887,367.658478 
	C204.355072,367.404297 203.686737,367.271820 203.091797,366.983582 
	C199.395142,365.192596 197.352402,366.190308 196.253143,370.297333 
	C193.245972,381.532684 189.962250,392.694000 186.788147,403.884674 
	C180.032303,427.703278 173.249741,451.514374 166.566818,475.353394 
	C165.973572,477.469604 164.196915,480.044098 166.359406,481.930695 
	C170.923660,485.912659 175.407852,490.101318 181.710312,493.309082 
	C189.604202,465.341492 197.307816,438.048096 205.298889,409.993805 
z"/>
<path fill="#000000" opacity="1.000000" stroke="none" 
	d="
M313.326843,61.500427 
	C363.044312,84.274094 392.490326,122.449928 401.021088,175.950256 
	C413.205627,252.365005 358.111176,327.646149 281.493164,340.421967 
	C253.220444,345.136353 225.797470,342.476898 199.294342,331.344849 
	C198.067993,330.829712 196.824341,330.313782 195.689209,329.631134 
	C191.943542,327.378601 190.507065,323.101685 192.120773,319.257721 
	C193.641785,315.634613 198.004318,313.776093 202.244476,315.449799 
	C212.640884,319.553467 223.161911,323.049194 234.231323,324.979767 
	C286.117523,334.029327 339.727112,309.617188 367.076630,264.594604 
	C380.411743,242.642441 387.208710,218.856476 386.516968,193.329895 
	C384.708649,126.596664 335.811523,78.239189 281.033813,68.306732 
	C215.630280,56.447563 154.936951,91.557465 132.588058,153.765518 
	C114.965630,202.817459 130.507294,260.884796 170.286057,294.629578 
	C171.175064,295.383728 172.055435,296.151398 172.897446,296.957062 
	C177.204269,301.077942 177.872086,305.756134 174.669678,309.234833 
	C171.535522,312.639374 167.062210,312.647552 162.630051,309.029724 
	C152.370316,300.654968 143.473541,290.993011 135.914993,280.121124 
	C116.162193,251.709534 107.345016,220.047531 109.843849,185.703400 
	C114.170792,126.233841 153.005920,77.781563 205.824692,58.688324 
	C241.828018,45.673634 277.597717,46.750694 313.326843,61.500427 
z"/>
<path fill="#000000" opacity="1.000000" stroke="none" 
	d="
M168.390900,238.517487 
	C168.139130,224.230972 167.717834,210.409790 168.582397,196.599945 
	C169.409531,183.388336 180.181625,173.016327 193.471771,172.690002 
	C198.963120,172.555191 204.475952,172.480209 209.952515,172.813461 
	C214.411148,173.084763 215.896896,171.211166 215.865143,167.012314 
	C215.770676,154.522812 215.698959,142.029465 215.904144,129.542313 
	C216.178787,112.828522 225.156693,101.529167 240.477051,98.159683 
	C256.640045,94.604858 273.794495,107.131973 275.421234,123.561592 
	C276.227966,131.709457 275.854034,139.866409 275.971863,148.019913 
	C276.079010,155.433578 276.291046,155.584946 283.520325,155.726547 
	C290.834778,155.869812 298.173981,155.150818 305.461792,156.332916 
	C325.027191,159.506516 338.492279,172.422852 339.836395,192.172012 
	C341.053101,210.048874 341.640411,228.147125 339.322327,246.023010 
	C336.934692,264.435242 319.750580,279.183075 301.192352,279.345825 
	C281.042786,279.522522 260.890503,279.365387 240.739532,279.413269 
	C234.242859,279.428680 228.673889,277.140869 223.967636,272.818726 
	C221.963303,270.977966 220.249390,270.742554 217.723846,271.867401 
	C207.876328,276.253418 197.527985,276.053284 187.376877,273.641876 
	C176.174515,270.980713 168.845139,261.005280 168.563141,249.475143 
	C168.477661,245.979660 168.464020,242.482407 168.390900,238.517487 
M294.478516,171.828568 
	C288.816528,171.790222 283.146759,171.927124 277.494141,171.676773 
	C265.999481,171.167725 259.930176,164.796875 259.789490,153.220001 
	C259.688293,144.893921 259.717102,136.565842 259.744080,128.238831 
	C259.755859,124.599503 258.816498,121.337929 256.384460,118.572060 
	C252.556503,114.218620 246.765167,112.655342 241.431427,114.533455 
	C235.579575,116.594002 232.242767,121.326767 232.229141,128.496185 
	C232.149933,170.131714 232.140289,211.767456 232.199310,253.403015 
	C232.209549,260.623352 235.402405,263.610168 242.713608,263.628632 
	C261.366364,263.675751 280.019592,263.698608 298.672150,263.619507 
	C313.314667,263.557404 324.010193,253.220993 324.303314,238.588547 
	C324.583405,224.606857 324.661865,210.613754 324.440155,196.631821 
	C324.273590,186.124817 319.672607,178.033188 309.730316,173.651352 
	C305.199738,171.654602 300.298889,171.845001 294.478516,171.828568 
M184.270020,208.523071 
	C184.285751,221.678848 184.226074,234.835327 184.348633,247.990112 
	C184.411163,254.700226 188.203400,258.440308 194.897995,258.672485 
	C198.390732,258.793671 201.894287,258.785278 205.387482,258.669739 
	C211.566498,258.465332 215.659348,254.923813 215.738831,248.820175 
	C215.957764,232.005203 215.964279,215.183121 215.719955,198.368713 
	C215.630066,192.181488 211.104889,188.660187 204.226181,188.401505 
	C190.926376,187.901352 185.725281,190.167618 184.469421,197.054611 
	C184.291656,198.029495 184.295654,199.044388 184.285080,200.041504 
	C184.258560,202.539169 184.271973,205.037231 184.270020,208.523071 
z"/>
</svg>