<svg version="1.1" id="Layer_1" xmlns="http://www.w3.org/2000/svg" xmlns:xlink="http://www.w3.org/1999/xlink" x="0px" y="0px"
	 width="100%" viewBox="0 0 512 512" enable-background="new 0 0 512 512" xml:space="preserve">
<path fill="#000000" opacity="1.000000" stroke="none" 
	d="
M513.000000,193.000000 
	C513.000000,299.973999 513.000000,406.447998 513.000000,512.921997 
	C512.859375,512.947998 512.718750,512.996765 512.578125,512.996765 
	C342.119720,513.000000 171.661346,513.000000 1.101477,513.000000 
	C1.101477,342.442688 1.101477,171.885315 1.101477,1.163961 
	C171.666534,1.163961 342.333252,1.163961 513.000000,1.163961 
	C513.000000,64.864655 513.000000,128.682327 513.000000,193.000000 
M224.776672,129.762070 
	C214.042923,132.594772 203.309158,135.427475 192.166367,138.368118 
	C193.188217,142.145340 194.112808,145.563034 194.999985,148.842377 
	C207.712906,148.842377 219.852554,148.842377 232.921173,148.982681 
	C240.925003,148.982681 248.928848,148.982681 257.431305,148.982681 
	C254.953003,139.818451 252.691025,131.454117 250.325180,122.705688 
	C241.698792,125.142807 233.626846,127.423286 224.776672,129.762070 
M159.073074,457.950134 
	C154.427597,457.942322 149.780243,458.011871 145.137344,457.898407 
	C142.221283,457.827179 140.903458,458.940582 140.927094,461.969940 
	C141.009964,472.587738 141.001358,483.206818 140.931976,493.824799 
	C140.912766,496.764679 142.105499,498.091583 145.073715,498.016571 
	C150.045456,497.890961 155.020309,497.888550 160.921631,497.978271 
	C166.230194,497.984253 171.539734,497.931519 176.846939,498.019501 
	C179.767700,498.067902 181.076492,496.860016 181.058502,493.881744 
	C180.994324,483.264893 180.986664,472.647064 181.064178,462.030365 
	C181.085907,459.053345 179.863937,457.822449 176.902069,457.901581 
	C171.268936,458.052185 165.631760,458.051636 159.073074,457.950134 
M359.075623,457.950012 
	C354.431244,457.942230 349.784943,458.011688 345.143158,457.898468 
	C342.224884,457.827332 340.910797,458.952087 340.933624,461.973846 
	C341.013855,472.589203 341.005554,483.205780 340.938293,493.821350 
	C340.919708,496.754669 342.107483,498.091614 345.078369,498.016571 
	C350.048981,497.891022 355.022675,497.888824 360.922699,497.978699 
	C366.232574,497.984528 371.543365,497.933411 376.851959,498.018860 
	C379.763214,498.065674 381.088013,496.879791 381.068878,493.887970 
	C381.001007,483.268555 380.995148,472.648102 381.073303,462.028778 
	C381.095215,459.048950 379.872162,457.821869 376.909698,457.901337 
	C371.275208,458.052460 365.636597,458.050995 359.075623,457.950012 
M142.833725,321.680908 
	C149.799332,322.598877 156.764938,323.516846 164.034424,324.474854 
	C164.034424,320.338867 164.342453,316.000458 163.895874,311.741119 
	C163.692688,309.803345 162.460938,307.348755 160.904785,306.276001 
	C148.113235,297.458099 136.433502,287.423584 126.119324,275.798462 
	C125.439827,275.032562 124.538651,274.463379 123.386444,273.509552 
	C123.386444,280.774292 123.386444,287.389648 123.242203,294.934570 
	C123.242203,304.923035 123.242203,314.911499 123.242203,324.780884 
	C129.968277,323.603149 135.949203,322.555847 142.833725,321.680908 
M383.218842,186.988342 
	C378.006073,186.110718 376.137451,182.703217 376.145782,177.778717 
	C376.169067,164.018066 376.180115,150.257263 376.135345,136.496704 
	C376.115784,130.477371 374.504242,128.901810 368.414246,128.893112 
	C362.616455,128.884827 356.818481,129.006134 350.090973,128.910446 
	C344.181793,128.910446 338.272614,128.910446 332.964050,128.910446 
	C332.964050,160.431915 332.964050,191.276947 332.964050,222.243210 
	C339.704651,221.126709 345.860474,220.107071 352.861755,219.290222 
	C360.497375,220.096710 368.133026,220.903214 376.153015,221.750305 
	C376.153015,219.259705 376.118927,216.793961 376.159729,214.329468 
	C376.261353,208.193008 377.966248,206.118835 384.683014,204.958557 
	C389.388580,205.932129 391.245667,208.988968 391.160767,213.602219 
	C391.081085,217.932007 391.004791,222.271744 391.226868,226.591690 
	C391.301270,228.038803 391.913605,229.883347 392.945892,230.778076 
	C396.319031,233.701843 399.999023,236.271622 403.806824,239.164261 
	C416.750549,217.061356 423.762604,193.204910 425.650391,167.802078 
	C425.738434,166.617279 423.821747,164.208527 422.791443,164.181656 
	C412.368317,163.909821 401.935333,164.015884 391.145081,164.015884 
	C391.145081,168.918869 390.995087,173.226776 391.183228,177.519852 
	C391.415680,182.823227 389.300507,186.146667 383.218842,186.988342 
M148.805862,412.029388 
	C150.593613,411.679382 152.415665,411.451447 154.163834,410.960480 
	C171.495438,406.092926 183.317108,388.773071 181.391205,371.136444 
	C179.382477,352.741394 165.098740,338.191467 147.088013,336.889038 
	C144.766647,336.878510 142.435226,336.721619 140.125488,336.880280 
	C119.217110,338.316650 103.832809,357.455139 106.028938,379.233704 
	C108.073265,399.506836 127.679192,414.779755 148.805862,412.029388 
M255.944839,470.314270 
	C256.829468,465.657745 259.797150,463.744537 264.368347,463.744720 
	C269.632721,463.744934 274.897064,463.614319 280.928192,463.737122 
	C288.184326,463.737122 295.440460,463.737122 303.322845,463.737122 
	C284.839569,422.790497 280.751251,379.577759 277.059784,336.325562 
	C266.160706,336.325562 255.611069,336.325562 244.793411,336.325562 
	C244.305222,343.084900 243.838074,349.552734 243.134567,356.872894 
	C239.455978,393.288971 234.301804,429.374908 218.622665,463.757660 
	C222.414993,463.757660 225.524353,463.883484 228.619827,463.729706 
	C233.937546,463.465485 237.202286,465.702820 237.993073,471.764771 
	C237.060699,477.005188 233.577881,478.778351 228.658661,478.760681 
	C217.902481,478.722107 207.146072,478.748749 196.204254,478.748749 
	C196.204254,485.427002 196.204254,491.505280 196.204254,497.649658 
	C239.570374,497.649658 282.736115,497.649658 325.671417,497.649658 
	C325.671417,491.198944 325.671417,485.101715 325.671417,478.750122 
	C323.531952,478.750122 321.716644,478.750122 319.901306,478.750092 
	C301.752197,478.749939 283.603027,478.778046 265.454010,478.734283 
	C259.155121,478.719086 257.193298,477.081665 255.944839,470.314270 
M355.872711,344.104095 
	C385.718658,343.333405 409.192169,319.454285 409.475128,289.575378 
	C409.760712,259.427795 384.216156,233.700607 354.143463,234.396317 
	C323.043945,235.932129 300.442566,258.294678 299.720673,288.243927 
	C298.975189,319.172821 324.888824,345.291229 355.872711,344.104095 
M227.152161,22.837229 
	C198.420395,30.496407 169.716003,38.261459 140.929825,45.710312 
	C136.144363,46.948620 135.266617,48.843811 136.528854,53.406322 
	C142.287354,74.221230 147.735153,95.121964 153.324722,115.983780 
	C156.272675,126.986366 159.282379,137.972412 162.175812,148.640015 
	C168.183121,148.640015 173.555664,148.640015 179.223877,148.640015 
	C178.767441,146.788376 178.428833,145.348373 178.057068,143.916992 
	C174.876373,131.670624 177.698395,126.806305 189.985291,123.466377 
	C210.012466,118.022446 230.045425,112.599808 250.854263,107.260536 
	C259.005463,107.805389 262.615387,110.649818 264.761993,118.367615 
	C265.965149,122.693336 267.003021,127.064789 268.180756,131.397873 
	C269.776428,137.268631 271.434814,143.122345 272.974701,148.654236 
	C277.070953,148.654236 280.491791,148.654236 284.201294,148.654236 
	C283.868652,138.102203 285.229523,127.992126 282.047089,117.772926 
	C276.957520,101.429649 272.973114,84.741806 268.537720,68.195282 
	C264.317871,52.452766 260.131653,36.701218 255.898346,20.962332 
	C255.161407,18.222574 254.680664,15.142133 250.438416,16.395592 
	C242.966232,18.603407 235.459457,20.694113 227.152161,22.837229 
M264.789337,321.440247 
	C273.466125,320.734650 282.142914,320.029053 291.276001,319.286346 
	C289.853333,315.852051 288.840668,313.407501 287.826904,310.190033 
	C278.950012,280.306854 289.307281,249.787918 314.580353,232.098022 
	C317.311859,230.186096 317.999847,228.219940 317.980957,225.157349 
	C317.866028,206.492111 317.928864,187.825836 317.914368,169.159897 
	C317.913147,167.549789 317.781494,165.939774 317.695892,163.999985 
	C305.545380,163.999985 293.742279,163.999969 281.939209,163.999985 
	C221.941559,164.000000 161.943909,163.996765 101.946266,164.005356 
	C96.352219,164.006149 95.769997,164.606537 96.455574,170.057816 
	C97.244743,176.332718 97.853081,182.658981 99.158272,188.832199 
	C100.426865,194.832291 101.116112,200.206116 94.024605,202.599335 
	C95.473404,207.524887 96.584488,211.906876 98.122414,216.133560 
	C98.541069,217.284119 100.340584,218.830765 101.343956,218.720306 
	C106.756721,218.124451 109.059914,221.245163 111.057129,225.521149 
	C127.040054,259.740387 151.771835,285.694946 185.289673,303.090698 
	C208.710846,315.246277 233.627258,321.660614 260.505646,321.554810 
	C260.505646,321.554810 260.887573,321.330750 261.639557,321.541809 
	C262.405304,321.424866 263.171021,321.307922 264.789337,321.440247 
M317.430298,132.497650 
	C314.644257,128.860886 305.313049,127.224815 301.818604,129.957565 
	C300.736450,130.803864 299.595032,132.323303 299.529510,133.588852 
	C299.268738,138.625336 299.422119,143.683258 299.422119,148.585098 
	C305.930939,148.585098 311.795227,148.585098 317.728821,148.585098 
	C317.728821,143.209763 317.728821,138.258667 317.430298,132.497650 
M425.431030,104.025368 
	C424.540649,104.860062 423.650238,105.694748 423.766754,105.585526 
	C428.291992,110.246948 432.555054,114.638290 436.089935,118.279526 
	C439.847229,114.507362 444.263031,110.074097 447.827148,106.495880 
	C444.250763,102.896660 439.840668,98.458420 436.278778,94.873802 
	C433.343506,97.360153 429.670746,100.471191 425.431030,104.025368 
M69.461235,104.956169 
	C72.275856,107.903732 75.090485,110.851295 77.063202,112.917191 
	C81.681145,108.435875 86.136642,104.112206 89.398399,100.946968 
	C85.496506,96.885590 81.187859,92.400833 77.830338,88.906075 
	C74.014832,92.637703 69.625519,96.930511 65.203827,101.254997 
	C65.923386,101.869911 67.430511,103.157837 69.461235,104.956169 
M363.598663,47.911598 
	C362.251373,46.341782 360.904083,44.771969 360.412598,44.199295 
	C355.831390,48.746147 351.424835,53.119652 348.014343,56.504589 
	C351.671356,60.296982 355.995483,64.781189 359.407501,68.319504 
	C363.192505,64.583847 367.651611,60.182854 372.007812,55.883438 
	C369.868774,53.874725 366.971527,51.153992 363.598663,47.911598 
z"/>
<path fill="#F8C52D" opacity="1.000000" stroke="none" 
	d="
M260.141998,321.302216 
	C233.627258,321.660614 208.710846,315.246277 185.289673,303.090698 
	C151.771835,285.694946 127.040054,259.740387 111.057129,225.521149 
	C109.059914,221.245163 106.756721,218.124451 101.343956,218.720306 
	C100.340584,218.830765 98.541069,217.284119 98.122414,216.133560 
	C96.584488,211.906876 95.473404,207.524887 94.024605,202.599335 
	C101.116112,200.206116 100.426865,194.832291 99.158272,188.832199 
	C97.853081,182.658981 97.244743,176.332718 96.455574,170.057816 
	C95.769997,164.606537 96.352219,164.006149 101.946266,164.005356 
	C161.943909,163.996765 221.941559,164.000000 281.939209,163.999985 
	C293.742279,163.999969 305.545380,163.999985 317.695892,163.999985 
	C317.781494,165.939774 317.913147,167.549789 317.914368,169.159897 
	C317.928864,187.825836 317.866028,206.492111 317.980957,225.157349 
	C317.999847,228.219940 317.311859,230.186096 314.580353,232.098022 
	C289.307281,249.787918 278.950012,280.306854 287.478333,310.651062 
	C279.398743,314.471710 271.667755,317.831329 263.936768,321.190979 
	C263.171021,321.307922 262.405304,321.424866 261.183533,321.366272 
	C260.510559,321.105652 260.315399,321.142792 260.141998,321.302216 
z"/>
<path fill="#27CEB1" opacity="1.000000" stroke="none" 
	d="
M250.075943,107.168182 
	C230.045425,112.599808 210.012466,118.022446 189.985291,123.466377 
	C177.698395,126.806305 174.876373,131.670624 178.057068,143.916992 
	C178.428833,145.348373 178.767441,146.788376 179.223877,148.640015 
	C173.555664,148.640015 168.183121,148.640015 162.175812,148.640015 
	C159.282379,137.972412 156.272675,126.986366 153.324722,115.983780 
	C147.735153,95.121964 142.287354,74.221230 136.528854,53.406322 
	C135.266617,48.843811 136.144363,46.948620 140.929825,45.710312 
	C169.716003,38.261459 198.420395,30.496407 227.625519,23.229416 
	C229.111267,28.510946 230.123642,33.400291 230.890030,38.519279 
	C225.595093,41.456604 225.819565,45.706860 227.290375,50.297878 
	C228.821213,55.076298 232.394180,56.431549 237.022736,56.425964 
	C237.416153,59.332462 237.784836,61.827484 237.903229,64.548492 
	C234.345490,66.519402 232.978180,69.241478 233.398254,72.956329 
	C234.236908,80.372879 232.871964,82.708015 225.876389,86.050636 
	C221.642975,88.073456 219.861359,91.867752 221.310501,95.774651 
	C222.729706,99.600914 226.964920,101.987137 231.078003,99.857727 
	C236.067596,97.274536 240.352844,93.330856 245.195587,90.235268 
	C246.990875,96.052544 248.533401,101.610367 250.075943,107.168182 
M206.007950,87.741035 
	C212.625671,87.868774 216.248230,84.762543 214.963440,79.010429 
	C212.755203,69.124023 210.089294,59.315983 207.078430,49.642204 
	C205.432312,44.353291 199.425980,43.007015 195.307159,46.696415 
	C192.600098,49.121220 190.106781,51.908226 188.039780,54.894398 
	C185.097778,59.144650 187.327805,65.245209 192.305542,65.838173 
	C195.976486,66.275475 196.949570,67.976036 197.572510,70.987419 
	C198.279022,74.402710 198.907486,77.926735 200.306976,81.075905 
	C201.369965,83.467850 203.586288,85.347244 206.007950,87.741035 
M183.352341,90.037453 
	C182.986725,89.290443 182.595490,88.554756 182.259613,87.794609 
	C179.968597,82.609703 176.460770,80.658234 172.188614,82.206818 
	C167.922974,83.753044 166.412598,88.229202 168.365784,93.536156 
	C172.572678,104.966652 185.016174,111.778389 196.886002,109.148476 
	C201.807373,108.058083 204.564148,104.584229 203.803619,100.431488 
	C203.017593,96.139542 199.297058,93.577644 194.445221,94.439377 
	C190.050339,95.219955 186.593994,94.026718 183.352341,90.037453 
M169.157974,55.902557 
	C166.684311,56.916382 163.660522,57.357742 161.867981,59.080341 
	C159.282333,61.565125 160.458435,68.627945 163.366989,71.454926 
	C166.066910,74.079117 169.272308,74.622231 172.492844,72.620468 
	C176.614731,70.058464 177.050049,66.059883 175.166122,62.120941 
	C174.051849,59.791237 171.730835,58.038696 169.157974,55.902557 
z"/>
<path fill="#FADA44" opacity="1.000000" stroke="none" 
	d="
M354.983002,343.942993 
	C324.888824,345.291229 298.975189,319.172821 299.720673,288.243927 
	C300.442566,258.294678 323.043945,235.932129 354.686523,234.791138 
	C355.897369,235.661194 356.562836,236.139664 357.233185,236.611206 
	C368.962708,244.861542 378.672699,254.653687 381.913086,269.490479 
	C377.353333,272.364807 377.490814,276.582245 378.139465,280.676270 
	C378.810028,284.908356 382.226593,286.281250 386.010010,287.361206 
	C386.003326,290.862335 385.995514,293.904755 385.627106,297.034088 
	C381.220581,297.711273 378.417053,299.734619 378.001373,304.018616 
	C377.453674,309.663818 374.552979,312.305664 368.893616,313.356445 
	C366.383026,313.822601 363.353851,316.630646 362.466797,319.069244 
	C361.766541,320.994507 363.370453,324.594910 365.090210,326.307373 
	C366.553040,327.764099 369.641693,327.588165 371.943115,328.463531 
	C370.859528,330.084900 370.023560,331.588776 368.795990,332.631866 
	C364.261749,336.484711 359.598053,340.185211 354.983002,343.942993 
M351.480530,271.547699 
	C348.683441,273.340271 345.713776,274.916290 343.129211,276.975616 
	C339.142578,280.152008 338.923523,286.210632 343.203583,288.426483 
	C346.992584,290.388092 347.299713,292.852325 347.060272,296.275635 
	C346.886444,298.760925 346.967896,301.270020 347.041199,303.765381 
	C347.192230,308.907166 349.944611,312.028076 354.332764,312.138519 
	C358.967163,312.255127 361.950287,309.077637 362.004456,303.692688 
	C362.084900,295.701508 362.083344,287.708344 362.008057,279.717072 
	C361.946320,273.159912 359.019348,270.685791 351.480530,271.547699 
M328.487274,298.971191 
	C321.771027,295.482788 316.035797,298.606293 316.179718,305.674072 
	C316.406372,316.804810 326.024933,327.020935 337.175385,327.974060 
	C342.614685,328.439026 346.297882,326.129272 346.978912,321.826233 
	C347.710541,317.203125 344.856567,313.873047 339.146393,313.059326 
	C334.553680,312.404877 332.203217,309.753510 331.191193,305.407898 
	C330.719116,303.380951 329.779510,301.462860 328.487274,298.971191 
M360.657837,246.316345 
	C352.130493,244.589325 344.411865,246.035324 338.125610,252.407135 
	C335.150238,255.422974 334.907898,259.011383 337.552917,262.314636 
	C340.209381,265.632172 343.994263,266.374512 347.304230,263.818146 
	C352.282806,259.973053 356.596619,259.691345 361.627350,263.722565 
	C364.887238,266.334747 368.682068,265.722717 371.413910,262.460144 
	C374.119965,259.228363 374.176514,255.406174 371.023315,252.621658 
	C368.236877,250.160980 364.664246,248.590530 360.657837,246.316345 
M317.466797,272.143616 
	C317.126434,275.043671 316.070984,278.080597 316.594482,280.815277 
	C317.684906,286.511414 324.497070,288.462128 328.710724,284.666962 
	C331.838745,281.849609 332.178497,274.625031 329.336456,271.361389 
	C326.395996,267.984741 322.292023,268.042572 317.466797,272.143616 
z"/>
<path fill="#FAA52F" opacity="1.000000" stroke="none" 
	d="
M280.161438,463.540527 
	C274.897064,463.614319 269.632721,463.744934 264.368347,463.744720 
	C259.797150,463.744537 256.829468,465.657745 255.393280,470.681824 
	C249.280075,471.046997 243.718430,471.044617 238.156799,471.042267 
	C237.202286,465.702820 233.937546,463.465485 228.619827,463.729706 
	C225.524353,463.883484 222.414993,463.757660 218.622665,463.757660 
	C234.301804,429.374908 239.455978,393.288971 243.689240,356.447815 
	C246.907547,356.030487 249.669540,355.617432 252.196899,356.208160 
	C253.650681,356.547974 255.620956,358.379974 255.827209,359.767853 
	C257.435059,370.587036 258.396027,381.504364 260.080933,392.309662 
	C263.185059,412.216003 267.529785,431.838715 275.044220,450.630585 
	C276.762939,454.928711 278.456390,459.236938 280.161438,463.540527 
z"/>
<path fill="#F68724" opacity="1.000000" stroke="none" 
	d="
M280.544800,463.638824 
	C278.456390,459.236938 276.762939,454.928711 275.044220,450.630585 
	C267.529785,431.838715 263.185059,412.216003 260.080933,392.309662 
	C258.396027,381.504364 257.435059,370.587036 255.827209,359.767853 
	C255.620956,358.379974 253.650681,356.547974 252.196899,356.208160 
	C249.669540,355.617432 246.907547,356.030487 243.807434,356.021637 
	C243.838074,349.552734 244.305222,343.084900 244.793411,336.325562 
	C255.611069,336.325562 266.160706,336.325562 277.059784,336.325562 
	C280.751251,379.577759 284.839569,422.790497 303.322845,463.737122 
	C295.440460,463.737122 288.184326,463.737122 280.544800,463.638824 
z"/>
<path fill="#20B49D" opacity="1.000000" stroke="none" 
	d="
M238.153534,64.322510 
	C237.784836,61.827484 237.416153,59.332462 237.282532,56.195194 
	C242.307449,51.988903 243.100052,49.254826 241.009125,43.573196 
	C239.282150,38.880554 235.836090,37.417778 231.136032,38.289635 
	C230.123642,33.400291 229.111267,28.510946 228.033020,23.227726 
	C235.459457,20.694113 242.966232,18.603407 250.438416,16.395592 
	C254.680664,15.142133 255.161407,18.222574 255.898346,20.962332 
	C260.131653,36.701218 264.317871,52.452766 268.537720,68.195282 
	C272.973114,84.741806 276.957520,101.429649 282.047089,117.772926 
	C285.229523,127.992126 283.868652,138.102203 284.201294,148.654236 
	C280.491791,148.654236 277.070953,148.654236 272.974701,148.654236 
	C271.434814,143.122345 269.776428,137.268631 268.180756,131.397873 
	C267.003021,127.064789 265.965149,122.693336 264.761993,118.367615 
	C262.615387,110.649818 259.005463,107.805389 250.465103,107.214355 
	C248.533401,101.610367 246.990875,96.052544 245.280136,89.883240 
	C248.233215,83.940498 249.679367,78.255852 248.535278,72.094711 
	C247.355698,65.742607 244.704849,63.804111 238.153534,64.322510 
z"/>
<path fill="#FBDB44" opacity="1.000000" stroke="none" 
	d="
M147.990479,411.921539 
	C127.679192,414.779755 108.073265,399.506836 106.028938,379.233704 
	C103.832809,357.455139 119.217110,338.316650 140.125488,336.880280 
	C142.435226,336.721619 144.766647,336.878510 147.718628,337.274780 
	C149.846207,339.208008 151.253311,340.856018 152.854111,342.287415 
	C167.981369,355.814026 171.502960,380.237823 159.882904,398.040558 
	C156.580765,403.099670 151.990189,407.317749 147.990479,411.921539 
M139.040649,393.624878 
	C145.412979,396.691132 150.806992,394.310150 151.004745,387.975952 
	C151.284897,379.002075 151.272369,370.006592 150.995682,361.032318 
	C150.819366,355.314514 145.348068,352.221252 140.280258,354.799561 
	C137.339554,356.295654 134.483887,358.120728 131.962006,360.240417 
	C128.149399,363.445038 128.272141,369.626617 132.653214,371.629974 
	C136.426010,373.355164 135.942688,375.807831 136.154007,378.723206 
	C136.504486,383.558563 134.556534,388.799896 139.040649,393.624878 
z"/>
<path fill="#FDDD45" opacity="1.000000" stroke="none" 
	d="
M238.074936,471.403503 
	C243.718430,471.044617 249.280075,471.046997 255.293213,471.049286 
	C257.193298,477.081665 259.155121,478.719086 265.454010,478.734283 
	C283.603027,478.778046 301.752197,478.749939 319.901306,478.750092 
	C321.716644,478.750122 323.531952,478.750122 325.671417,478.750122 
	C325.671417,485.101715 325.671417,491.198944 325.671417,497.649658 
	C282.736115,497.649658 239.570374,497.649658 196.204254,497.649658 
	C196.204254,491.505280 196.204254,485.427002 196.204254,478.748749 
	C207.146072,478.748749 217.902481,478.722107 228.658661,478.760681 
	C233.577881,478.778351 237.060699,477.005188 238.074936,471.403503 
z"/>
<path fill="#E01158" opacity="1.000000" stroke="none" 
	d="
M351.020569,129.070450 
	C356.818481,129.006134 362.616455,128.884827 368.414246,128.893112 
	C374.504242,128.901810 376.115784,130.477371 376.135345,136.496704 
	C376.180115,150.257263 376.169067,164.018066 376.145782,177.778717 
	C376.137451,182.703217 378.006073,186.110718 383.580383,187.522751 
	C383.942902,193.628769 383.943848,199.200394 383.944824,204.772003 
	C377.966248,206.118835 376.261353,208.193008 376.159729,214.329468 
	C376.118927,216.793961 376.153015,219.259705 376.153015,221.750305 
	C368.133026,220.903214 360.497375,220.096710 352.449066,218.714294 
	C352.037598,190.888412 352.064758,163.638382 351.995728,136.388580 
	C351.989563,133.948395 351.360413,131.509796 351.020569,129.070450 
z"/>
<path fill="#F9A42E" opacity="1.000000" stroke="none" 
	d="
M384.313904,204.865280 
	C383.943848,199.200394 383.942902,193.628769 383.943359,187.598877 
	C389.300507,186.146667 391.415680,182.823227 391.183228,177.519852 
	C390.995087,173.226776 391.145081,168.918869 391.145081,164.015884 
	C401.935333,164.015884 412.368317,163.909821 422.791443,164.181656 
	C423.821747,164.208527 425.738434,166.617279 425.650391,167.802078 
	C423.762604,193.204910 416.750549,217.061356 403.806824,239.164261 
	C399.999023,236.271622 396.319031,233.701843 392.945892,230.778076 
	C391.913605,229.883347 391.301270,228.038803 391.226868,226.591690 
	C391.004791,222.271744 391.081085,217.932007 391.160767,213.602219 
	C391.245667,208.988968 389.388580,205.932129 384.313904,204.865280 
z"/>
<path fill="#F5C22C" opacity="1.000000" stroke="none" 
	d="
M385.987671,296.947144 
	C385.995514,293.904755 386.003326,290.862335 386.305237,287.178772 
	C392.065826,284.282501 394.121002,280.311462 392.718140,274.714905 
	C391.578400,270.168152 388.409149,268.522522 382.132812,269.218567 
	C378.672699,254.653687 368.962708,244.861542 357.233185,236.611206 
	C356.562836,236.139664 355.897369,235.661194 355.082397,234.915710 
	C384.216156,233.700607 409.760712,259.427795 409.475128,289.575378 
	C409.192169,319.454285 385.718658,343.333405 355.427856,344.023560 
	C359.598053,340.185211 364.261749,336.484711 368.795990,332.631866 
	C370.023560,331.588776 370.859528,330.084900 372.310364,328.356689 
	C383.382324,325.763336 390.130219,319.553345 392.454498,308.843414 
	C393.868927,302.325897 392.315491,299.575653 385.987671,296.947144 
z"/>
<path fill="#FB3A82" opacity="1.000000" stroke="none" 
	d="
M350.555786,128.990448 
	C351.360413,131.509796 351.989563,133.948395 351.995728,136.388580 
	C352.064758,163.638382 352.037598,190.888412 352.026306,218.612915 
	C345.860474,220.107071 339.704651,221.126709 332.964050,222.243210 
	C332.964050,191.276947 332.964050,160.431915 332.964050,128.910446 
	C338.272614,128.910446 344.181793,128.910446 350.555786,128.990448 
z"/>
<path fill="#F5C22C" opacity="1.000000" stroke="none" 
	d="
M148.398163,411.975464 
	C151.990189,407.317749 156.580765,403.099670 159.882904,398.040558 
	C171.502960,380.237823 167.981369,355.814026 152.854111,342.287415 
	C151.253311,340.856018 149.846207,339.208008 148.169647,337.386658 
	C165.098740,338.191467 179.382477,352.741394 181.391205,371.136444 
	C183.317108,388.773071 171.495438,406.092926 154.163834,410.960480 
	C152.415665,411.451447 150.593613,411.679382 148.398163,411.975464 
z"/>
<path fill="#5067C8" opacity="1.000000" stroke="none" 
	d="
M123.386444,294.005005 
	C123.386444,287.389648 123.386444,280.774292 123.386444,273.509552 
	C124.538651,274.463379 125.439827,275.032562 126.119324,275.798462 
	C136.433502,287.423584 148.113235,297.458099 160.904785,306.276001 
	C162.460938,307.348755 163.692688,309.803345 163.895874,311.741119 
	C164.342453,316.000458 164.034424,320.338867 164.034424,324.474854 
	C156.764938,323.516846 149.799332,322.598877 142.384644,321.184204 
	C142.786850,315.680908 140.972870,311.944336 137.207611,308.508118 
	C133.464859,305.092438 130.450714,300.886322 127.026878,297.108521 
	C125.964859,295.936737 124.608208,295.032013 123.386444,294.005005 
z"/>
<path fill="#FCA62F" opacity="1.000000" stroke="none" 
	d="
M359.999695,458.112885 
	C365.636597,458.050995 371.275208,458.052460 376.909698,457.901337 
	C379.872162,457.821869 381.095215,459.048950 381.073303,462.028778 
	C380.995148,472.648102 381.001007,483.268555 381.068878,493.887970 
	C381.088013,496.879791 379.763214,498.065674 376.851959,498.018860 
	C371.543365,497.933411 366.232574,497.984528 360.463135,497.448608 
	C360.002289,483.983307 360.001007,471.048096 359.999695,458.112885 
z"/>
<path fill="#FCA62F" opacity="1.000000" stroke="none" 
	d="
M159.996262,458.113831 
	C165.631760,458.051636 171.268936,458.052185 176.902069,457.901581 
	C179.863937,457.822449 181.085907,459.053345 181.064178,462.030365 
	C180.986664,472.647064 180.994324,483.264893 181.058502,493.881744 
	C181.076492,496.860016 179.767700,498.067902 176.846939,498.019501 
	C171.539734,497.931519 166.230194,497.984253 160.462341,497.448212 
	C160.000778,483.983368 159.998520,471.048615 159.996262,458.113831 
z"/>
<path fill="#F8C52D" opacity="1.000000" stroke="none" 
	d="
M359.537659,458.031433 
	C360.001007,471.048096 360.002289,483.983307 359.999329,497.376617 
	C355.022675,497.888824 350.048981,497.891022 345.078369,498.016571 
	C342.107483,498.091614 340.919708,496.754669 340.938293,493.821350 
	C341.005554,483.205780 341.013855,472.589203 340.933624,461.973846 
	C340.910797,458.952087 342.224884,457.827332 345.143158,457.898468 
	C349.784943,458.011688 354.431244,457.942230 359.537659,458.031433 
z"/>
<path fill="#F8C52D" opacity="1.000000" stroke="none" 
	d="
M159.534668,458.031982 
	C159.998520,471.048615 160.000778,483.983368 159.998444,497.376221 
	C155.020309,497.888550 150.045456,497.890961 145.073715,498.016571 
	C142.105499,498.091583 140.912766,496.764679 140.931976,493.824799 
	C141.001358,483.206818 141.009964,472.587738 140.927094,461.969940 
	C140.903458,458.940582 142.221283,457.827179 145.137344,457.898407 
	C149.780243,458.011871 154.427597,457.942322 159.534668,458.031982 
z"/>
<path fill="#F68724" opacity="1.000000" stroke="none" 
	d="
M225.554886,129.703766 
	C233.626846,127.423286 241.698792,125.142807 250.325180,122.705688 
	C252.691025,131.454117 254.953003,139.818451 257.431305,148.982681 
	C248.928848,148.982681 240.925003,148.982681 232.438660,148.524948 
	C230.783783,143.318741 229.750885,138.528809 228.359161,133.845520 
	C227.906326,132.321732 226.516281,131.076431 225.554886,129.703766 
z"/>
<path fill="#F9A42E" opacity="1.000000" stroke="none" 
	d="
M225.165771,129.732910 
	C226.516281,131.076431 227.906326,132.321732 228.359161,133.845520 
	C229.750885,138.528809 230.783783,143.318741 231.974167,148.454803 
	C219.852554,148.842377 207.712906,148.842377 194.999985,148.842377 
	C194.112808,145.563034 193.188217,142.145340 192.166367,138.368118 
	C203.309158,135.427475 214.042923,132.594772 225.165771,129.732910 
z"/>
<path fill="#6C80D4" opacity="1.000000" stroke="none" 
	d="
M123.314323,294.469788 
	C124.608208,295.032013 125.964859,295.936737 127.026878,297.108521 
	C130.450714,300.886322 133.464859,305.092438 137.207611,308.508118 
	C140.972870,311.944336 142.786850,315.680908 141.932846,321.098022 
	C135.949203,322.555847 129.968277,323.603149 123.242203,324.780884 
	C123.242203,314.911499 123.242203,304.923035 123.314323,294.469788 
z"/>
<path fill="#BA0C48" opacity="1.000000" stroke="none" 
	d="
M317.579559,132.902603 
	C317.728821,138.258667 317.728821,143.209763 317.728821,148.585098 
	C311.795227,148.585098 305.930939,148.585098 299.422119,148.585098 
	C299.422119,143.683258 299.268738,138.625336 299.529510,133.588852 
	C299.595032,132.323303 300.736450,130.803864 301.818604,129.957565 
	C305.313049,127.224815 314.644257,128.860886 317.579559,132.902603 
z"/>
<path fill="#F5D643" opacity="1.000000" stroke="none" 
	d="
M425.714508,103.803802 
	C429.670746,100.471191 433.343506,97.360153 436.278778,94.873802 
	C439.840668,98.458420 444.250763,102.896660 447.827148,106.495880 
	C444.263031,110.074097 439.847229,114.507362 436.089935,118.279526 
	C432.555054,114.638290 428.291992,110.246948 423.766754,105.585526 
	C423.650238,105.694748 424.540649,104.860062 425.714508,103.803802 
z"/>
<path fill="#F5D643" opacity="1.000000" stroke="none" 
	d="
M69.199432,104.700974 
	C67.430511,103.157837 65.923386,101.869911 65.203827,101.254997 
	C69.625519,96.930511 74.014832,92.637703 77.830338,88.906075 
	C81.187859,92.400833 85.496506,96.885590 89.398399,100.946968 
	C86.136642,104.112206 81.681145,108.435875 77.063202,112.917191 
	C75.090485,110.851295 72.275856,107.903732 69.199432,104.700974 
z"/>
<path fill="#F5D643" opacity="1.000000" stroke="none" 
	d="
M363.836456,48.172432 
	C366.971527,51.153992 369.868774,53.874725 372.007812,55.883438 
	C367.651611,60.182854 363.192505,64.583847 359.407501,68.319504 
	C355.995483,64.781189 351.671356,60.296982 348.014343,56.504589 
	C351.424835,53.119652 355.831390,48.746147 360.412598,44.199295 
	C360.904083,44.771969 362.251373,46.341782 363.836456,48.172432 
z"/>
<path fill="#F9A42E" opacity="1.000000" stroke="none" 
	d="
M264.363037,321.315613 
	C271.667755,317.831329 279.398743,314.471710 287.478882,311.037506 
	C288.840668,313.407501 289.853333,315.852051 291.276001,319.286346 
	C282.142914,320.029053 273.466125,320.734650 264.363037,321.315613 
z"/>
<path fill="#F9A42E" opacity="1.000000" stroke="none" 
	d="
M260.323822,321.428528 
	C260.315399,321.142792 260.510559,321.105652 260.807556,321.260742 
	C260.887573,321.330750 260.505646,321.554810 260.323822,321.428528 
z"/>
<path fill="#010504" opacity="1.000000" stroke="none" 
	d="
M205.648682,87.597870 
	C203.586288,85.347244 201.369965,83.467850 200.306976,81.075905 
	C198.907486,77.926735 198.279022,74.402710 197.572510,70.987419 
	C196.949570,67.976036 195.976486,66.275475 192.305542,65.838173 
	C187.327805,65.245209 185.097778,59.144650 188.039780,54.894398 
	C190.106781,51.908226 192.600098,49.121220 195.307159,46.696415 
	C199.425980,43.007015 205.432312,44.353291 207.078430,49.642204 
	C210.089294,59.315983 212.755203,69.124023 214.963440,79.010429 
	C216.248230,84.762543 212.625671,87.868774 205.648682,87.597870 
z"/>
<path fill="#010504" opacity="1.000000" stroke="none" 
	d="
M183.580658,90.334656 
	C186.593994,94.026718 190.050339,95.219955 194.445221,94.439377 
	C199.297058,93.577644 203.017593,96.139542 203.803619,100.431488 
	C204.564148,104.584229 201.807373,108.058083 196.886002,109.148476 
	C185.016174,111.778389 172.572678,104.966652 168.365784,93.536156 
	C166.412598,88.229202 167.922974,83.753044 172.188614,82.206818 
	C176.460770,80.658234 179.968597,82.609703 182.259613,87.794609 
	C182.595490,88.554756 182.986725,89.290443 183.580658,90.334656 
z"/>
<path fill="#010504" opacity="1.000000" stroke="none" 
	d="
M237.903229,64.548492 
	C244.704849,63.804111 247.355698,65.742607 248.535278,72.094711 
	C249.679367,78.255852 248.233215,83.940498 245.027374,89.623795 
	C240.352844,93.330856 236.067596,97.274536 231.078003,99.857727 
	C226.964920,101.987137 222.729706,99.600914 221.310501,95.774651 
	C219.861359,91.867752 221.642975,88.073456 225.876389,86.050636 
	C232.871964,82.708015 234.236908,80.372879 233.398254,72.956329 
	C232.978180,69.241478 234.345490,66.519402 237.903229,64.548492 
z"/>
<path fill="#010504" opacity="1.000000" stroke="none" 
	d="
M169.555237,55.964584 
	C171.730835,58.038696 174.051849,59.791237 175.166122,62.120941 
	C177.050049,66.059883 176.614731,70.058464 172.492844,72.620468 
	C169.272308,74.622231 166.066910,74.079117 163.366989,71.454926 
	C160.458435,68.627945 159.282333,61.565125 161.867981,59.080341 
	C163.660522,57.357742 166.684311,56.916382 169.555237,55.964584 
z"/>
<path fill="#010504" opacity="1.000000" stroke="none" 
	d="
M230.890030,38.519279 
	C235.836090,37.417778 239.282150,38.880554 241.009125,43.573196 
	C243.100052,49.254826 242.307449,51.988903 237.257797,55.783722 
	C232.394180,56.431549 228.821213,55.076298 227.290375,50.297878 
	C225.819565,45.706860 225.595093,41.456604 230.890030,38.519279 
z"/>
<path fill="#040301" opacity="1.000000" stroke="none" 
	d="
M351.834106,271.370941 
	C359.019348,270.685791 361.946320,273.159912 362.008057,279.717072 
	C362.083344,287.708344 362.084900,295.701508 362.004456,303.692688 
	C361.950287,309.077637 358.967163,312.255127 354.332764,312.138519 
	C349.944611,312.028076 347.192230,308.907166 347.041199,303.765381 
	C346.967896,301.270020 346.886444,298.760925 347.060272,296.275635 
	C347.299713,292.852325 346.992584,290.388092 343.203583,288.426483 
	C338.923523,286.210632 339.142578,280.152008 343.129211,276.975616 
	C345.713776,274.916290 348.683441,273.340271 351.834106,271.370941 
z"/>
<path fill="#060501" opacity="1.000000" stroke="none" 
	d="
M328.769531,299.233337 
	C329.779510,301.462860 330.719116,303.380951 331.191193,305.407898 
	C332.203217,309.753510 334.553680,312.404877 339.146393,313.059326 
	C344.856567,313.873047 347.710541,317.203125 346.978912,321.826233 
	C346.297882,326.129272 342.614685,328.439026 337.175385,327.974060 
	C326.024933,327.020935 316.406372,316.804810 316.179718,305.674072 
	C316.035797,298.606293 321.771027,295.482788 328.769531,299.233337 
z"/>
<path fill="#060501" opacity="1.000000" stroke="none" 
	d="
M385.627106,297.034088 
	C392.315491,299.575653 393.868927,302.325897 392.454498,308.843414 
	C390.130219,319.553345 383.382324,325.763336 372.378265,328.027710 
	C369.641693,327.588165 366.553040,327.764099 365.090210,326.307373 
	C363.370453,324.594910 361.766541,320.994507 362.466797,319.069244 
	C363.353851,316.630646 366.383026,313.822601 368.893616,313.356445 
	C374.552979,312.305664 377.453674,309.663818 378.001373,304.018616 
	C378.417053,299.734619 381.220581,297.711273 385.627106,297.034088 
z"/>
<path fill="#040301" opacity="1.000000" stroke="none" 
	d="
M361.048279,246.471680 
	C364.664246,248.590530 368.236877,250.160980 371.023315,252.621658 
	C374.176514,255.406174 374.119965,259.228363 371.413910,262.460144 
	C368.682068,265.722717 364.887238,266.334747 361.627350,263.722565 
	C356.596619,259.691345 352.282806,259.973053 347.304230,263.818146 
	C343.994263,266.374512 340.209381,265.632172 337.552917,262.314636 
	C334.907898,259.011383 335.150238,255.422974 338.125610,252.407135 
	C344.411865,246.035324 352.130493,244.589325 361.048279,246.471680 
z"/>
<path fill="#060501" opacity="1.000000" stroke="none" 
	d="
M381.913086,269.490479 
	C388.409149,268.522522 391.578400,270.168152 392.718140,274.714905 
	C394.121002,280.311462 392.065826,284.282501 386.304077,286.720062 
	C382.226593,286.281250 378.810028,284.908356 378.139465,280.676270 
	C377.490814,276.582245 377.353333,272.364807 381.913086,269.490479 
z"/>
<path fill="#060501" opacity="1.000000" stroke="none" 
	d="
M317.715820,271.832611 
	C322.292023,268.042572 326.395996,267.984741 329.336456,271.361389 
	C332.178497,274.625031 331.838745,281.849609 328.710724,284.666962 
	C324.497070,288.462128 317.684906,286.511414 316.594482,280.815277 
	C316.070984,278.080597 317.126434,275.043671 317.715820,271.832611 
z"/>
<path fill="#040301" opacity="1.000000" stroke="none" 
	d="
M138.749283,393.347046 
	C134.556534,388.799896 136.504486,383.558563 136.154007,378.723206 
	C135.942688,375.807831 136.426010,373.355164 132.653214,371.629974 
	C128.272141,369.626617 128.149399,363.445038 131.962006,360.240417 
	C134.483887,358.120728 137.339554,356.295654 140.280258,354.799561 
	C145.348068,352.221252 150.819366,355.314514 150.995682,361.032318 
	C151.272369,370.006592 151.284897,379.002075 151.004745,387.975952 
	C150.806992,394.310150 145.412979,396.691132 138.749283,393.347046 
z"/>
</svg>