<svg version="1.1" id="Layer_1" xmlns="http://www.w3.org/2000/svg" xmlns:xlink="http://www.w3.org/1999/xlink" x="0px" y="0px"
	 width="100%" viewBox="0 0 1000 176" enable-background="new 0 0 1000 176" xml:space="preserve">
<path fill="#000000" opacity="1.000000" stroke="none" 
	d="
M145.000000,1.000000 
	C430.272552,1.000000 715.545105,1.000000 1000.908813,1.000000 
	C1000.908813,59.593277 1000.908813,118.186745 1000.908813,177.000000 
	C688.639832,177.000000 376.279633,177.000000 63.122917,176.755066 
	C70.569473,169.430756 71.090599,163.846481 64.199188,155.205093 
	C77.829659,132.613525 91.557655,110.012726 105.111000,87.307663 
	C109.412460,80.101700 113.390411,72.690788 117.224335,65.223709 
	C118.660858,62.425884 118.759819,58.903889 120.335297,56.221004 
	C129.203094,41.119980 138.246689,26.119595 147.436951,11.212267 
	C149.828461,7.333047 151.467484,4.288772 145.363937,2.729271 
	C145.111801,2.664850 145.115494,1.599192 145.000000,1.000000 
M414.977844,29.044569 
	C410.883789,30.389235 406.958954,31.931030 405.227386,36.425133 
	C395.149475,62.581329 385.071930,88.737679 374.959778,114.880630 
	C372.373840,121.566040 369.663147,128.203171 366.721954,135.584839 
	C364.251587,128.158340 361.292664,126.010452 354.446594,126.004082 
	C340.954712,125.991524 327.457245,125.778427 313.973816,126.115768 
	C309.006744,126.240051 307.860229,124.576347 307.900452,119.873039 
	C308.112610,95.056435 308.105316,70.236267 307.918152,45.419262 
	C307.876923,39.954521 307.441437,34.224148 301.767181,30.943932 
	C293.038177,25.897840 282.814301,32.041725 283.016449,42.796417 
	C283.284424,57.053036 283.810455,71.305977 283.961609,85.563301 
	C284.129303,101.385345 284.020874,117.210579 283.991089,133.034348 
	C283.974823,141.662338 289.769562,149.746857 300.058685,149.235077 
	C317.338898,148.375580 334.693848,149.094940 352.014862,148.912018 
	C355.152374,148.878891 358.692352,148.402649 361.289581,146.858124 
	C363.772034,145.381851 365.267822,142.246460 367.095673,139.967041 
	C370.891693,147.705627 373.632202,149.565323 381.382294,148.974472 
	C388.224274,148.452866 390.811096,143.522110 392.678925,137.808746 
	C394.238831,133.037354 396.111481,128.368896 397.717896,123.611740 
	C398.608368,120.974815 399.964966,119.824455 403.027191,119.907951 
	C412.347992,120.162071 421.684845,120.170433 431.005402,119.911461 
	C434.484100,119.814812 435.884888,121.245064 437.051819,124.235466 
	C439.466248,130.422852 442.207916,136.487061 444.953552,142.539093 
	C446.822571,146.658813 450.403320,148.648178 454.710388,148.951233 
	C465.101593,149.682343 471.060455,140.916000 467.068329,131.159409 
	C464.735596,125.458275 462.718018,119.628845 460.426605,113.910042 
	C450.362823,88.793526 440.265839,63.690277 430.146179,38.596230 
	C427.562134,32.188522 423.074127,28.490757 414.977844,29.044569 
M938.792908,99.058807 
	C939.920532,99.600098 941.431519,99.843483 942.118347,100.727333 
	C952.818848,114.496887 963.245728,128.483185 974.152649,142.085236 
	C976.767456,145.346222 980.547363,148.511093 984.416321,149.719955 
	C989.453491,151.293747 994.589844,149.453293 997.260437,144.151764 
	C999.726379,139.256744 999.151001,134.564972 995.700989,130.144943 
	C987.862366,120.102272 980.145264,109.964745 972.370911,99.871826 
	C967.802124,93.940407 963.218262,88.020523 958.756714,82.244942 
	C969.566406,70.925461 979.974792,60.000515 990.415222,49.106312 
	C994.534485,44.808029 995.437012,37.103851 992.352173,32.862679 
	C988.489380,27.551870 981.472351,26.005051 975.758240,29.873709 
	C972.871033,31.828407 970.681641,34.812050 968.170166,37.323887 
	C958.279480,47.216034 948.453613,57.174454 938.458618,66.960114 
	C934.783142,70.558609 930.705627,73.746559 925.999878,77.825256 
	C925.999878,64.295700 926.053284,51.872334 925.978333,39.449749 
	C925.938293,32.817665 920.256042,27.040394 913.973389,27.001505 
	C907.169189,26.959385 901.944336,32.391586 902.013916,39.639145 
	C902.315552,71.048035 902.582275,102.457878 903.112488,133.863144 
	C903.176147,137.629913 904.045593,141.766129 905.826843,145.029510 
	C908.387329,149.720169 914.183167,151.282257 919.306641,149.862961 
	C923.898071,148.591049 927.997559,143.430634 927.936401,138.169983 
	C927.846313,130.409592 927.678040,122.618217 926.875977,114.909447 
	C926.361755,109.966759 928.877380,107.196259 932.075562,104.455681 
	C934.073242,102.743774 936.105835,101.072594 938.792908,99.058807 
M825.524231,28.986490 
	C824.382690,29.123821 823.184753,29.083630 822.108093,29.425423 
	C808.477905,33.752533 797.107727,41.455051 788.653259,52.995777 
	C782.441284,61.475433 778.001221,70.941971 777.066528,81.562042 
	C775.956238,94.176376 778.034912,106.361557 783.066467,118.052094 
	C788.276855,130.158035 795.747742,140.286407 808.188538,145.556015 
	C825.119080,152.727356 842.324951,152.648849 859.830139,147.062180 
	C875.719116,141.991318 884.491577,121.238159 884.941833,109.841225 
	C885.128845,105.106514 881.881653,101.963158 877.931580,100.688667 
	C874.059021,99.439178 869.105896,98.110970 866.171204,102.485741 
	C863.316650,106.740898 861.719055,111.832901 858.914429,116.129807 
	C856.597778,119.678955 853.915771,124.255486 850.374451,125.522652 
	C834.095581,131.347580 809.646057,127.577797 803.078125,103.414276 
	C801.556335,97.815514 799.791138,91.833473 800.305786,86.226799 
	C801.290039,75.503960 806.518250,66.281479 815.064575,59.556026 
	C823.360535,53.027573 832.513916,49.427334 843.639282,51.836990 
	C852.562012,53.769558 857.243713,60.040764 862.242554,66.529030 
	C866.319214,71.820389 872.519226,74.289711 879.369019,69.271187 
	C884.485840,65.522308 886.129028,58.558479 881.769409,53.499779 
	C876.058289,46.872868 870.195251,39.968910 863.111816,35.027149 
	C852.209106,27.420843 839.401367,26.468077 825.524231,28.986490 
M178.999847,73.499992 
	C179.333267,92.089592 179.673813,110.679062 179.992889,129.268906 
	C180.044312,132.265274 179.995468,135.263290 180.001205,138.260529 
	C180.011795,143.797852 183.470978,148.804321 188.043488,149.910172 
	C194.122620,151.380402 200.483505,148.612000 202.870010,143.177963 
	C203.627930,141.452194 203.935791,139.403152 203.951889,137.497833 
	C204.048401,126.076836 203.999741,114.654610 203.999741,103.008614 
	C207.455139,103.008614 210.403778,102.458046 213.056274,103.110825 
	C221.336517,105.148582 229.390747,103.818161 237.368881,101.932121 
	C247.890411,99.444809 257.351349,94.919777 264.005371,85.912315 
	C274.584442,71.591469 271.029938,53.440681 258.877991,40.469276 
	C250.264221,31.274614 238.886841,27.516190 226.744324,27.191408 
	C216.759216,26.924332 206.705170,28.105286 196.730194,29.121061 
	C192.487854,29.553070 187.925537,30.417692 184.295441,32.474400 
	C178.412384,35.807575 179.540878,42.551590 179.150085,48.033157 
	C178.571335,56.151081 179.000076,64.340828 178.999847,73.499992 
M621.435364,103.999527 
	C626.442383,103.327606 631.573669,103.137314 636.430664,101.883926 
	C646.678284,99.239388 656.480164,95.043159 662.842224,86.231857 
	C677.789062,65.530876 663.812195,39.029037 643.538025,30.974033 
	C627.195740,24.481190 610.658081,27.232845 594.107483,29.471533 
	C590.752014,29.925404 586.966675,29.942886 584.222168,31.576897 
	C579.156128,34.593037 577.937439,40.032688 577.998779,45.702370 
	C578.335083,76.778755 578.667969,107.855179 578.999268,138.931625 
	C579.055298,144.189438 583.056702,149.330826 587.622803,149.993546 
	C594.633911,151.011093 600.685852,148.353851 601.811462,142.560944 
	C602.960815,136.646057 602.814880,130.453735 602.960266,124.376274 
	C603.129578,117.296341 602.999756,110.209244 602.999756,102.709297 
	C609.343079,103.177147 614.918274,103.588341 621.435364,103.999527 
M750.569519,146.043930 
	C755.700439,149.798065 761.212341,150.420609 766.488708,146.857971 
	C771.720581,143.325378 772.705078,137.960419 769.948608,130.367355 
	C767.018921,122.297310 763.871216,114.304222 760.704224,106.322929 
	C752.812256,86.434074 744.951782,66.531586 736.857727,46.724869 
	C734.798706,41.686405 732.904053,35.967674 729.189209,32.355774 
	C722.854980,26.197039 711.486938,27.935612 706.974426,39.840664 
	C695.660400,69.689880 683.938782,99.384453 672.462708,129.172668 
	C671.365540,132.020676 670.036011,135.143387 670.225952,138.046158 
	C670.604431,143.827805 675.360413,148.561432 680.140564,148.987457 
	C688.207947,149.706451 691.775635,147.723343 694.753967,140.470291 
	C697.089417,134.782822 699.050781,128.934555 700.990906,123.095451 
	C701.794067,120.678207 703.099548,119.900696 705.629456,119.940948 
	C714.957703,120.089371 724.295227,120.185944 733.617371,119.905914 
	C737.221436,119.797646 738.800232,121.091110 740.152100,124.308754 
	C743.169495,131.490784 746.697754,138.458206 750.569519,146.043930 
M529.999817,114.513336 
	C528.063660,104.287346 532.885498,96.244980 538.205872,88.221176 
	C547.269653,74.551849 556.281311,60.839397 564.912903,46.896221 
	C568.610352,40.923454 566.494507,34.205204 560.888550,30.975977 
	C554.390198,27.232697 548.185852,28.764742 543.967590,35.136677 
	C539.126221,42.449726 534.275391,49.756409 529.422241,57.061626 
	C525.230835,63.370827 521.030518,69.674088 516.647461,76.260521 
	C508.447937,62.233543 500.721588,48.685085 492.650146,35.345467 
	C488.516144,28.513268 481.312622,27.037346 474.757782,31.061975 
	C468.884125,34.668365 468.170471,41.674782 471.522949,47.743053 
	C479.911377,62.926968 489.304352,77.552200 497.971436,92.587692 
	C501.466522,98.650940 506.841919,103.825638 506.150177,112.012321 
	C505.465698,120.112625 505.840942,128.320053 506.048798,136.472900 
	C506.230408,143.595123 510.082245,149.867706 518.821594,149.115997 
	C526.056824,148.493683 529.997070,144.585190 529.999512,136.486877 
	C530.001587,129.494171 529.999817,122.501472 529.999817,114.513336 
z"/>
<path fill="#000000" opacity="1.000000" stroke="none" 
	d="
M50.000004,177.000000 
	C33.686314,177.000000 17.372627,177.000000 1.029471,177.000000 
	C1.029471,118.423561 1.029471,59.847107 1.029471,1.000000 
	C47.020542,1.000000 93.041611,1.000000 139.888702,1.237457 
	C139.662674,4.405123 134.822510,7.418483 141.224716,9.856701 
	C132.555298,24.243469 124.119698,38.242199 115.840317,51.981705 
	C102.836601,44.092175 90.462296,36.370518 77.868164,29.025808 
	C70.614098,24.795351 61.468506,26.857456 57.332199,33.333031 
	C54.023407,38.513103 51.119877,43.950119 47.941463,49.215740 
	C34.516525,71.456604 20.967184,93.622925 7.644979,115.925018 
	C0.696712,127.556801 0.846511,141.518997 11.664197,150.647766 
	C20.453930,158.065201 31.425615,162.859924 41.218781,169.146255 
	C44.481804,171.240814 47.091595,174.353012 50.000004,177.000000 
z"/>
<path fill="#39CCCC" opacity="1.000000" stroke="none" 
	d="
M50.463188,177.000000 
	C47.091595,174.353012 44.481804,171.240814 41.218781,169.146255 
	C31.425615,162.859924 20.453930,158.065201 11.664197,150.647766 
	C0.846511,141.518997 0.696712,127.556801 7.644979,115.925018 
	C20.967184,93.622925 34.516525,71.456604 47.941463,49.215740 
	C51.119877,43.950119 54.023407,38.513103 57.332199,33.333031 
	C61.468506,26.857456 70.614098,24.795351 77.868164,29.025808 
	C90.462296,36.370518 102.836601,44.092175 115.840317,51.981705 
	C124.119698,38.242199 132.555298,24.243469 141.224716,9.856701 
	C134.822510,7.418483 139.662674,4.405123 140.357361,1.237457 
	C141.388885,1.000000 142.777786,1.000000 144.583344,1.000000 
	C145.115494,1.599192 145.111801,2.664850 145.363937,2.729271 
	C151.467484,4.288772 149.828461,7.333047 147.436951,11.212267 
	C138.246689,26.119595 129.203094,41.119980 120.335297,56.221004 
	C118.759819,58.903889 118.660858,62.425884 117.224335,65.223709 
	C113.390411,72.690788 109.412460,80.101700 105.111000,87.307663 
	C91.557655,110.012726 77.829659,132.613525 64.199188,155.205093 
	C71.090599,163.846481 70.569473,169.430756 62.663212,176.755066 
	C58.975456,177.000000 54.950912,177.000000 50.463188,177.000000 
M68.935463,87.404419 
	C67.737534,89.343513 66.522423,91.272232 65.344360,93.223328 
	C54.685963,110.875702 44.026886,128.527679 33.387085,146.191269 
	C31.554131,149.234222 27.897470,152.840546 28.542791,155.266281 
	C29.245945,157.909424 33.951874,159.520248 36.964428,161.502670 
	C38.454575,162.483246 40.001591,163.419785 41.625877,164.145859 
	C45.849693,166.033905 52.275608,164.864227 54.737335,161.618454 
	C56.794975,158.905457 58.639793,156.015640 60.405376,153.099091 
	C71.082565,135.461472 81.735893,117.809258 92.344147,100.130081 
	C98.690857,89.552956 105.018173,78.962608 111.202660,68.290382 
	C114.414360,62.748108 113.861504,57.319172 109.499527,54.124699 
	C104.822800,50.699722 99.729675,47.843342 94.817871,44.738564 
	C93.424950,46.921467 92.262680,48.678692 91.164116,50.474869 
	C83.787720,62.535473 76.424866,74.604362 68.935463,87.404419 
M25.069117,148.563889 
	C31.586040,137.672806 38.059036,126.755150 44.629013,115.896164 
	C58.422962,93.097260 72.160469,70.262695 86.184677,47.605885 
	C88.910545,43.202106 90.059364,40.463032 83.981529,38.312870 
	C80.679855,37.144833 77.895561,34.592369 74.709831,33.000778 
	C69.517151,30.406507 64.419106,31.743725 61.231094,36.452152 
	C59.326187,39.265533 57.728100,42.285591 55.966854,45.197483 
	C41.494919,69.124153 27.096889,93.096031 12.511145,116.953148 
	C3.717414,131.336578 7.801461,145.551376 22.394094,152.713425 
	C23.246265,151.570953 24.098436,150.428467 25.069117,148.563889 
M62.267727,162.888351 
	C59.187069,165.269592 56.106411,167.650848 53.025753,170.032089 
	C53.076401,170.434265 53.127045,170.836426 53.177692,171.238586 
	C55.271496,171.104004 57.638222,171.542114 59.396748,170.704025 
	C62.210945,169.362823 63.827888,166.817993 62.267727,162.888351 
z"/>
<path fill="#39CCCC" opacity="1.000000" stroke="none" 
	d="
M415.395416,29.025532 
	C423.074127,28.490757 427.562134,32.188522 430.146179,38.596230 
	C440.265839,63.690277 450.362823,88.793526 460.426605,113.910042 
	C462.718018,119.628845 464.735596,125.458275 467.068329,131.159409 
	C471.060455,140.916000 465.101593,149.682343 454.710388,148.951233 
	C450.403320,148.648178 446.822571,146.658813 444.953552,142.539093 
	C442.207916,136.487061 439.466248,130.422852 437.051819,124.235466 
	C435.884888,121.245064 434.484100,119.814812 431.005402,119.911461 
	C421.684845,120.170433 412.347992,120.162071 403.027191,119.907951 
	C399.964966,119.824455 398.608368,120.974815 397.717896,123.611740 
	C396.111481,128.368896 394.238831,133.037354 392.678925,137.808746 
	C390.811096,143.522110 388.224274,148.452866 381.382294,148.974472 
	C373.632202,149.565323 370.891693,147.705627 367.095673,139.967041 
	C365.267822,142.246460 363.772034,145.381851 361.289581,146.858124 
	C358.692352,148.402649 355.152374,148.878891 352.014862,148.912018 
	C334.693848,149.094940 317.338898,148.375580 300.058685,149.235077 
	C289.769562,149.746857 283.974823,141.662338 283.991089,133.034348 
	C284.020874,117.210579 284.129303,101.385345 283.961609,85.563301 
	C283.810455,71.305977 283.284424,57.053036 283.016449,42.796417 
	C282.814301,32.041725 293.038177,25.897840 301.767181,30.943932 
	C307.441437,34.224148 307.876923,39.954521 307.918152,45.419262 
	C308.105316,70.236267 308.112610,95.056435 307.900452,119.873039 
	C307.860229,124.576347 309.006744,126.240051 313.973816,126.115768 
	C327.457245,125.778427 340.954712,125.991524 354.446594,126.004082 
	C361.292664,126.010452 364.251587,128.158340 366.721954,135.584839 
	C369.663147,128.203171 372.373840,121.566040 374.959778,114.880630 
	C385.071930,88.737679 395.149475,62.581329 405.227386,36.425133 
	C406.958954,31.931030 410.883789,30.389235 415.395416,29.025532 
M421.072845,83.411026 
	C419.975647,80.417160 418.878448,77.423294 417.570465,73.854233 
	C414.614075,81.549088 411.909698,88.588112 409.089813,95.927750 
	C415.078125,95.927750 420.198181,95.927750 425.677979,95.927750 
	C424.262238,91.853127 422.906311,87.950577 421.072845,83.411026 
z"/>
<path fill="#39CCCC" opacity="1.000000" stroke="none" 
	d="
M938.457825,99.220978 
	C936.105835,101.072594 934.073242,102.743774 932.075562,104.455681 
	C928.877380,107.196259 926.361755,109.966759 926.875977,114.909447 
	C927.678040,122.618217 927.846313,130.409592 927.936401,138.169983 
	C927.997559,143.430634 923.898071,148.591049 919.306641,149.862961 
	C914.183167,151.282257 908.387329,149.720169 905.826843,145.029510 
	C904.045593,141.766129 903.176147,137.629913 903.112488,133.863144 
	C902.582275,102.457878 902.315552,71.048035 902.013916,39.639145 
	C901.944336,32.391586 907.169189,26.959385 913.973389,27.001505 
	C920.256042,27.040394 925.938293,32.817665 925.978333,39.449749 
	C926.053284,51.872334 925.999878,64.295700 925.999878,77.825256 
	C930.705627,73.746559 934.783142,70.558609 938.458618,66.960114 
	C948.453613,57.174454 958.279480,47.216034 968.170166,37.323887 
	C970.681641,34.812050 972.871033,31.828407 975.758240,29.873709 
	C981.472351,26.005051 988.489380,27.551870 992.352173,32.862679 
	C995.437012,37.103851 994.534485,44.808029 990.415222,49.106312 
	C979.974792,60.000515 969.566406,70.925461 958.756714,82.244942 
	C963.218262,88.020523 967.802124,93.940407 972.370911,99.871826 
	C980.145264,109.964745 987.862366,120.102272 995.700989,130.144943 
	C999.151001,134.564972 999.726379,139.256744 997.260437,144.151764 
	C994.589844,149.453293 989.453491,151.293747 984.416321,149.719955 
	C980.547363,148.511093 976.767456,145.346222 974.152649,142.085236 
	C963.245728,128.483185 952.818848,114.496887 942.118347,100.727333 
	C941.431519,99.843483 939.920532,99.600098 938.457825,99.220978 
z"/>
<path fill="#39CCCC" opacity="1.000000" stroke="none" 
	d="
M825.967163,28.945019 
	C839.401367,26.468077 852.209106,27.420843 863.111816,35.027149 
	C870.195251,39.968910 876.058289,46.872868 881.769409,53.499779 
	C886.129028,58.558479 884.485840,65.522308 879.369019,69.271187 
	C872.519226,74.289711 866.319214,71.820389 862.242554,66.529030 
	C857.243713,60.040764 852.562012,53.769558 843.639282,51.836990 
	C832.513916,49.427334 823.360535,53.027573 815.064575,59.556026 
	C806.518250,66.281479 801.290039,75.503960 800.305786,86.226799 
	C799.791138,91.833473 801.556335,97.815514 803.078125,103.414276 
	C809.646057,127.577797 834.095581,131.347580 850.374451,125.522652 
	C853.915771,124.255486 856.597778,119.678955 858.914429,116.129807 
	C861.719055,111.832901 863.316650,106.740898 866.171204,102.485741 
	C869.105896,98.110970 874.059021,99.439178 877.931580,100.688667 
	C881.881653,101.963158 885.128845,105.106514 884.941833,109.841225 
	C884.491577,121.238159 875.719116,141.991318 859.830139,147.062180 
	C842.324951,152.648849 825.119080,152.727356 808.188538,145.556015 
	C795.747742,140.286407 788.276855,130.158035 783.066467,118.052094 
	C778.034912,106.361557 775.956238,94.176376 777.066528,81.562042 
	C778.001221,70.941971 782.441284,61.475433 788.653259,52.995777 
	C797.107727,41.455051 808.477905,33.752533 822.108093,29.425423 
	C823.184753,29.083630 824.382690,29.123821 825.967163,28.945019 
z"/>
<path fill="#39CCCC" opacity="1.000000" stroke="none" 
	d="
M178.999878,73.000000 
	C179.000076,64.340828 178.571335,56.151081 179.150085,48.033157 
	C179.540878,42.551590 178.412384,35.807575 184.295441,32.474400 
	C187.925537,30.417692 192.487854,29.553070 196.730194,29.121061 
	C206.705170,28.105286 216.759216,26.924332 226.744324,27.191408 
	C238.886841,27.516190 250.264221,31.274614 258.877991,40.469276 
	C271.029938,53.440681 274.584442,71.591469 264.005371,85.912315 
	C257.351349,94.919777 247.890411,99.444809 237.368881,101.932121 
	C229.390747,103.818161 221.336517,105.148582 213.056274,103.110825 
	C210.403778,102.458046 207.455139,103.008614 203.999741,103.008614 
	C203.999741,114.654610 204.048401,126.076836 203.951889,137.497833 
	C203.935791,139.403152 203.627930,141.452194 202.870010,143.177963 
	C200.483505,148.612000 194.122620,151.380402 188.043488,149.910172 
	C183.470978,148.804321 180.011795,143.797852 180.001205,138.260529 
	C179.995468,135.263290 180.044312,132.265274 179.992889,129.268906 
	C179.673813,110.679062 179.333267,92.089592 178.999878,73.000000 
M215.808105,51.008892 
	C213.219254,51.339470 210.629105,51.941948 208.041885,51.929585 
	C205.026657,51.915176 203.825836,53.015766 203.962036,56.044716 
	C204.126175,59.695358 203.999695,63.359074 203.998978,67.017128 
	C203.996735,78.385902 203.996689,78.386459 215.234497,78.999031 
	C215.732224,79.026161 216.254898,78.933449 216.726456,79.052734 
	C225.133987,81.179482 232.818817,78.764084 240.079651,74.911621 
	C246.429428,71.542557 247.681641,65.145699 243.125732,59.800213 
	C241.153046,57.485638 238.605698,54.882946 235.859955,54.162807 
	C229.639374,52.531307 223.133575,51.987297 215.808105,51.008892 
z"/>
<path fill="#39CCCC" opacity="1.000000" stroke="none" 
	d="
M620.964417,103.999527 
	C614.918274,103.588341 609.343079,103.177147 602.999756,102.709297 
	C602.999756,110.209244 603.129578,117.296341 602.960266,124.376274 
	C602.814880,130.453735 602.960815,136.646057 601.811462,142.560944 
	C600.685852,148.353851 594.633911,151.011093 587.622803,149.993546 
	C583.056702,149.330826 579.055298,144.189438 578.999268,138.931625 
	C578.667969,107.855179 578.335083,76.778755 577.998779,45.702370 
	C577.937439,40.032688 579.156128,34.593037 584.222168,31.576897 
	C586.966675,29.942886 590.752014,29.925404 594.107483,29.471533 
	C610.658081,27.232845 627.195740,24.481190 643.538025,30.974033 
	C663.812195,39.029037 677.789062,65.530876 662.842224,86.231857 
	C656.480164,95.043159 646.678284,99.239388 636.430664,101.883926 
	C631.573669,103.137314 626.442383,103.327606 620.964417,103.999527 
M624.681824,79.010353 
	C627.590637,78.615059 630.623108,78.616203 633.386353,77.754150 
	C643.922485,74.467155 647.377869,67.050804 641.604980,59.470196 
	C639.466675,56.662209 635.907898,54.572170 632.578064,53.105804 
	C623.745117,49.215996 614.476196,51.576660 605.373535,52.127254 
	C604.561035,52.176395 603.210083,53.450043 603.149353,54.235382 
	C602.543030,62.081184 602.155151,69.943871 601.633057,79.071342 
	C609.606873,79.071342 616.700623,79.071342 624.681824,79.010353 
z"/>
<path fill="#39CCCC" opacity="1.000000" stroke="none" 
	d="
M750.293701,145.778503 
	C746.697754,138.458206 743.169495,131.490784 740.152100,124.308754 
	C738.800232,121.091110 737.221436,119.797646 733.617371,119.905914 
	C724.295227,120.185944 714.957703,120.089371 705.629456,119.940948 
	C703.099548,119.900696 701.794067,120.678207 700.990906,123.095451 
	C699.050781,128.934555 697.089417,134.782822 694.753967,140.470291 
	C691.775635,147.723343 688.207947,149.706451 680.140564,148.987457 
	C675.360413,148.561432 670.604431,143.827805 670.225952,138.046158 
	C670.036011,135.143387 671.365540,132.020676 672.462708,129.172668 
	C683.938782,99.384453 695.660400,69.689880 706.974426,39.840664 
	C711.486938,27.935612 722.854980,26.197039 729.189209,32.355774 
	C732.904053,35.967674 734.798706,41.686405 736.857727,46.724869 
	C744.951782,66.531586 752.812256,86.434074 760.704224,106.322929 
	C763.871216,114.304222 767.018921,122.297310 769.948608,130.367355 
	C772.705078,137.960419 771.720581,143.325378 766.488708,146.857971 
	C761.212341,150.420609 755.700439,149.798065 750.293701,145.778503 
M713.932739,91.376816 
	C713.418884,92.834724 712.905029,94.292625 712.368103,95.816086 
	C717.979187,95.816086 723.211975,95.816086 728.884338,95.816086 
	C726.237671,88.694206 723.707031,81.884666 720.815430,74.103722 
	C718.221191,80.443375 716.143738,85.520020 713.932739,91.376816 
z"/>
<path fill="#39CCCC" opacity="1.000000" stroke="none" 
	d="
M529.999817,115.011055 
	C529.999817,122.501472 530.001587,129.494171 529.999512,136.486877 
	C529.997070,144.585190 526.056824,148.493683 518.821594,149.115997 
	C510.082245,149.867706 506.230408,143.595123 506.048798,136.472900 
	C505.840942,128.320053 505.465698,120.112625 506.150177,112.012321 
	C506.841919,103.825638 501.466522,98.650940 497.971436,92.587692 
	C489.304352,77.552200 479.911377,62.926968 471.522949,47.743053 
	C468.170471,41.674782 468.884125,34.668365 474.757782,31.061975 
	C481.312622,27.037346 488.516144,28.513268 492.650146,35.345467 
	C500.721588,48.685085 508.447937,62.233543 516.647461,76.260521 
	C521.030518,69.674088 525.230835,63.370827 529.422241,57.061626 
	C534.275391,49.756409 539.126221,42.449726 543.967590,35.136677 
	C548.185852,28.764742 554.390198,27.232697 560.888550,30.975977 
	C566.494507,34.205204 568.610352,40.923454 564.912903,46.896221 
	C556.281311,60.839397 547.269653,74.551849 538.205872,88.221176 
	C532.885498,96.244980 528.063660,104.287346 529.999817,115.011055 
z"/>
<path fill="#000000" opacity="1.000000" stroke="none" 
	d="
M68.996536,87.037491 
	C76.424866,74.604362 83.787720,62.535473 91.164116,50.474869 
	C92.262680,48.678692 93.424950,46.921467 94.817871,44.738564 
	C99.729675,47.843342 104.822800,50.699722 109.499527,54.124699 
	C113.861504,57.319172 114.414360,62.748108 111.202660,68.290382 
	C105.018173,78.962608 98.690857,89.552956 92.344147,100.130081 
	C81.735893,117.809258 71.082565,135.461472 60.405376,153.099091 
	C58.639793,156.015640 56.794975,158.905457 54.737335,161.618454 
	C52.275608,164.864227 45.849693,166.033905 41.625877,164.145859 
	C40.001591,163.419785 38.454575,162.483246 36.964428,161.502670 
	C33.951874,159.520248 29.245945,157.909424 28.542791,155.266281 
	C27.897470,152.840546 31.554131,149.234222 33.387085,146.191269 
	C44.026886,128.527679 54.685963,110.875702 65.344360,93.223328 
	C66.522423,91.272232 67.737534,89.343513 68.996536,87.037491 
z"/>
<path fill="#000000" opacity="1.000000" stroke="none" 
	d="
M25.009861,148.924942 
	C24.098436,150.428467 23.246265,151.570953 22.395060,152.714172 
	C7.801461,145.551376 3.717414,131.336578 12.511145,116.953148 
	C27.096889,93.096031 41.494919,69.124153 55.966854,45.197483 
	C57.728100,42.285591 59.326187,39.265533 61.231094,36.452152 
	C64.419106,31.743725 69.517151,30.406507 74.709831,33.000778 
	C77.895561,34.592369 80.679855,37.144833 83.981529,38.312870 
	C90.059364,40.463032 88.910545,43.202106 86.184677,47.605885 
	C72.160469,70.262695 58.422962,93.097260 44.629013,115.896164 
	C38.059036,126.755150 31.586040,137.672806 25.009861,148.924942 
z"/>
<path fill="#000000" opacity="1.000000" stroke="none" 
	d="
M62.541977,163.130096 
	C63.827888,166.817993 62.210945,169.362823 59.396748,170.704025 
	C57.638222,171.542114 55.271496,171.104004 53.177692,171.238586 
	C53.127045,170.836426 53.076401,170.434265 53.025753,170.032089 
	C56.106411,167.650848 59.187069,165.269592 62.541977,163.130096 
z"/>
<path fill="#000000" opacity="1.000000" stroke="none" 
	d="
M421.311615,83.729530 
	C422.906311,87.950577 424.262238,91.853127 425.677979,95.927750 
	C420.198181,95.927750 415.078125,95.927750 409.089813,95.927750 
	C411.909698,88.588112 414.614075,81.549088 417.570465,73.854233 
	C418.878448,77.423294 419.975647,80.417160 421.311615,83.729530 
z"/>
<path fill="#000000" opacity="1.000000" stroke="none" 
	d="
M216.275940,51.004986 
	C223.133575,51.987297 229.639374,52.531307 235.859955,54.162807 
	C238.605698,54.882946 241.153046,57.485638 243.125732,59.800213 
	C247.681641,65.145699 246.429428,71.542557 240.079651,74.911621 
	C232.818817,78.764084 225.133987,81.179482 216.726456,79.052734 
	C216.254898,78.933449 215.732224,79.026161 215.234497,78.999031 
	C203.996689,78.386459 203.996735,78.385902 203.998978,67.017128 
	C203.999695,63.359074 204.126175,59.695358 203.962036,56.044716 
	C203.825836,53.015766 205.026657,51.915176 208.041885,51.929585 
	C210.629105,51.941948 213.219254,51.339470 216.275940,51.004986 
z"/>
<path fill="#000000" opacity="1.000000" stroke="none" 
	d="
M624.238098,79.040848 
	C616.700623,79.071342 609.606873,79.071342 601.633057,79.071342 
	C602.155151,69.943871 602.543030,62.081184 603.149353,54.235382 
	C603.210083,53.450043 604.561035,52.176395 605.373535,52.127254 
	C614.476196,51.576660 623.745117,49.215996 632.578064,53.105804 
	C635.907898,54.572170 639.466675,56.662209 641.604980,59.470196 
	C647.377869,67.050804 643.922485,74.467155 633.386353,77.754150 
	C630.623108,78.616203 627.590637,78.615059 624.238098,79.040848 
z"/>
<path fill="#000000" opacity="1.000000" stroke="none" 
	d="
M713.999512,90.986740 
	C716.143738,85.520020 718.221191,80.443375 720.815430,74.103722 
	C723.707031,81.884666 726.237671,88.694206 728.884338,95.816086 
	C723.211975,95.816086 717.979187,95.816086 712.368103,95.816086 
	C712.905029,94.292625 713.418884,92.834724 713.999512,90.986740 
z"/>
</svg>