<svg width="184" height="181" viewBox="0 0 184 181" fill="none" xmlns="http://www.w3.org/2000/svg">
<path d="M49.2813 123.484C41.289 125.601 20.8941 125.933 10.0366 108.518C-0.820989 91.102 3.23375 78.0301 6.75614 71.4833C9.35676 66.6497 14.4469 59.6321 24.3995 55.6097C28.0187 54.1469 34.3152 52.8844 36.2756 52.2797C35.8232 49.2562 36.0043 42.9066 36.2756 40.4879C36.6142 37.4684 36.728 25.0678 50.7523 12.8225C61.9718 3.02617 76.8406 2.39123 82.8726 3.29829C86.6425 3.903 92.6317 4.96936 99.4975 9.34944C106.363 13.7295 111.675 19.9278 114.993 24.6143C116.199 24.0096 120.06 22.9816 125.85 23.7072C133.089 24.6143 137.047 26.5836 142.475 32.026C146.818 36.3799 149.827 46.535 150.28 50.9191C154.351 51.9774 163.58 55.0009 167.923 58.6291C173.352 63.1645 178.667 69.0604 180.591 81.3057C182.304 92.2155 178.31 102.999 174.709 108.971C171.881 113.662 165.095 119.104 159.214 121.372C153.383 123.62 140.968 125 138.404 125M51.6571 41.8485C52.2603 34.8943 57.9002 20.5325 75.6342 18.7184M165.661 88.5622C165.36 94.307 161.047 106.431 146.208 108.971" stroke="#BABABA" stroke-width="6"/>
<path d="M136 133C136 157.883 116.047 178 91.5 178C66.9529 178 47 157.883 47 133C47 108.117 66.9529 88 91.5 88C116.047 88 136 108.117 136 133Z" stroke="#BABABA" stroke-width="6"/>
<path d="M102.088 113L91.2747 124.818L80.011 113.455L71 122.545L82.2637 133.455L71 144.364L81.3626 153L91.2747 141.636L102.989 152.091L112 143L100.736 132.545L110.648 121.636L102.088 113Z" fill="#12D3CF" stroke="#BABABA" stroke-width="6" stroke-linejoin="round"/>
</svg>
